<svg width="28" height="28" viewBox="0 0 28 28" fill="none" xmlns="http://www.w3.org/2000/svg">
<path d="M10.75 20.5H1.54168C1.24268 20.5 1 20.7427 1 21.0417C1 21.3407 1.24268 21.5834 1.54168 21.5834H10.75C11.049 21.5834 11.2916 21.3407 11.2916 21.0417C11.2916 20.7427 11.049 20.5 10.75 20.5Z" fill="#0957A8" stroke="#0957A8" stroke-width="0.3"/>
<path d="M12.375 1H4.79167C2.70081 1 1 2.70081 1 4.79167V23.2083C1 25.2991 2.70081 26.9999 4.79167 26.9999H5.87498C6.17398 26.9999 6.41666 26.7572 6.41666 26.4582C6.41666 26.1592 6.17398 25.9165 5.87498 25.9165H4.79167C3.29886 25.9165 2.08336 24.701 2.08336 23.2082V4.79167C2.08336 3.29886 3.29886 2.08336 4.79167 2.08336H12.375C13.8678 2.08336 15.0833 3.29886 15.0833 4.79167V10.2083C15.0833 10.5073 15.3259 10.75 15.6249 10.75C15.9239 10.75 16.1666 10.5073 16.1666 10.2083V4.79167C16.1666 2.70081 14.4658 1 12.375 1Z" fill="#48494A" stroke="#48494A" stroke-width="0.3"/>
<path d="M15.6249 5.33325H1.54168C1.24268 5.33325 1 5.57593 1 5.87493C1 6.17393 1.24268 6.41661 1.54168 6.41661H15.6249C15.9239 6.41661 16.1666 6.17393 16.1666 5.87493C16.1666 5.57593 15.9239 5.33325 15.6249 5.33325Z" fill="#48494A" stroke="#48494A" stroke-width="0.3"/>
<path d="M10.2084 3.16675H6.95843C6.65943 3.16675 6.41675 3.40943 6.41675 3.70843C6.41675 4.00743 6.65943 4.25006 6.95843 4.25006H10.2084C10.5074 4.25006 10.7501 4.00738 10.7501 3.70838C10.7501 3.40938 10.5074 3.16675 10.2084 3.16675Z" fill="#0957A8" stroke="#0957A8" stroke-width="0.3"/>
<path d="M12.3967 3.16675H12.3859C12.0869 3.16675 11.8496 3.40943 11.8496 3.70843C11.8496 4.00743 12.0977 4.25006 12.3967 4.25006C12.6957 4.25006 12.9384 4.00738 12.9384 3.70838C12.9384 3.40938 12.6957 3.16675 12.3967 3.16675Z" fill="#0957A8" stroke="#0957A8" stroke-width="0.3"/>
<path d="M25.4509 15.338L21.3776 10.8617C20.5716 10.0557 19.2586 10.0546 18.445 10.8682C18.1872 11.126 18.0117 11.4347 17.9207 11.7641C17.1104 11.1444 15.9415 11.2051 15.195 11.9515C14.9383 12.2093 14.7628 12.5181 14.6696 12.8463C13.8593 12.2266 12.6904 12.2873 11.9451 13.0348C11.6926 13.2873 11.5193 13.5895 11.4251 13.9091L9.50538 11.9894C8.69938 11.1834 7.38639 11.1823 6.57283 11.9959C5.76576 12.8019 5.76576 14.1149 6.57283 14.922L13.9481 22.2972L9.57363 22.9841C8.3917 23.1531 7.50014 24.1801 7.50014 25.375C7.50014 26.2709 8.2292 27 9.12513 27H19.3398C20.9313 27 22.4273 26.3803 23.5529 25.2547L25.257 23.5507C26.3815 22.4272 27.0001 20.9322 27.0001 19.343C27.0001 17.8588 26.4497 16.4364 25.4509 15.338ZM24.4911 22.7847L22.787 24.4888C21.8662 25.4096 20.642 25.9166 19.3398 25.9166H9.12513C8.82613 25.9166 8.58345 25.6739 8.58345 25.3749C8.58345 24.7162 9.07527 24.1497 9.73395 24.0544L15.1669 23.2007C15.3684 23.1693 15.5341 23.0274 15.598 22.8334C15.6609 22.6406 15.61 22.4272 15.4659 22.2831L7.33764 14.155C6.95308 13.7704 6.95308 13.1453 7.34414 12.7542C7.53696 12.5625 7.78939 12.466 8.04182 12.466C8.29425 12.466 8.54664 12.5625 8.7395 12.7553L14.1594 18.1752C14.3707 18.3864 14.7141 18.3864 14.9253 18.1752C15.0304 18.069 15.0835 17.9304 15.0835 17.7917C15.0835 17.653 15.0305 17.5144 14.9253 17.4093L12.7121 15.196C12.3275 14.8115 12.3275 14.1863 12.7186 13.7953C13.1021 13.4118 13.7293 13.4118 14.1128 13.7953L16.3261 16.0085C16.5373 16.2198 16.8808 16.2198 17.092 16.0085C17.1971 15.9023 17.2502 15.7637 17.2502 15.625C17.2502 15.4863 17.1971 15.3477 17.0964 15.247L15.9665 14.117C15.5819 13.7325 15.5819 13.1073 15.973 12.7163C16.3565 12.3328 16.9837 12.3328 17.3672 12.7163L18.4971 13.8462C18.4982 13.8473 18.4982 13.8473 18.4982 13.8473L18.4993 13.8483C18.5003 13.8494 18.5003 13.8494 18.5003 13.8494C18.5014 13.8505 18.5014 13.8505 18.5014 13.8505H18.5025C18.5035 13.8505 18.5035 13.8515 18.5035 13.8515C18.7158 14.052 19.0506 14.0487 19.2586 13.8407C19.4698 13.6295 19.4698 13.286 19.2586 13.0748L19.212 13.0282C19.0257 12.8419 18.9228 12.5938 18.9228 12.3305C18.9228 12.0673 19.0246 11.8203 19.2175 11.6275C19.602 11.244 20.2271 11.2451 20.5944 11.6091L24.6504 16.067C25.4661 16.965 25.9168 18.1285 25.9168 19.343C25.9167 20.643 25.4108 21.865 24.4911 22.7847Z" fill="#48494A" stroke="#48494A" stroke-width="0.3"/>
</svg>
