<svg width="21" height="24" viewBox="0 0 21 24" fill="none" xmlns="http://www.w3.org/2000/svg">
<path d="M3.32747 18.3816L2.81372 17.8318L2.29997 18.3816C2.28235 18.4005 1.86333 18.8507 1.44179 19.4527C0.820599 20.3399 0.518677 21.0767 0.518677 21.7051C0.518677 22.9706 1.54824 24.0001 2.81372 24.0001C4.07921 24.0001 5.10872 22.9706 5.10872 21.7051C5.10872 21.0767 4.8068 20.3399 4.18566 19.4528C3.76416 18.8507 3.34515 18.4005 3.32747 18.3816ZM2.81372 22.5939C2.32365 22.5939 1.92493 22.1952 1.92493 21.7051C1.92493 21.2767 2.35486 20.5575 2.81311 19.9559C3.26771 20.555 3.70247 21.2811 3.70247 21.7051C3.70247 22.1952 3.30375 22.5939 2.81372 22.5939Z" fill="#0957A8"/>
<path d="M19.2924 4.60514V6.0817H17.972C17.0399 6.0817 16.2623 6.75403 16.0975 7.63908H13.4518C12.7719 6.83742 11.8271 6.30642 10.7976 6.1388V4.89919C11.1763 4.788 11.5179 4.58958 11.7991 4.32694C11.9389 4.36866 12.0843 4.40986 12.2373 4.45055C13.5157 4.79025 14.9188 5.00048 15.4859 5.00048C16.8645 5.00048 17.9862 3.87886 17.9862 2.50022C17.9862 1.12163 16.8645 0 15.4859 0C14.9188 0 13.5156 0.210281 12.2373 0.549937C12.0845 0.590531 11.9385 0.631641 11.7988 0.673266C11.3519 0.256078 10.7527 0 10.0944 0C9.43622 0 8.83702 0.256078 8.39006 0.673313C8.25042 0.631688 8.10431 0.590578 7.9515 0.549984C6.67322 0.210281 5.27002 0 4.70297 0C3.32433 0 2.2027 1.12163 2.2027 2.50027C2.2027 3.87891 3.32433 5.00053 4.70297 5.00053C5.27002 5.00053 6.67322 4.79025 7.9515 4.45059C8.10455 4.40991 8.25 4.3687 8.38978 4.32698C8.67103 4.58958 9.01256 4.788 9.39131 4.89923V6.13884C8.3618 6.30652 7.41703 6.83747 6.73711 7.63912H4.37569C1.96294 7.63912 0 9.60202 0 12.0148V17.0773H5.71875V13.3579H6.76481C7.59652 14.3188 8.81564 14.8827 10.0944 14.8827C11.3732 14.8827 12.5923 14.3188 13.424 13.3579H16.0702C16.1405 14.346 16.9663 15.1286 17.972 15.1286H19.2924V16.6052H20.6987V4.60519H19.2924V4.60514ZM15.4859 1.40625C16.0891 1.40625 16.5799 1.89703 16.5799 2.50027C16.5799 3.1035 16.0891 3.59428 15.4859 3.59428C15.1333 3.59428 14.045 3.44784 12.9186 3.17302C12.7798 3.13917 12.6497 3.1057 12.5278 3.07275C12.5711 2.88877 12.5947 2.69728 12.5947 2.50027C12.5947 2.30325 12.5711 2.11177 12.5278 1.92778C12.6498 1.89483 12.7798 1.86136 12.9186 1.82752C14.045 1.55269 15.1333 1.40625 15.4859 1.40625ZM4.70297 3.59428C4.09973 3.59428 3.60895 3.1035 3.60895 2.50027C3.60895 1.89703 4.09973 1.40625 4.70297 1.40625C5.05552 1.40625 6.14386 1.55269 7.27027 1.82752C7.4092 1.86141 7.539 1.89487 7.66106 1.92787C7.6178 2.11186 7.59417 2.3033 7.59417 2.50027C7.59417 2.69723 7.6178 2.88867 7.66106 3.07266C7.539 3.10561 7.4092 3.13908 7.27027 3.17302C6.14381 3.44789 5.05552 3.59428 4.70297 3.59428ZM9.00042 2.50027C9.00042 1.89703 9.4912 1.40625 10.0944 1.40625C10.6977 1.40625 11.1885 1.89703 11.1885 2.50027C11.1885 3.1035 10.6977 3.59428 10.0944 3.59428C9.4912 3.59428 9.00042 3.1035 9.00042 2.50027ZM12.7274 11.9516L12.5168 12.241C11.954 13.0146 11.0484 13.4764 10.0944 13.4764C9.14039 13.4764 8.23481 13.0146 7.67198 12.241L7.46142 11.9516H4.31245V15.671H1.4062V12.0148C1.4062 10.3774 2.7383 9.04533 4.37564 9.04533H7.443L7.65323 8.74973C8.21517 7.95966 9.12778 7.48795 10.0944 7.48795C11.061 7.48795 11.9737 7.95966 12.5355 8.74973L12.7458 9.04533H16.0647V11.9516H12.7274ZM17.972 13.7223C17.6957 13.7223 17.471 13.4976 17.471 13.2213V7.989C17.471 7.71272 17.6958 7.488 17.972 7.488H19.2924V13.7224H17.972V13.7223Z" fill="#48494A"/>
</svg>
