<svg width="24" height="24" viewBox="0 0 24 24" fill="none" xmlns="http://www.w3.org/2000/svg">
<g clip-path="url(#clip0_265_458)">
<path d="M6.07982 11.9042L4.45549 13.5285L3.94609 13.0189C3.76299 12.836 3.46635 12.836 3.28307 13.0189C3.10014 13.202 3.10014 13.4988 3.28307 13.6819L4.12407 14.5228C4.21196 14.6107 4.33116 14.6601 4.45549 14.6601C4.57982 14.6601 4.69902 14.6107 4.78691 14.5228L6.74266 12.567C6.92577 12.3841 6.92577 12.0873 6.74266 11.9042C6.55956 11.7211 6.26292 11.7211 6.07982 11.9042Z" fill="#0957A8"/>
<path d="M8.79346 14.6536H11.0021C11.261 14.6536 11.4708 14.4437 11.4708 14.1848C11.4708 13.9261 11.261 13.7161 11.0021 13.7161H8.79346C8.53455 13.7161 8.32471 13.9261 8.32471 14.1848C8.32471 14.4437 8.53455 14.6536 8.79346 14.6536Z" fill="#48494A"/>
<path d="M6.07982 17.0165L4.45549 18.6408L3.94609 18.1312C3.76299 17.9481 3.46635 17.9481 3.28307 18.1312C3.10014 18.3143 3.10014 18.6111 3.28307 18.7941L4.12407 19.6351C4.21196 19.723 4.33116 19.7724 4.45549 19.7724C4.57982 19.7724 4.69902 19.723 4.78691 19.6351L6.74266 17.6793C6.92577 17.4964 6.92577 17.1996 6.74266 17.0165C6.55956 16.8334 6.26292 16.8334 6.07982 17.0165Z" fill="#0957A8"/>
<path d="M12.4748 19.2971C12.4748 19.0382 12.2648 18.8284 12.006 18.8284H8.79346C8.53455 18.8284 8.32471 19.0382 8.32471 19.2971C8.32471 19.556 8.53455 19.7659 8.79346 19.7659H12.006C12.2648 19.7659 12.4748 19.556 12.4748 19.2971Z" fill="#48494A"/>
<path d="M8.79346 17.71H13.0098C13.2687 17.71 13.4786 17.5001 13.4786 17.2412C13.4786 16.9823 13.2687 16.7725 13.0098 16.7725H8.79346C8.53455 16.7725 8.32471 16.9823 8.32471 17.2412C8.32471 17.5001 8.53455 17.71 8.79346 17.71Z" fill="#48494A"/>
<path d="M6.07982 6.7948L4.45549 8.41913L3.94609 7.90955C3.76299 7.72662 3.46635 7.72662 3.28307 7.90955C3.10014 8.09265 3.10014 8.38947 3.28307 8.57257L4.12407 9.41339C4.21196 9.50128 4.33116 9.55072 4.45549 9.55072C4.57982 9.55072 4.69902 9.50128 4.78691 9.41339L6.74266 7.45764C6.92577 7.27472 6.92577 6.97791 6.74266 6.7948C6.55956 6.61169 6.26292 6.61169 6.07982 6.7948Z" fill="#0957A8"/>
<path d="M8.79346 9.54419H10.9017C11.1605 9.54419 11.3705 9.33435 11.3705 9.07544C11.3705 8.81671 11.1605 8.60669 10.9017 8.60669H8.79346C8.53455 8.60669 8.32471 8.81671 8.32471 9.07544C8.32471 9.33435 8.53455 9.54419 8.79346 9.54419Z" fill="#48494A"/>
<path d="M7.41614 23.0625C7.29236 23.0625 7.17188 23.1127 7.08417 23.1998C6.99701 23.287 6.94684 23.408 6.94684 23.5312C6.94684 23.6545 6.99701 23.7755 7.08417 23.8627C7.17188 23.9498 7.29236 24 7.41614 24C7.53937 24 7.65985 23.9498 7.74701 23.8627C7.83472 23.7755 7.88434 23.6545 7.88434 23.5312C7.88434 23.408 7.83472 23.287 7.74701 23.1998C7.65985 23.1127 7.53937 23.0625 7.41614 23.0625Z" fill="#0957A8"/>
<path d="M18.1415 7.32939L14.7665 8.38316C14.5708 8.44432 14.4375 8.62541 14.4375 8.83049V11.8358C14.4375 14.1078 15.9672 16.1146 18.1571 16.7159C18.1978 16.7271 18.2395 16.7326 18.2812 16.7326C18.323 16.7326 18.3647 16.7271 18.4054 16.7159C20.5953 16.1146 22.125 14.1078 22.125 11.836V8.83067C22.125 8.6256 21.9917 8.44432 21.796 8.38316L18.421 7.32939C18.33 7.30101 18.2325 7.30101 18.1415 7.32939ZM21.1875 9.17528V11.8358C21.1875 13.6436 19.9988 15.2454 18.2812 15.7757C16.5637 15.2454 15.375 13.6436 15.375 11.8358V9.17528L18.2812 8.26799L21.1875 9.17528Z" fill="#0957A8"/>
<path d="M23.671 7.00415L18.4321 5.36865C18.3842 5.35236 18.3334 5.34357 18.2816 5.34357C18.2814 5.34357 18.2811 5.34357 18.2809 5.34357C18.2292 5.34357 18.1783 5.35236 18.1306 5.36847L17.625 5.52631V2.52832C17.625 1.75287 16.9942 1.12207 16.2188 1.12207H12.8047V0.46875C12.8047 0.209839 12.5947 0 12.336 0H5.289C5.03027 0 4.82025 0.209839 4.82025 0.46875V1.12207H1.40625C0.630798 1.12207 0 1.75287 0 2.52832V22.5938C0 23.3692 0.630798 24 1.40625 24H5.3064C5.56531 24 5.77515 23.7902 5.77515 23.5312C5.77515 23.2723 5.56531 23.0625 5.3064 23.0625H1.40625C1.14771 23.0625 0.9375 22.8523 0.9375 22.5938V2.52832C0.9375 2.26996 1.14771 2.05957 1.40625 2.05957H4.82025V2.55084C4.82025 3.10858 5.27417 3.5625 5.83209 3.5625H11.7929C12.3508 3.5625 12.8047 3.10858 12.8047 2.55084V2.05957H16.2188C16.4773 2.05957 16.6875 2.26996 16.6875 2.52832V5.81909L14.3438 6.55078H8.79346C8.53455 6.55078 8.32471 6.76062 8.32471 7.01953C8.32471 7.27844 8.53455 7.48828 8.79346 7.48828H12.5625V11.6602H8.79346C8.53455 11.6602 8.32471 11.87 8.32471 12.1289C8.32471 12.3878 8.53455 12.5977 8.79346 12.5977H12.6044C12.8765 15.0637 14.454 17.185 16.6875 18.1763V20.1094H15.1406C14.3652 20.1094 13.7344 20.7402 13.7344 21.5156V23.0625H9.52551C9.2666 23.0625 9.05676 23.2723 9.05676 23.5312C9.05676 23.7902 9.2666 24 9.52551 24H14.2031C14.3275 24 14.4467 23.9506 14.5345 23.8627L17.4877 20.9095C17.5756 20.8217 17.625 20.7025 17.625 20.5781V18.5138C17.811 18.566 18.0004 18.611 18.193 18.6478C18.2221 18.6535 18.2518 18.6562 18.2812 18.6562C18.3107 18.6562 18.3404 18.6535 18.3695 18.6478C21.6321 18.0227 24 15.1578 24 11.8359V7.45166C24 7.24658 23.8667 7.06531 23.671 7.00415ZM11.8672 2.55084C11.8672 2.59167 11.8339 2.625 11.7929 2.625H5.83209C5.79108 2.625 5.75775 2.59167 5.75775 2.55084V0.9375H11.8672V2.55084ZM15.1406 21.0469H16.0247L14.6719 22.3997V21.5156C14.6719 21.2571 14.8821 21.0469 15.1406 21.0469ZM23.0625 11.8359C23.0625 14.6788 21.0573 17.1346 18.2812 17.7096C15.5052 17.1346 13.5 14.6788 13.5 11.8359V7.79645L17.2388 6.62915C17.2782 6.62219 17.3156 6.61029 17.3509 6.59418L18.2812 6.30359L23.0625 7.79626V11.8359Z" fill="#48494A"/>
<path d="M17.8612 13.4288C17.7413 13.4288 17.6213 13.3831 17.5298 13.2915L16.4498 12.2115C16.2667 12.0284 16.2667 11.7316 16.4498 11.5485C16.6329 11.3656 16.9296 11.3656 17.1127 11.5485L17.8612 12.2971L19.4498 10.7086C19.6329 10.5255 19.9296 10.5255 20.1129 10.7086C20.2958 10.8915 20.2958 11.1884 20.1129 11.3715L18.1928 13.2915C18.1011 13.3831 17.9813 13.4288 17.8612 13.4288Z" fill="#0957A8"/>
</g>
<defs>
<clipPath id="clip0_265_458">
<rect width="24" height="24" fill="white"/>
</clipPath>
</defs>
</svg>
