<svg width="19" height="26" viewBox="0 0 19 26" fill="none" xmlns="http://www.w3.org/2000/svg">
<path d="M15.3732 13.9188C15.7198 13.9188 16.0038 13.6588 16.0336 13.314C16.0434 13.2034 16.0692 13.0998 16.1109 13.0057C16.2589 12.6708 16.5877 12.5192 16.9686 12.3434C17.3722 12.1572 17.8294 11.946 18.1093 11.4731C18.3347 11.0922 18.3957 10.6165 18.2906 10.0586C18.2315 9.74493 17.9572 9.51715 17.6384 9.51715H14.2454V8.78033H15.3732C15.7198 8.78033 16.0036 8.52032 16.0336 8.17554C16.0432 8.06512 16.0692 7.9613 16.1107 7.86719C16.2589 7.53247 16.5877 7.38068 16.9686 7.2049C17.372 7.01868 17.8294 6.80774 18.1093 6.33459C18.3347 5.95374 18.3957 5.47803 18.2906 4.92029C18.2315 4.60645 17.9572 4.37866 17.6384 4.37866H14.2454V4.15857C14.2454 3.46606 13.6868 2.90192 12.9965 2.89221V2.63513C12.9967 1.73352 12.2631 1 11.3615 1H7.97902C7.07741 1 6.34407 1.73352 6.34407 2.63513V2.89221C5.65377 2.90192 5.09511 3.46606 5.09511 4.15857V4.37866H1.70217C1.3832 4.37866 1.1089 4.60645 1.04994 4.9201C0.944842 5.47784 1.00582 5.95374 1.23104 6.33459C1.51119 6.80774 1.9684 7.01868 2.37197 7.2049C2.75283 7.38068 3.08168 7.53229 3.22963 7.86719C3.27138 7.9613 3.2972 8.06494 3.3069 8.17554C3.33693 8.52032 3.62074 8.78033 3.96736 8.78033H5.09511V9.51715H1.70217C1.3832 9.51715 1.1089 9.74475 1.04994 10.0586C0.944842 10.6163 1.00582 11.0922 1.23104 11.4729C1.51119 11.946 1.9684 12.1572 2.37197 12.3434C2.75283 12.519 3.08168 12.6708 3.22963 13.0055C3.2712 13.0998 3.2972 13.2034 3.3069 13.3138C3.33675 13.6586 3.62074 13.9188 3.96736 13.9188H5.09493V14.6555H1.70217C1.3832 14.6555 1.1089 14.8832 1.04994 15.1971C0.944842 15.7546 1.00582 16.2305 1.23104 16.6114C1.51119 17.0845 1.9684 17.2957 2.37197 17.4817C2.75283 17.6575 3.08168 17.8093 3.22963 18.144C3.2712 18.2381 3.2972 18.3419 3.3069 18.4523C3.33675 18.7971 3.62074 19.0571 3.96736 19.0571H5.09493V19.3713C5.09493 20.0638 5.65358 20.628 6.34389 20.6377V21.2286C6.34389 21.8149 6.82106 22.2919 7.40718 22.2919H8.3965V24.6484C8.3965 24.8427 8.55397 25 8.74806 25C8.94216 25 9.09963 24.8427 9.09963 24.6484V22.2974H10.2409V24.6484C10.2409 24.8427 10.3982 25 10.5925 25C10.7866 25 10.944 24.8427 10.944 24.6484V22.2919H11.9332C12.5195 22.2919 12.9965 21.8149 12.9965 21.2286V20.6377C13.6868 20.628 14.2454 20.0638 14.2454 19.3713V19.0571H15.3732C15.7198 19.0571 16.0038 18.7971 16.0336 18.4523C16.0434 18.3419 16.0692 18.2381 16.1109 18.144C16.2589 17.8093 16.5877 17.6575 16.9686 17.4817C17.3722 17.2955 17.8294 17.0845 18.1093 16.6114C18.3347 16.2307 18.3957 15.7548 18.2906 15.1971C18.2315 14.8832 17.9572 14.6555 17.6384 14.6555H14.2454V13.9188H15.3732ZM17.6054 10.2203C17.6704 10.5907 17.6364 10.8915 17.5044 11.1149C17.3359 11.3995 17.0292 11.541 16.674 11.7049C16.2283 11.9105 15.7231 12.1436 15.4679 12.7213C15.3997 12.8753 15.3556 13.0416 15.3369 13.2157H14.2456V10.2203H17.6054ZM17.6054 5.08179C17.6704 5.45239 17.6364 5.75323 17.5044 5.97644C17.3359 6.26099 17.0292 6.40253 16.674 6.56641C16.2283 6.77203 15.7231 7.00513 15.4677 7.58282C15.3996 7.737 15.3556 7.90308 15.3367 8.07721H14.2454V5.08179H17.6054ZM4.0038 8.07721C3.98494 7.90308 3.941 7.737 3.87288 7.58282C3.61745 7.00513 3.11226 6.77203 2.66658 6.56641C2.31136 6.40253 2.00466 6.26099 1.8362 5.97644C1.70418 5.75323 1.67031 5.45239 1.73512 5.08179H5.09511V8.07721H4.0038ZM4.0038 13.2157C3.98494 13.0416 3.941 12.8755 3.87288 12.7213C3.61745 12.1436 3.11226 11.9105 2.66658 11.7049C2.31136 11.541 2.00466 11.3995 1.8362 11.1149C1.70418 10.8915 1.67031 10.5907 1.73512 10.2203H5.09511V13.2157H4.0038ZM11.9332 21.5887H7.40718C7.2087 21.5887 7.04701 21.4272 7.04701 21.2286V20.6382H12.2934V21.2286C12.2935 21.4272 12.1319 21.5887 11.9332 21.5887ZM13.5423 19.3713C13.5423 19.6823 13.2894 19.9351 12.9787 19.9351H6.36183C6.0511 19.9351 5.79823 19.6823 5.79823 19.3713V17.9091C5.79823 17.7148 5.64076 17.5575 5.44667 17.5575C5.2524 17.5575 5.09511 17.7148 5.09511 17.9091V18.354H4.0038C3.98494 18.1799 3.941 18.0138 3.87288 17.8598C3.61745 17.2821 3.11226 17.049 2.66658 16.8432C2.31136 16.6793 2.00466 16.5378 1.8362 16.2532C1.70418 16.03 1.67031 15.7292 1.73512 15.3586H5.09511V16.0698C5.09511 16.264 5.25258 16.4213 5.44667 16.4213C5.64076 16.4213 5.79823 16.264 5.79823 16.0698V4.15857C5.79823 3.84784 6.0511 3.59497 6.36183 3.59497H9.06868C9.26296 3.59497 9.42024 3.4375 9.42024 3.24341C9.42024 3.04913 9.26296 2.89185 9.06868 2.89185H7.0472V2.63513C7.0472 2.12115 7.46523 1.70312 7.97902 1.70312H11.3615C11.8753 1.70312 12.2935 2.12115 12.2935 2.63513V2.89185H10.9653C10.771 2.89185 10.6137 3.04913 10.6137 3.24341C10.6137 3.4375 10.771 3.59497 10.9653 3.59497H12.9787C13.2896 3.59497 13.5425 3.84784 13.5425 4.15857V19.3713H13.5423ZM17.6054 15.3588C17.6704 15.7292 17.6364 16.03 17.5044 16.2532C17.3359 16.538 17.0292 16.6795 16.674 16.8434C16.2283 17.049 15.7231 17.2821 15.4679 17.8598C15.3997 18.0138 15.3556 18.1799 15.3369 18.3542H14.2456V15.3588H17.6054Z" fill="#48494A" stroke="#48494A" stroke-width="0.3"/>
<path d="M9.67041 4.37842C8.49835 4.37842 7.54492 5.33185 7.54492 6.50391C7.54492 7.67578 8.49835 8.62939 9.67041 8.62939C10.8423 8.62939 11.7957 7.67578 11.7957 6.50391C11.7957 5.33185 10.8423 4.37842 9.67041 4.37842ZM9.67041 7.92627C8.88617 7.92627 11.1719 7.28424 11.1719 6.5C11.1719 5.71576 8.88599 7.92627 9.67041 7.92627C10.4547 7.92627 9.17188 6.71576 9.17188 7.5C9.17188 8.28424 10.4547 7.92627 9.67041 7.92627Z" fill="#0957A8"/>
<path d="M9.67041 10C8.49835 10 7.54492 10.9534 7.54492 12.1255C7.54492 13.2974 8.49835 14.251 9.67041 14.251C10.8423 14.251 11.7957 13.2974 11.7957 12.1255C11.7957 10.9534 10.8423 10 9.67041 10ZM9.67041 13.5479C8.88617 13.5479 11.1719 12.9058 11.1719 12.1216C11.1719 11.3373 8.88599 13.5479 9.67041 13.5479C10.4547 13.5479 9.17188 12.3373 9.17188 13.1216C9.17188 13.9058 10.4547 13.5479 9.67041 13.5479Z" fill="#0957A8"/>
<path d="M9.67041 15C8.49835 15 7.54492 15.9534 7.54492 17.1255C7.54492 18.2974 8.49835 19.251 9.67041 19.251C10.8423 19.251 11.7957 18.2974 11.7957 17.1255C11.7957 15.9534 10.8423 15 9.67041 15ZM9.67041 18.5479C8.88617 18.5479 11.1719 17.9058 11.1719 17.1216C11.1719 16.3373 8.88599 18.5479 9.67041 18.5479C10.4547 18.5479 9.17188 17.3373 9.17188 18.1216C9.17188 18.9058 10.4547 18.5479 9.67041 18.5479Z" fill="#48494A"/>
<path d="M9.67041 9.84473C8.49835 9.84473 7.54492 10.7982 7.54492 11.9702C7.54492 13.1423 8.49835 14.0957 9.67041 14.0957C10.8423 14.0957 11.7957 13.1423 11.7957 11.9702C11.7957 10.7982 10.8423 9.84473 9.67041 9.84473ZM9.67041 13.3926C8.88617 13.3926 8.24805 12.7545 8.24805 11.9702C8.24805 11.186 8.88599 10.5479 9.67041 10.5479C10.4547 10.5479 11.0926 11.186 11.0926 11.9702C11.0926 12.7545 10.4547 13.3926 9.67041 13.3926Z" fill="#0957A8"/>
<path d="M9.67041 14.8062C8.49835 14.8062 7.54492 15.7596 7.54492 16.9316C7.54492 18.1035 8.49835 19.0569 9.67041 19.0569C10.8423 19.0569 11.7957 18.1035 11.7957 16.9316C11.7957 15.7596 10.8423 14.8062 9.67041 14.8062ZM9.67041 18.3538C8.88617 18.3538 8.24805 17.7159 8.24805 16.9316C8.24805 16.1472 8.88599 15.5093 9.67041 15.5093C10.4547 15.5093 11.0926 16.1472 11.0926 16.9316C11.0926 17.7159 10.4547 18.3538 9.67041 18.3538Z" fill="#48494A"/>
</svg>
