<svg width="31" height="24" viewBox="0 0 31 24" fill="none" xmlns="http://www.w3.org/2000/svg">
<path d="M29.6543 22.9949H28.649C28.3714 22.9949 28.1464 23.2199 28.1464 23.4975C28.1464 23.7751 28.3714 24.0001 28.649 24.0001H29.6543C29.9319 24.0001 30.1569 23.7751 30.1569 23.4975C30.1569 23.2199 29.9319 22.9949 29.6543 22.9949Z" fill="#0957A8"/>
<path d="M4.02093 14.4504H11.0576C11.6125 14.4498 12.0622 14.0001 12.0628 13.4451V5.90588C12.0623 5.35093 11.6125 4.90122 11.0576 4.90063H4.02093C3.46598 4.90116 3.01628 5.35093 3.01569 5.90588V13.4451C3.01622 14.0001 3.46598 14.4498 4.02093 14.4504ZM8.54447 13.4452H6.53403V12.4399C6.53438 12.1625 6.7592 11.9377 7.03662 11.9373H8.04187C8.31929 11.9377 8.54411 12.1625 8.54447 12.4399V13.4452ZM4.02093 5.90594H11.0576L11.0583 13.4452H9.54971V12.4399C9.54883 11.6075 8.87425 10.933 8.04187 10.9321H7.03662C6.20425 10.933 5.52966 11.6075 5.52878 12.4399V13.4452H4.02093V5.90594Z" fill="#0957A8"/>
<path d="M10.5549 15.4556H4.52356C3.9686 15.4561 3.5189 15.9059 3.51831 16.4608V20.9843C3.51884 21.5393 3.9686 21.989 4.52356 21.9896H10.5549C11.1099 21.9891 11.5596 21.5393 11.5602 20.9843V16.4608C11.5596 15.9059 11.1099 15.4561 10.5549 15.4556ZM4.52356 20.9843V16.4608H10.5549L10.5556 20.9843H4.52356Z" fill="#0957A8"/>
<path d="M9.04709 17.4661H6.0314C5.75381 17.4661 5.52881 17.6911 5.52881 17.9687C5.52881 18.2463 5.75381 18.4713 6.0314 18.4713H9.04709C9.32469 18.4713 9.54969 18.2462 9.54969 17.9687C9.54969 17.6911 9.32469 17.4661 9.04709 17.4661Z" fill="#48494A"/>
<path d="M9.04709 18.9739H6.0314C5.75381 18.9739 5.52881 19.1989 5.52881 19.4765C5.52881 19.7541 5.75381 19.9791 6.0314 19.9791H9.04709C9.32469 19.9791 9.54969 19.7541 9.54969 19.4765C9.54969 19.1989 9.32469 18.9739 9.04709 18.9739Z" fill="#48494A"/>
<path d="M30.1569 2.00574C30.1572 1.35101 29.8378 0.73733 29.3013 0.362018C28.7649 -0.0132934 28.0789 -0.102939 27.464 0.121941C27.4575 0.124415 27.4505 0.125063 27.4443 0.127772C27.1745 0.22643 26.9293 0.382339 26.7255 0.584779L24.2729 3.03732L24.2726 3.03762L21.2572 6.05301L21.2569 6.0533L18.2416 9.0687L18.2413 9.06899L14.1058 13.2045C14.095 13.2105 14.0839 13.216 14.0732 13.2222V3.80285C14.674 3.59122 15.0765 3.02448 15.0784 2.38759V0.87975C15.0784 0.602154 14.8534 0.377156 14.5758 0.377156H0.502595C0.224999 0.377156 0 0.602213 0 0.87975V2.38759C0.0019437 3.02448 0.404526 3.59122 1.00525 3.80279V22.9948H0.502595C0.224999 22.9948 0 23.2198 0 23.4974C0 23.775 0.224999 24 0.502595 24H26.6385C26.9161 24 27.1411 23.775 27.1411 23.4974C27.1411 23.2198 26.9161 22.9948 26.6385 22.9948H17.0889V15.9049L18.9519 14.0419L18.9522 14.0416L21.9676 11.0262L21.9679 11.0259L24.9833 8.0105L24.9836 8.0102L27.999 4.99481L27.9993 4.99451L29.5673 3.42648C29.9433 3.04898 30.1551 2.53844 30.1569 2.00574ZM13.068 22.9948H2.01044V3.89544H13.0679V22.9948H13.068ZM13.5706 2.89025H1.50784C1.23042 2.88989 1.0056 2.66507 1.00525 2.38765V1.3824H14.0732V2.38765C14.0728 2.66507 13.848 2.88989 13.5706 2.89025ZM16.0837 22.9948H14.0732V14.953C14.0732 14.3978 14.5233 13.9477 15.0785 13.9477C15.6337 13.9477 16.0837 14.3978 16.0837 14.953V22.9948H16.0837ZM18.0941 13.4783L17.0423 14.5301C16.8877 13.8285 16.3704 13.2628 15.6853 13.0463L18.0941 10.6376V13.4783H18.0941ZM21.1098 10.4626L19.0994 12.473V9.63231L21.1098 7.62187V10.4626ZM24.1255 7.44688L22.1151 9.45732V6.61662L24.1255 4.60619V7.44688ZM27.1412 4.43119L25.1307 6.44163V3.60094L27.1412 1.5905V4.43119ZM28.8567 2.71573L28.1464 3.42594V1.00173C28.4128 1.00126 28.6684 1.10699 28.8567 1.29553C29.0455 1.48359 29.1516 1.7391 29.1516 2.00563C29.1516 2.27215 29.0455 2.52766 28.8567 2.71573Z" fill="#48494A"/>
<path d="M15.5408 15.2643C15.5297 15.2324 15.5144 15.202 15.4954 15.174C15.4755 15.1488 15.4554 15.1237 15.4352 15.0987C15.2907 14.9559 15.0745 14.9142 14.8872 14.9929C14.8257 15.0173 14.7695 15.0532 14.7215 15.0987C14.7014 15.1237 14.6813 15.1488 14.6612 15.174C14.6421 15.202 14.6269 15.2324 14.6157 15.2643C14.6013 15.2929 14.5912 15.3234 14.5858 15.3549C14.5799 15.3881 14.5766 15.4218 14.5758 15.4555C14.5765 15.5212 14.5901 15.5861 14.6158 15.6465C14.6402 15.708 14.6761 15.7643 14.7215 15.8124C14.7704 15.8567 14.8264 15.8924 14.8872 15.918C14.9477 15.9438 15.0127 15.9574 15.0784 15.9582C15.112 15.9572 15.1456 15.9539 15.1788 15.9481C15.2103 15.9425 15.2408 15.9323 15.2693 15.9179C15.3013 15.9068 15.3318 15.8916 15.3599 15.8725C15.3849 15.8526 15.41 15.8325 15.4352 15.8124C15.4806 15.7642 15.5164 15.7079 15.5408 15.6464C15.5665 15.586 15.5802 15.5211 15.581 15.4555C15.5801 15.4217 15.5768 15.3881 15.5709 15.3549C15.5654 15.3234 15.5552 15.2929 15.5408 15.2643Z" fill="#0957A8"/>
</svg>
