<svg width="28" height="28" viewBox="0 0 28 28" fill="none" xmlns="http://www.w3.org/2000/svg">
<path d="M2.91665 25.6666H25.0833C25.238 25.6666 25.3864 25.6051 25.4958 25.4957C25.6052 25.3863 25.6666 25.238 25.6666 25.0833V11.0833C25.6666 10.9285 25.6052 10.7802 25.4958 10.6708C25.3864 10.5614 25.238 10.4999 25.0833 10.4999H22.1666V5.24992C22.1666 5.09521 22.1052 4.94684 21.9958 4.83744C21.8864 4.72804 21.738 4.66659 21.5833 4.66659H18.6666V4.08325C18.6666 3.61912 18.4823 3.174 18.1541 2.84582C17.8259 2.51763 17.3808 2.33325 16.9166 2.33325H11.0833C10.6192 2.33325 10.1741 2.51763 9.84588 2.84582C9.51769 3.174 9.33331 3.61912 9.33331 4.08325V4.66659H6.41665C6.26194 4.66659 6.11356 4.72804 6.00417 4.83744C5.89477 4.94684 5.83331 5.09521 5.83331 5.24992V10.4999H2.91665C2.76194 10.4999 2.61356 10.5614 2.50417 10.6708C2.39477 10.7802 2.33331 10.9285 2.33331 11.0833V25.0833C2.33331 25.238 2.39477 25.3863 2.50417 25.4957C2.61356 25.6051 2.76194 25.6666 2.91665 25.6666ZM22.1666 11.6666H24.5V24.4999H22.1666V11.6666ZM15.75 24.4999H12.25V20.4166H15.75V24.4999ZM10.5 4.08325C10.5 3.92854 10.5614 3.78017 10.6708 3.67077C10.7802 3.56138 10.9286 3.49992 11.0833 3.49992H16.9166C17.0714 3.49992 17.2197 3.56138 17.3291 3.67077C17.4385 3.78017 17.5 3.92854 17.5 4.08325V9.91658C17.5 10.0713 17.4385 10.2197 17.3291 10.3291C17.2197 10.4385 17.0714 10.4999 16.9166 10.4999H11.0833C10.9286 10.4999 10.7802 10.4385 10.6708 10.3291C10.5614 10.2197 10.5 10.0713 10.5 9.91658V4.08325ZM6.99998 5.83325H9.33331V9.91658C9.33331 10.3807 9.51769 10.8258 9.84588 11.154C10.1741 11.4822 10.6192 11.6666 11.0833 11.6666H16.9166C17.3808 11.6666 17.8259 11.4822 18.1541 11.154C18.4823 10.8258 18.6666 10.3807 18.6666 9.91658V5.83325H21V24.4999H16.9166V19.8333C16.9166 19.6785 16.8552 19.5302 16.7458 19.4208C16.6364 19.3114 16.488 19.2499 16.3333 19.2499H11.6666C11.5119 19.2499 11.3636 19.3114 11.2542 19.4208C11.1448 19.5302 11.0833 19.6785 11.0833 19.8333V24.4999H6.99998V5.83325ZM3.49998 11.6666H5.83331V24.4999H3.49998V11.6666Z" fill="#48494A"/>
<path d="M12.25 7.58342H13.4167V8.75008C13.4167 8.90479 13.4781 9.05316 13.5875 9.16256C13.6969 9.27196 13.8453 9.33342 14 9.33342C14.1547 9.33342 14.3031 9.27196 14.4125 9.16256C14.5219 9.05316 14.5834 8.90479 14.5834 8.75008V7.58342H15.75C15.9047 7.58342 16.0531 7.52196 16.1625 7.41256C16.2719 7.30316 16.3334 7.15479 16.3334 7.00008C16.3334 6.84537 16.2719 6.697 16.1625 6.5876C16.0531 6.47821 15.9047 6.41675 15.75 6.41675H14.5834V5.25008C14.5834 5.09537 14.5219 4.947 14.4125 4.8376C14.3031 4.72821 14.1547 4.66675 14 4.66675C13.8453 4.66675 13.6969 4.72821 13.5875 4.8376C13.4781 4.947 13.4167 5.09537 13.4167 5.25008V6.41675H12.25C12.0953 6.41675 11.9469 6.47821 11.8375 6.5876C11.7281 6.697 11.6667 6.84537 11.6667 7.00008C11.6667 7.15479 11.7281 7.30316 11.8375 7.41256C11.9469 7.52196 12.0953 7.58342 12.25 7.58342Z" fill="#0957A8"/>
<path d="M9.91665 14.5834H11.0833C11.238 14.5834 11.3864 14.522 11.4958 14.4126C11.6052 14.3032 11.6666 14.1548 11.6666 14.0001C11.6666 13.8454 11.6052 13.697 11.4958 13.5876C11.3864 13.4782 11.238 13.4167 11.0833 13.4167H9.91665C9.76194 13.4167 9.61356 13.4782 9.50417 13.5876C9.39477 13.697 9.33331 13.8454 9.33331 14.0001C9.33331 14.1548 9.39477 14.3032 9.50417 14.4126C9.61356 14.522 9.76194 14.5834 9.91665 14.5834Z" fill="#0957A8"/>
<path d="M11.6666 16.9166C11.6666 16.7619 11.6052 16.6135 11.4958 16.5041C11.3864 16.3947 11.238 16.3333 11.0833 16.3333H9.91665C9.76194 16.3333 9.61356 16.3947 9.50417 16.5041C9.39477 16.6135 9.33331 16.7619 9.33331 16.9166C9.33331 17.0713 9.39477 17.2197 9.50417 17.3291C9.61356 17.4385 9.76194 17.4999 9.91665 17.4999H11.0833C11.238 17.4999 11.3864 17.4385 11.4958 17.3291C11.6052 17.2197 11.6666 17.0713 11.6666 16.9166Z" fill="#0957A8"/>
<path d="M13.4166 14.5834H14.5833C14.738 14.5834 14.8864 14.522 14.9958 14.4126C15.1052 14.3032 15.1666 14.1548 15.1666 14.0001C15.1666 13.8454 15.1052 13.697 14.9958 13.5876C14.8864 13.4782 14.738 13.4167 14.5833 13.4167H13.4166C13.2619 13.4167 13.1136 13.4782 13.0042 13.5876C12.8948 13.697 12.8333 13.8454 12.8333 14.0001C12.8333 14.1548 12.8948 14.3032 13.0042 14.4126C13.1136 14.522 13.2619 14.5834 13.4166 14.5834Z" fill="#0957A8"/>
<path d="M13.4166 17.4999H14.5833C14.738 17.4999 14.8864 17.4385 14.9958 17.3291C15.1052 17.2197 15.1666 17.0713 15.1666 16.9166C15.1666 16.7619 15.1052 16.6135 14.9958 16.5041C14.8864 16.3947 14.738 16.3333 14.5833 16.3333H13.4166C13.2619 16.3333 13.1136 16.3947 13.0042 16.5041C12.8948 16.6135 12.8333 16.7619 12.8333 16.9166C12.8333 17.0713 12.8948 17.2197 13.0042 17.3291C13.1136 17.4385 13.2619 17.4999 13.4166 17.4999Z" fill="#0957A8"/>
<path d="M16.9166 14.5834H18.0833C18.238 14.5834 18.3864 14.522 18.4958 14.4126C18.6052 14.3032 18.6666 14.1548 18.6666 14.0001C18.6666 13.8454 18.6052 13.697 18.4958 13.5876C18.3864 13.4782 18.238 13.4167 18.0833 13.4167H16.9166C16.7619 13.4167 16.6136 13.4782 16.5042 13.5876C16.3948 13.697 16.3333 13.8454 16.3333 14.0001C16.3333 14.1548 16.3948 14.3032 16.5042 14.4126C16.6136 14.522 16.7619 14.5834 16.9166 14.5834Z" fill="#0957A8"/>
<path d="M16.9166 17.4999H18.0833C18.238 17.4999 18.3864 17.4385 18.4958 17.3291C18.6052 17.2197 18.6666 17.0713 18.6666 16.9166C18.6666 16.7619 18.6052 16.6135 18.4958 16.5041C18.3864 16.3947 18.238 16.3333 18.0833 16.3333H16.9166C16.7619 16.3333 16.6136 16.3947 16.5042 16.5041C16.3948 16.6135 16.3333 16.7619 16.3333 16.9166C16.3333 17.0713 16.3948 17.2197 16.5042 17.3291C16.6136 17.4385 16.7619 17.4999 16.9166 17.4999Z" fill="#0957A8"/>
</svg>
