<svg width="34" height="20" viewBox="0 0 34 20" fill="none" xmlns="http://www.w3.org/2000/svg">
<path d="M32.4019 8.34114C32.8142 8.04771 33.0504 7.6039 33.0504 7.12389V2.47302C33.0504 1.66071 32.3895 1 31.5774 1H2.47302C1.66095 1 1 1.66071 1 2.47302V7.12389C1 7.6039 1.23621 8.04746 1.64848 8.34114C2.18497 8.72358 2.5053 9.34369 2.5053 10C2.5053 10.6563 2.18497 11.2764 1.64848 11.6589C1.23621 11.9525 1 12.3961 1 12.8761V17.527C1 18.3393 1.66095 19 2.47302 19H31.5774C32.3897 19 33.0504 18.3393 33.0504 17.527V12.8761C33.0504 12.3961 32.8142 11.9525 32.4019 11.6589C31.8655 11.2764 31.5451 10.6563 31.5451 10C31.5451 9.34369 31.8655 8.72358 32.4019 8.34114ZM32.1114 7.12389C32.1114 7.29628 32.0188 7.46134 31.8571 7.57651C31.0737 8.13476 30.6062 9.04073 30.6062 10C30.6062 10.9593 31.0737 11.8652 31.8571 12.4235C32.0188 12.5387 32.1114 12.7037 32.1114 12.8761V17.527C32.1114 17.8216 31.8718 18.061 31.5774 18.061H2.47302C2.17861 18.061 1.93898 17.8214 1.93898 17.527V12.8761C1.93898 12.7037 2.03165 12.5387 2.19328 12.4235C2.97674 11.8652 3.44428 10.9593 3.44428 10C3.44428 9.04073 2.97674 8.13476 2.19328 7.57651C2.03165 7.46134 1.93898 7.29653 1.93898 7.12389V2.47302C1.93898 2.17861 2.17861 1.93898 2.47302 1.93898H31.5774C31.8718 1.93898 32.1114 2.17861 32.1114 2.47302V7.12389Z" fill="#48494A" stroke="#48494A" stroke-width="0.4"/>
<path d="M17.025 3.00732C16.7658 3.00732 16.5555 3.21762 16.5555 3.47681V4.48059C16.5555 4.73979 16.7658 4.95008 17.025 4.95008C17.2842 4.95008 17.4945 4.73979 17.4945 4.48059V3.47681C17.4945 3.21762 17.2842 3.00732 17.025 3.00732Z" fill="#48494A" stroke="#48494A" stroke-width="0.4"/>
<path d="M17.025 15.0503C16.7658 15.0503 16.5555 15.2603 16.5555 15.5198V16.5233C16.5555 16.7825 16.7658 16.9928 17.025 16.9928C17.2842 16.9928 17.4945 16.7825 17.4945 16.5233V15.5198C17.4945 15.2603 17.2842 15.0503 17.025 15.0503Z" fill="#48494A" stroke="#48494A" stroke-width="0.4"/>
<path d="M17.025 9.02881C16.7658 9.02881 16.5555 9.2391 16.5555 9.4983V10.5018C16.5555 10.7613 16.7658 10.9713 17.025 10.9713C17.2842 10.9713 17.4945 10.7613 17.4945 10.5018V9.4983C17.4945 9.2391 17.2842 9.02881 17.025 9.02881Z" fill="#48494A" stroke="#48494A" stroke-width="0.4"/>
<path d="M17.025 6.01782C16.7658 6.01782 16.5555 6.22811 16.5555 6.48731V7.49084C16.5555 7.75028 16.7658 7.96033 17.025 7.96033C17.2842 7.96033 17.4945 7.75028 17.4945 7.49084V6.48731C17.4945 6.22811 17.2842 6.01782 17.025 6.01782Z" fill="#48494A" stroke="#48494A" stroke-width="0.4"/>
<path d="M17.025 12.0396C16.7658 12.0396 16.5555 12.2498 16.5555 12.509V13.5126C16.5555 13.7718 16.7658 13.9821 17.025 13.9821C17.2842 13.9821 17.4945 13.7718 17.4945 13.5126V12.509C17.4945 12.2496 17.2842 12.0396 17.025 12.0396Z" fill="#48494A" stroke="#48494A" stroke-width="0.4"/>
<path d="M28.353 5.1135C28.1481 4.95407 27.8532 4.99099 27.694 5.19566L20.669 14.2282C20.5096 14.4328 20.5465 14.7277 20.7512 14.8869C20.837 14.9534 20.9385 14.9857 21.039 14.9857C21.1791 14.9857 21.3175 14.9236 21.41 14.8045L28.4352 5.772C28.5943 5.56758 28.5577 5.27268 28.353 5.1135Z" fill="#0957A8" stroke="#0957A8" stroke-width="0.4"/>
<path d="M22.0432 8.96422C23.1323 8.96422 24.0182 8.07831 24.0182 6.98944C24.0182 5.90032 23.1323 5.0144 22.0432 5.0144C20.9543 5.0144 20.0684 5.90032 20.0684 6.98944C20.0684 8.07831 20.9543 8.96422 22.0432 8.96422ZM22.0432 5.95338C22.6144 5.95338 23.0793 6.41798 23.0793 6.98919C23.0793 7.5604 22.6144 8.02524 22.0432 8.02524C21.472 8.02524 21.0074 7.5604 21.0074 6.98919C21.0074 6.41798 21.472 5.95338 22.0432 5.95338Z" fill="#0957A8" stroke="#0957A8" stroke-width="0.4"/>
<path d="M27.0615 11.0361C25.9723 11.0361 25.0864 11.9223 25.0864 13.0112C25.0864 14.1 25.9723 14.986 27.0615 14.986C28.1503 14.986 29.0362 14.1 29.0362 13.0112C29.0362 11.9223 28.1503 11.0361 27.0615 11.0361ZM27.0615 14.0472C26.4902 14.0472 26.0254 13.5824 26.0254 13.0112C26.0254 12.44 26.4902 11.9754 27.0615 11.9754C27.6327 11.9754 28.0973 12.44 28.0973 13.0112C28.0973 13.5824 27.6327 14.0472 27.0615 14.0472Z" fill="#0957A8" stroke="#0957A8" stroke-width="0.4"/>
<path d="M13.0109 7.5232H11.0439C11.6447 7.19944 12.2343 6.83804 12.5473 6.52529C13.1214 5.9509 13.1214 5.01632 12.5473 4.44193C11.9726 3.86754 11.0383 3.86779 10.4639 4.44193C10.1614 4.74441 9.8137 5.30559 9.49827 5.88561C9.18307 5.30584 8.83511 4.74441 8.53288 4.44193C7.95824 3.86754 7.02391 3.86779 6.44952 4.44193C5.87513 5.01632 5.87513 5.9509 6.44952 6.52529C6.76227 6.83804 7.35182 7.19944 7.95262 7.5232H5.98566C5.45015 7.5232 5.0144 7.95894 5.0144 8.49445V14.5161C5.0144 15.0516 5.45015 15.4874 5.98566 15.4874H13.0109C13.5466 15.4874 13.9821 15.0516 13.9821 14.5161V8.49445C13.9821 7.95894 13.5464 7.5232 13.0109 7.5232ZM11.1278 5.10582C11.3361 4.89773 11.6748 4.89773 11.8831 5.10582C12.0915 5.31415 12.0915 5.65307 11.8831 5.86116C11.5564 6.18809 10.7206 6.64706 9.96947 7.01947C10.3419 6.26878 10.8009 5.43299 11.1278 5.10582ZM7.11341 5.10606C7.21758 5.00189 7.35427 4.94981 7.49096 4.94981C7.62789 4.94981 7.76458 5.00189 7.86875 5.10606C8.19543 5.43275 8.65441 6.26829 9.02707 7.01947C8.27588 6.64706 7.4401 6.18809 7.11341 5.8614C6.90507 5.65307 6.90507 5.31415 7.11341 5.10606ZM13.0109 14.5482H5.98566C5.96781 14.5482 5.95338 14.5337 5.95338 14.5159V10.971H10.5018C10.761 10.971 10.9713 10.761 10.9713 10.5015C10.9713 10.2423 10.761 10.032 10.5018 10.032H5.95338V8.49445C5.95338 8.4766 5.96781 8.46217 5.98566 8.46217H13.0109C13.0287 8.46217 13.0431 8.4766 13.0431 8.49445V10.032H12.5091C12.2497 10.032 12.0396 10.2423 12.0396 10.5015C12.0396 10.761 12.2497 10.971 12.5091 10.971H13.0431V14.5159C13.0431 14.5337 13.0287 14.5482 13.0109 14.5482Z" fill="#0957A8" stroke="#0957A8" stroke-width="0.4"/>
</svg>
