<svg width="22" height="26" viewBox="0 0 22 26" fill="none" xmlns="http://www.w3.org/2000/svg">
<path d="M15.6655 9.82263C15.5013 9.62631 15.2094 9.59795 15.0101 9.76009C14.8098 9.92322 14.7793 10.218 14.942 10.4188C14.9476 10.4258 14.9544 10.4337 14.9604 10.4403C15.0529 10.5421 15.1799 10.5937 15.3074 10.5937C15.4199 10.5937 15.5328 10.5535 15.6226 10.4718C15.8098 10.3015 15.8276 10.0144 15.6655 9.82263Z" fill="#0957A8" stroke="#0957A8" stroke-width="0.5"/>
<path d="M11.9636 19.1156C12.1489 19.1273 12.3327 19.133 12.5154 19.133C14.6113 19.133 16.519 18.3705 17.9339 16.9556C18.3062 16.5833 18.6706 15.8436 18.2924 14.4343C18.0322 13.465 17.4576 12.3159 16.6306 11.1111C16.4841 10.8977 16.1923 10.8434 15.9789 10.99C15.7654 11.1365 15.7112 11.4283 15.8577 11.6418C16.6252 12.7598 17.154 13.8094 17.3868 14.6772C17.5914 15.4397 17.5502 16.0134 17.2708 16.2927C16.8489 16.7147 15.7984 16.5889 14.4611 15.9563C13.4611 15.4833 12.3764 14.7701 11.2969 13.8835C11.9329 13.1059 11.9803 12.0047 11.4395 11.1787L13.8791 8.73916C14.0935 8.84791 14.3286 8.90262 14.5637 8.90262C14.9508 8.90262 15.338 8.75524 15.6327 8.46058C16.222 7.87113 16.222 6.91212 15.6327 6.32271C15.0433 5.73335 14.0842 5.7333 13.4948 6.32271C13.0211 6.79643 12.9284 7.50879 13.2162 8.07626L10.7768 10.5156C10.407 10.2725 9.97441 10.1418 9.52155 10.1418C8.98811 10.1418 8.48261 10.3229 8.07499 10.6558C7.20034 9.58666 6.49628 8.51341 6.02786 7.52304C5.39533 6.1856 5.26952 5.13527 5.69144 4.71335C6.32252 4.08218 8.53825 4.63774 11.4013 6.91048C11.6041 7.0714 11.899 7.03755 12.0599 6.83477C12.2209 6.63199 12.187 6.33715 11.9843 6.17618C10.5786 5.06037 9.20655 4.25126 8.01648 3.83632C6.31708 3.24372 5.45392 3.62538 5.02895 4.05007C5.02881 4.05021 5.02867 4.0503 5.02858 4.0504C3.49042 5.5886 2.72327 7.70885 2.86858 10.0206C3.01244 12.3101 4.03661 14.516 5.75238 16.2318C6.05669 16.5361 6.3767 16.8182 6.70956 17.0779C6.70834 17.0815 6.7068 17.0849 6.70567 17.0885L5.40072 21.2465H4.28477C2.47352 21.2465 1 22.7201 1 24.5313C1 24.7901 1.20991 25 1.46875 25H14.3038C14.5627 25 14.7726 24.7901 14.7726 24.5313C14.7726 22.72 13.299 21.2465 11.4879 21.2465H9.95097V18.7571C10.6073 18.9512 11.2817 19.0728 11.9636 19.1156ZM14.1577 6.98552C14.2696 6.87354 14.4166 6.81757 14.5637 6.81757C14.7107 6.81757 14.8578 6.87354 14.9697 6.98548C15.1936 7.20935 15.1936 7.57366 14.9697 7.79754C14.7459 8.02141 14.3815 8.02141 14.1577 7.79754C13.9338 7.57371 13.9338 7.2094 14.1577 6.98552ZM9.52155 11.0792C9.88314 11.0792 10.2231 11.2199 10.4789 11.4755C10.479 11.4756 10.4792 11.4758 10.4793 11.476C10.4794 11.4761 10.4796 11.4762 10.4798 11.4764C10.9695 11.9666 11.0043 12.7414 10.5848 13.2724C10.2609 12.9827 9.93925 12.6786 9.62233 12.3618C9.29556 12.035 8.98248 11.7031 8.68455 11.3689C8.92234 11.1813 9.214 11.0792 9.52155 11.0792ZM7.51347 17.6453C7.99417 17.9503 8.49606 18.2113 9.01342 18.4256V21.2465H9.01338H6.38322L7.51347 17.6453ZM11.4878 22.184C12.6216 22.184 13.5702 22.992 13.788 24.0625H1.98442C2.2022 22.992 3.15086 22.184 4.28467 22.184H11.4878ZM6.41524 15.5689C4.861 14.0146 3.93367 12.0233 3.80411 9.96176C3.71819 8.5938 3.99198 7.30507 4.58725 6.19858C4.68578 6.71698 4.88327 7.29569 5.18036 7.92382C5.94527 9.54105 7.28739 11.3526 8.95947 13.0247C10.6316 14.6968 12.4431 16.0389 14.0603 16.8038C14.6872 17.1003 15.2649 17.2976 15.7825 17.3963C12.9589 18.9078 9.09578 18.2494 6.41524 15.5689Z" fill="#48494A" stroke="#48494A" stroke-width="0.5"/>
<path d="M14.5708 3.50244C14.312 3.50244 14.1021 3.7123 14.1021 3.97119C14.1021 4.23008 14.312 4.43994 14.5708 4.43994C16.1944 4.43994 17.5153 5.76083 17.5153 7.38444C17.5153 7.64333 17.7252 7.85319 17.9841 7.85319C18.2429 7.85319 18.4528 7.64333 18.4528 7.38444C18.4528 5.24389 16.7113 3.50244 14.5708 3.50244Z" fill="#0957A8" stroke="#0957A8" stroke-width="0.5"/>
<path d="M14.5708 1C14.312 1 14.1021 1.20986 14.1021 1.46875C14.1021 1.72764 14.312 1.9375 14.5708 1.9375C17.5742 1.9375 20.0177 4.38095 20.0177 7.38442C20.0177 7.64331 20.2276 7.85317 20.4865 7.85317C20.7453 7.85317 20.9552 7.64331 20.9552 7.38442C20.9552 3.86406 18.0912 1 14.5708 1Z" fill="#0957A8" stroke="#0957A8" stroke-width="0.5"/>
</svg>
