<svg width="25" height="24" viewBox="0 0 25 24" fill="none" xmlns="http://www.w3.org/2000/svg">
<path d="M2.86835 22.4189C3.27756 22.4189 3.62902 22.1715 3.78373 21.8188H5.09873C5.61951 21.8188 6.11857 21.979 6.54194 22.282L7.73977 23.1392C9.42645 24.352 11.7242 24.2769 13.328 22.9551L18.8831 18.3757C19.3137 18.021 19.3211 17.3636 18.8999 16.9977C18.1606 16.3563 17.0793 16.2923 16.2704 16.8407L13.6591 18.603C13.4762 17.9945 12.8815 17.5463 12.2054 17.5463H9.67764C9.02111 17.5463 8.38312 17.2826 7.92557 16.8219C7.27636 16.1727 6.3786 15.8003 5.46228 15.8003H3.78254C3.62732 15.4489 3.27668 15.2024 2.86835 15.2024H0.500033C0.223892 15.2024 0 15.4263 0 15.7024C0 15.9786 0.223892 16.2025 0.500033 16.2025H2.86835V21.4189H0.500033C0.223892 21.4189 0 21.6428 0 21.9189C0 22.195 0.223892 22.4189 0.500033 22.4189H2.86835ZM3.86866 16.8004H5.46228C6.1154 16.8004 6.75533 17.066 7.21703 17.5277C7.85965 18.175 8.75644 18.5464 9.67764 18.5464H12.2054C12.4741 18.5464 12.7335 18.7628 12.7167 19.0266C12.703 19.2454 12.5214 19.4483 12.2667 19.4483H8.80649C8.53035 19.4483 8.30646 19.6722 8.30646 19.9483C8.30646 20.2245 8.53035 20.4483 8.80649 20.4483H12.2667C12.5595 20.4483 12.8386 20.3633 13.0744 20.2024C13.5344 19.8958 16.8823 17.6342 16.8309 17.6689C17.2341 17.3959 17.7614 17.4047 18.1531 17.6816L12.6918 22.1836C11.4387 23.2161 9.64224 23.2747 8.32257 22.3266L7.12401 21.4689C6.52973 21.0436 5.82949 20.8187 5.09873 20.8187H3.86866V16.8004Z" fill="#48494A"/>
<path d="M2.27283 20.4136C2.27283 20.1375 2.04894 19.9136 1.7728 19.9136H1.76914C1.493 19.9136 1.27106 20.1375 1.27106 20.4136C1.27106 20.6897 1.49666 20.9136 1.7728 20.9136C2.04894 20.9136 2.27283 20.6897 2.27283 20.4136Z" fill="#0957A8"/>
<path d="M11.8541 16.546C14.4326 16.546 16.5304 14.4482 16.5304 11.8697C16.5304 9.2914 14.4326 7.19385 11.8541 7.19385C9.27553 7.19385 7.17773 9.2914 7.17773 11.8697C7.17773 14.4482 9.27553 16.546 11.8541 16.546ZM11.8541 8.19391C13.8811 8.19391 15.5303 9.84295 15.5303 11.8697C15.5303 13.8967 13.8811 15.546 11.8541 15.546C9.82708 15.546 8.1778 13.8967 8.1778 11.8697C8.1778 9.84295 9.82708 8.19391 11.8541 8.19391Z" fill="#0957A8"/>
<path d="M13.692 11.0011L13.5182 11.5943H10.2045L10.3784 11.0011H13.692ZM12.1375 15L10.2659 12.7091L10.2557 12.2795H11.1864C11.4284 12.2795 11.6347 12.2455 11.8051 12.1773C11.9756 12.1074 12.106 12.0034 12.1963 11.8653C12.2866 11.7256 12.3318 11.55 12.3318 11.3386C12.3318 11.0267 12.2381 10.7821 12.0506 10.6048C11.8631 10.4259 11.575 10.3364 11.1864 10.3364H10.2045L10.3784 9.76364H11.1864C11.6023 9.76364 11.9432 9.83267 12.2091 9.97074C12.4767 10.1071 12.6744 10.2946 12.8023 10.5332C12.9318 10.7702 12.9966 11.0386 12.9966 11.3386C12.9966 11.6097 12.9369 11.8594 12.8176 12.0878C12.7 12.3145 12.5108 12.4969 12.25 12.6349C11.9909 12.773 11.6483 12.842 11.2222 12.842H11.2068L12.9352 14.9591V15H12.1375ZM13.692 9.76364L13.5182 10.3568L10.9102 10.3364L11.0841 9.76364H13.692Z" fill="#0957A8"/>
<path d="M13.692 11.0011L13.788 11.0293L13.8256 10.9011H13.692V11.0011ZM13.5182 11.5943V11.6943H13.5931L13.6141 11.6224L13.5182 11.5943ZM10.2045 11.5943L10.1086 11.5662L10.071 11.6943H10.2045V11.5943ZM10.3784 11.0011V10.9011H10.3035L10.2824 10.973L10.3784 11.0011ZM12.1375 15L12.0601 15.0633L12.0901 15.1H12.1375V15ZM10.2659 12.7091L10.1659 12.7115L10.1668 12.7458L10.1885 12.7724L10.2659 12.7091ZM10.2557 12.2795V12.1795H10.1533L10.1557 12.2819L10.2557 12.2795ZM11.8051 12.1773L11.8423 12.2701L11.843 12.2698L11.8051 12.1773ZM12.1963 11.8653L12.28 11.9201L12.2803 11.9196L12.1963 11.8653ZM12.0506 10.6048L11.9815 10.6772L11.9819 10.6775L12.0506 10.6048ZM10.2045 10.3364L10.1089 10.3073L10.0697 10.4364H10.2045V10.3364ZM10.3784 9.76364V9.66364H10.3043L10.2827 9.73459L10.3784 9.76364ZM12.2091 9.97074L12.163 10.0595L12.1637 10.0598L12.2091 9.97074ZM12.8023 10.5332L12.7141 10.5805L12.7145 10.5812L12.8023 10.5332ZM12.8176 12.0878L12.729 12.0415L12.7288 12.0417L12.8176 12.0878ZM12.25 12.6349L12.2032 12.5466L12.203 12.5467L12.25 12.6349ZM11.2068 12.842V12.742H10.9961L11.1294 12.9053L11.2068 12.842ZM12.9352 14.9591H13.0352V14.9235L13.0127 14.8958L12.9352 14.9591ZM12.9352 15V15.1H13.0352V15H12.9352ZM13.692 9.76364L13.788 9.79176L13.8256 9.66364H13.692V9.76364ZM13.5182 10.3568L13.5174 10.4568L13.5929 10.4574L13.6141 10.3849L13.5182 10.3568ZM10.9102 10.3364L10.8145 10.3073L10.7757 10.4353L10.9094 10.4364L10.9102 10.3364ZM11.0841 9.76364V9.66364H11.0099L10.9884 9.73459L11.0841 9.76364ZM13.5961 10.973L13.4222 11.5662L13.6141 11.6224L13.788 11.0293L13.5961 10.973ZM13.5182 11.4943H10.2045V11.6943H13.5182V11.4943ZM10.3005 11.6224L10.4744 11.0293L10.2824 10.973L10.1086 11.5662L10.3005 11.6224ZM10.3784 11.1011H13.692V10.9011H10.3784V11.1011ZM12.2149 14.9367L10.3434 12.6458L10.1885 12.7724L12.0601 15.0633L12.2149 14.9367ZM10.3659 12.7067L10.3557 12.2772L10.1557 12.2819L10.1659 12.7115L10.3659 12.7067ZM10.2557 12.3795H11.1864V12.1795H10.2557V12.3795ZM11.1864 12.3795C11.4373 12.3795 11.6569 12.3443 11.8423 12.2701L11.768 12.0844C11.6124 12.1466 11.4195 12.1795 11.1864 12.1795V12.3795ZM11.843 12.2698C12.03 12.1932 12.1773 12.077 12.28 11.9201L12.1126 11.8106C12.0346 11.9298 11.9212 12.0216 11.7672 12.0847L11.843 12.2698ZM12.2803 11.9196C12.3836 11.7598 12.4318 11.5641 12.4318 11.3386H12.2318C12.2318 11.5359 12.1897 11.6913 12.1123 11.8111L12.2803 11.9196ZM12.4318 11.3386C12.4318 11.0054 12.3308 10.7322 12.1193 10.5322L11.9819 10.6775C12.1453 10.832 12.2318 11.048 12.2318 11.3386H12.4318ZM12.1196 10.5325C11.9061 10.3286 11.5881 10.2364 11.1864 10.2364V10.4364C11.5619 10.4364 11.8201 10.5231 11.9815 10.6772L12.1196 10.5325ZM11.1864 10.2364H10.2045V10.4364H11.1864V10.2364ZM10.3002 10.3654L10.4741 9.79268L10.2827 9.73459L10.1089 10.3073L10.3002 10.3654ZM10.3784 9.86364H11.1864V9.66364H10.3784V9.86364ZM11.1864 9.86364C11.5921 9.86364 11.9158 9.93112 12.163 10.0595L12.2552 9.88199C11.9706 9.73422 11.6124 9.66364 11.1864 9.66364V9.86364ZM12.1637 10.0598C12.4152 10.188 12.597 10.3618 12.7141 10.5805L12.8904 10.486C12.7519 10.2274 12.5382 10.0262 12.2545 9.88164L12.1637 10.0598ZM12.7145 10.5812C12.8352 10.8019 12.8966 11.0535 12.8966 11.3386H13.0966C13.0966 11.0238 13.0285 10.7385 12.89 10.4853L12.7145 10.5812ZM12.8966 11.3386C12.8966 11.5944 12.8404 11.8281 12.729 12.0415L12.9062 12.1341C13.0334 11.8906 13.0966 11.6249 13.0966 11.3386H12.8966ZM12.7288 12.0417C12.622 12.2477 12.4489 12.4165 12.2032 12.5466L12.2968 12.7233C12.5727 12.5773 12.778 12.3813 12.9064 12.1338L12.7288 12.0417ZM12.203 12.5467C11.9634 12.6743 11.6388 12.742 11.2222 12.742V12.942C11.6578 12.942 12.0184 12.8717 12.297 12.7232L12.203 12.5467ZM11.2222 12.742H11.2068V12.942H11.2222V12.742ZM11.1294 12.9053L12.8578 15.0223L13.0127 14.8958L11.2843 12.7788L11.1294 12.9053ZM12.8352 14.9591V15H13.0352V14.9591H12.8352ZM12.9352 14.9H12.1375V15.1H12.9352V14.9ZM13.5961 9.73551L13.4222 10.3287L13.6141 10.3849L13.788 9.79176L13.5961 9.73551ZM13.519 10.2568L10.911 10.2364L10.9094 10.4364L13.5174 10.4568L13.519 10.2568ZM11.0059 10.3654L11.1798 9.79268L10.9884 9.73459L10.8145 10.3073L11.0059 10.3654ZM11.0841 9.86364H13.692V9.66364H11.0841V9.86364Z" fill="#0957A8"/>
<path d="M11.7285 2.08118L9.27009 2.71354C9.00249 2.78215 8.8416 3.05488 8.91045 3.32223C8.97915 3.59036 9.25207 3.75059 9.51913 3.68187L11.853 3.08173L14.1867 3.68187C14.4555 3.75194 14.727 3.58958 14.7954 3.32223C14.8642 3.05488 14.7033 2.78215 14.4357 2.71354L11.9775 2.08118C11.896 2.06018 11.8101 2.06018 11.7285 2.08118Z" fill="#0957A8"/>
<path d="M24.0162 11.3014C24.0162 10.6512 23.5962 10.1021 23.0145 9.89543V3.24204C23.0145 3.02425 22.8397 2.80927 22.639 2.75787L11.9776 0.0157481C11.8961 -0.00524937 11.8101 -0.00524937 11.7286 0.0157481L1.06696 2.75787C0.567858 2.88582 0.568164 3.59833 1.06696 3.7262L3.62255 4.3835V9.57449C3.62255 10.462 4.21732 11.2538 5.06698 11.4994C5.24107 11.5504 5.42052 11.6017 5.59485 11.6479C5.86098 11.7177 6.13541 11.559 6.20598 11.2921C6.27654 11.0253 6.11735 10.7516 5.85024 10.681C5.6847 10.6373 5.51404 10.5885 5.34654 10.5394C4.92025 10.4161 4.62262 10.0193 4.62262 9.57449V4.64374L11.7288 6.46857C11.8104 6.48957 11.8958 6.48957 11.9774 6.46857L19.0835 4.64374V9.57449C19.0835 10.0193 18.7859 10.4161 18.3581 10.5396C18.1921 10.5882 18.0212 10.6373 17.8557 10.681C17.5886 10.7516 17.4294 11.0253 17.4999 11.2921C17.5593 11.5165 17.7617 11.6647 17.9831 11.6647C18.0254 11.6647 18.0683 11.6591 18.1111 11.6479C18.2854 11.6017 18.4646 11.5507 18.6375 11.4999C19.4888 11.2538 20.0836 10.462 20.0836 9.57449V4.38344L22.0144 3.88682V9.89561C21.4346 10.1025 21.016 10.6514 21.016 11.3014C21.016 11.9531 21.4343 12.5036 22.0139 12.7112V12.8736C21.5908 12.9652 21.2601 13.3266 21.2258 13.773L21.059 15.9384C21.0378 16.2153 21.134 16.4907 21.3227 16.6946C21.5112 16.8982 21.7785 17.0149 22.0561 17.0149H22.9764C23.254 17.0149 23.5213 16.8982 23.7098 16.6946C23.8986 16.4907 23.9948 16.2153 23.9735 15.9382L23.8068 13.773C23.7723 13.3249 23.4394 12.9622 23.014 12.8722V12.7117C23.596 12.5045 24.0162 11.9537 24.0162 11.3014ZM22.5139 11.8036C22.2395 11.8036 22.0161 11.5783 22.0161 11.3014C22.0161 11.027 22.2395 10.8036 22.5139 10.8036C22.7908 10.8036 23.0162 11.027 23.0162 11.3014C23.0162 11.5783 22.7908 11.8036 22.5139 11.8036ZM11.8531 5.46777L3.19894 3.24204L11.8531 1.0163L20.507 3.24204L11.8531 5.46777ZM22.0561 16.0149L22.2229 13.8497L22.8096 13.8499L22.9764 16.0149H22.0561ZM22.8099 13.8497C22.8096 13.8494 22.8096 13.8494 22.8096 13.8492L23.3082 13.8113L22.8099 13.8497Z" fill="#48494A"/>
</svg>
