<svg width="38" height="27" viewBox="0 0 38 27" fill="none" xmlns="http://www.w3.org/2000/svg">
<path fill-rule="evenodd" clip-rule="evenodd" d="M30.7897 21.9531L30.4468 23.2285H24.2343C24.1109 23.3108 23.8915 24.2708 23.8503 24.4628C25.3589 24.4628 26.8812 24.4628 28.3897 24.4628C29.144 24.4628 29.9257 24.4765 30.6663 24.4628C31.4754 24.4354 31.5577 23.7771 31.7085 23.2011C31.8594 22.6114 32.0377 22.0354 32.1885 21.4457C32.4491 20.4857 31.448 20.7188 30.7074 20.7188C29.1851 20.7188 27.6629 20.7188 26.1406 20.7188L26.4972 19.4023H32.7645L33.0937 18.1817C32.7234 18.1269 29.2263 18.168 28.5406 18.168C25.7429 18.168 25.6743 17.8526 25.2355 19.4434C25.0709 20.0468 24.9063 20.6228 24.7418 21.2263C24.4812 22.1725 25.496 21.9531 26.2229 21.9531C27.7452 21.9531 29.2674 21.9531 30.7897 21.9531Z" fill="#48494A"/>
<path fill-rule="evenodd" clip-rule="evenodd" d="M16.7055 19.4024L22.9454 19.4161L22.5888 20.719H16.4038C16.2803 20.7875 16.2666 20.9932 16.2255 21.1304L15.8278 22.5567C15.6632 23.1738 15.4986 23.8321 15.3066 24.4492L16.5546 24.4629L17.254 21.9532C17.9123 21.8984 20.8883 21.9532 21.8071 21.9532C23.7408 21.9532 23.494 22.0492 24.1248 19.6904C24.2757 19.1555 24.7282 18.223 23.8917 18.1818C23.1785 18.127 22.342 18.1681 21.6151 18.1681C20.0929 18.1681 18.5569 18.1681 17.0346 18.1681L16.7055 19.4024Z" fill="#48494A"/>
<path fill-rule="evenodd" clip-rule="evenodd" d="M5.61051 21.9669C5.69279 21.8847 5.72022 21.8435 5.82993 21.7612C5.93964 21.6789 5.93964 21.6652 6.04936 21.5555L6.48821 21.1715C6.74878 20.9521 7.18763 20.5132 7.43448 20.3624L7.91448 21.9807L5.61051 21.9669ZM1.0437 24.4492C1.34541 24.4903 2.31911 24.4629 2.70311 24.4629C2.90882 24.4629 3.29282 24.0241 3.4711 23.8595C3.6631 23.7086 4.12938 23.2149 4.33509 23.2149H8.29847C8.3259 23.3795 8.60018 24.4218 8.7099 24.4629H9.90303C9.82074 24.0652 8.10648 18.3464 8.02419 18.1956C7.84591 18.3327 7.74991 18.415 7.58534 18.5796C7.2562 18.9087 6.24136 19.7315 5.82993 20.1292C5.66536 20.2938 5.58308 20.3624 5.40479 20.5407C5.32251 20.6092 5.25394 20.6504 5.17165 20.719L1.0437 24.4492Z" fill="#48494A"/>
<path fill-rule="evenodd" clip-rule="evenodd" d="M34.0948 23.0503L34.9999 22.1726C35.1645 22.0218 35.3154 21.8983 35.4662 21.7475L35.9188 21.2949L35.0822 19.5669C34.9725 19.4161 34.8217 19.0869 34.7257 18.9086C34.6708 18.7715 34.6159 18.6755 34.5611 18.5521C34.4925 18.4287 34.4514 18.2915 34.3554 18.2092L32.6411 24.3806C32.7783 24.3257 33.9028 23.2286 34.0948 23.0503Z" fill="#F36700"/>
<path fill-rule="evenodd" clip-rule="evenodd" d="M35.0823 19.5669L35.9188 21.2949L35.4663 21.7475C35.3154 21.8983 35.1646 22.0218 35 22.1726L34.0948 23.0503L33.7383 24.3943L34.1634 24.024C34.3143 23.8869 34.424 23.8046 34.5748 23.6263L35.8091 22.4743C35.9463 22.3372 36.0697 22.2138 36.2068 22.0766L37.0297 21.2949C36.92 20.9932 36.1245 19.4846 35.8777 18.9772C35.7954 18.8264 35.576 18.3052 35.4525 18.2092L35.0823 19.5669Z" fill="#00895D"/>
<path fill-rule="evenodd" clip-rule="evenodd" d="M10.8493 19.6906C11.0276 19.718 11.1511 19.5809 11.3019 19.5123C11.6859 19.3203 12.4265 18.9912 12.8379 19.1146C12.9339 19.3203 12.879 19.3066 12.6733 19.3203C11.919 19.3615 11.3842 19.6495 10.9453 20.2529C10.7122 20.582 10.9453 20.7329 11.1236 20.4723C11.9739 19.1695 13.8802 19.4026 14.2642 20.6506C14.3327 20.9112 14.3602 21.1992 14.3464 21.4872C14.319 21.83 14.1819 21.9809 14.319 22.214C14.1682 22.2551 14.2093 22.2414 14.1407 22.4334C14.0036 22.8723 13.7567 22.9546 13.7705 23.2426C14.1544 23.4208 14.5933 22.502 14.3739 22.2003C14.7442 22.0906 14.8676 20.198 13.7293 19.5809C13.167 19.2655 12.9202 19.4437 12.9339 19.1146C13.3316 19.0323 13.9076 19.3615 14.1133 19.5397C14.4013 19.8003 14.607 20.1295 14.7304 20.5957C14.799 20.8426 14.8402 21.0757 14.8402 21.3363C14.8402 21.4186 14.8264 21.6929 14.8402 21.7477C14.8813 21.8711 14.991 21.926 15.0733 21.8026C15.2104 21.6106 15.1967 19.0323 13.1122 18.7992C12.591 18.7443 12.111 18.854 11.6859 19.0186C11.4939 19.1009 11.3019 19.1832 11.1236 19.2792C10.9316 19.3752 10.6848 19.4849 10.8493 19.6906Z" fill="#48494A"/>
<path fill-rule="evenodd" clip-rule="evenodd" d="M12.2895 21.5828C12.3169 21.2262 12.4678 21.0479 12.8243 21.0205C13.2906 20.9793 13.3729 21.1576 13.2632 21.5828H12.2895ZM13.5237 22.721C12.5089 22.721 11.8643 22.8993 12.166 22.1039C12.4266 22.1039 13.3043 22.1313 13.4826 22.0765C13.7569 21.9667 13.8803 21.473 13.8255 21.1165C13.7157 20.3073 12.55 20.3485 12.0975 20.8422C11.7272 21.2399 11.4529 22.5016 11.6586 22.8719C11.8369 23.1873 12.1798 23.2422 12.6323 23.2422C13.222 23.2422 13.414 23.3107 13.5237 22.721Z" fill="#48494A"/>
<path fill-rule="evenodd" clip-rule="evenodd" d="M12.4814 24.449C12.8106 24.449 13.0986 24.3942 13.3728 24.2844C13.4963 24.2296 13.5923 24.1747 13.702 24.1062C13.8254 24.0376 13.99 23.9142 13.8666 23.7907C13.702 23.7222 13.4688 23.9279 13.2906 24.0102C12.3443 24.4901 10.6163 23.9416 10.726 22.3919C10.7397 22.241 10.8083 22.0079 10.8083 21.8982C10.8083 21.6513 10.6026 21.6376 10.534 21.857C10.3009 22.5565 10.5203 23.2696 10.8494 23.7222C11.0414 23.969 11.1786 24.065 11.5214 24.2296C11.8506 24.3804 12.0837 24.449 12.4814 24.449Z" fill="#48494A"/>
<path fill-rule="evenodd" clip-rule="evenodd" d="M11.3294 21.1441C11.5762 21.1441 11.5488 21.0207 11.6585 20.815C11.9054 20.3487 12.3854 20.1156 12.9614 20.1704C13.3865 20.1978 13.6196 20.3898 13.7979 20.6641C13.9625 20.9521 13.9213 21.0481 13.9625 21.1304C14.2093 21.583 14.4425 20.6641 13.6882 20.1156C13.4139 19.9236 13.0025 19.8413 12.5911 19.8824C11.7271 19.9784 11.1648 20.8287 11.3294 21.1441Z" fill="#48494A"/>
<path fill-rule="evenodd" clip-rule="evenodd" d="M12.5087 23.6814C12.1932 23.5442 11.5487 23.5991 11.3292 22.8585C11.151 22.2688 11.5624 21.5008 11.4252 21.2128C11.1235 21.1854 11.151 21.4186 11.0275 22.0494C10.8492 22.982 11.2195 23.6951 12.1521 23.9008C12.4127 23.9557 12.5498 23.9694 12.5087 23.6814Z" fill="#48494A"/>
<path fill-rule="evenodd" clip-rule="evenodd" d="M12.2893 21.5829H13.263C13.3727 21.1578 13.2904 20.9795 12.8242 21.0207C12.4676 21.0481 12.3167 21.2264 12.2893 21.5829Z" fill="white"/>
<path fill-rule="evenodd" clip-rule="evenodd" d="M15.4451 2.38726C15.9151 2.45955 16.2404 2.09807 16.638 1.91733C17.6502 1.41125 19.6022 0.54369 20.6867 0.869026C20.9397 1.41125 20.7951 1.3751 20.2529 1.41125C18.2647 1.5197 16.8549 2.27881 15.6982 3.86934C15.0837 4.7369 15.6982 5.13453 16.1681 4.44772C18.4093 1.01362 23.4339 1.62814 24.4461 4.91764C24.6268 5.60446 24.6991 6.36358 24.663 7.12269C24.5907 8.0264 24.2292 8.42404 24.5907 9.03856C24.193 9.147 24.3015 9.11086 24.1207 9.61693C23.7593 10.7737 23.1086 10.9906 23.1447 11.7497C24.1569 12.2196 25.3136 9.79767 24.7353 9.00241C25.7113 8.71322 26.0366 3.72475 23.0363 2.09807C21.5542 1.26666 20.9035 1.73659 20.9397 0.869026C21.988 0.652135 23.5062 1.5197 24.0485 1.98963C24.8076 2.67644 25.3498 3.54401 25.6751 4.77305C25.8559 5.42372 25.9643 6.03824 25.9643 6.72506C25.9643 6.94195 25.9282 7.66492 25.9643 7.80951C26.0728 8.13485 26.3619 8.27944 26.5788 7.95411C26.9403 7.44803 26.9042 0.652135 21.4096 0.0376131C20.036 -0.10698 18.7708 0.182207 17.6502 0.615987C17.1441 0.832877 16.638 1.04977 16.1681 1.30281C15.662 1.55584 15.0114 1.84503 15.4451 2.38726Z" fill="#0957A8"/>
<path fill-rule="evenodd" clip-rule="evenodd" d="M19.2407 7.37578C19.313 6.43592 19.7106 5.96599 20.6505 5.8937C21.8795 5.78525 22.0964 6.25518 21.8073 7.37578H19.2407ZM22.4941 10.3761C19.8191 10.3761 18.1201 10.846 18.9154 8.74942C19.6022 8.74942 21.9157 8.82172 22.3856 8.67712C23.1086 8.38794 23.4339 7.08659 23.2893 6.14674C23.0001 4.01398 19.9275 4.12243 18.7346 5.42377C17.7586 6.47207 17.0357 9.79772 17.5779 10.7737C18.0478 11.6051 18.9515 11.7497 20.1444 11.7497C21.6988 11.7497 22.2049 11.9305 22.4941 10.3761Z" fill="#0957A8"/>
<path fill-rule="evenodd" clip-rule="evenodd" d="M19.7469 14.9307C20.6145 14.9307 21.3736 14.7861 22.0966 14.497C22.4219 14.3524 22.675 14.2078 22.9641 14.027C23.2895 13.8463 23.7233 13.521 23.3979 13.1956C22.9641 13.0149 22.3496 13.5571 21.8797 13.774C19.3854 15.0392 14.8308 13.5932 15.1199 9.50848C15.1561 9.11085 15.3368 8.49633 15.3368 8.20714C15.3368 7.55647 14.7946 7.52032 14.6139 8.09869C13.9993 9.94226 14.5777 11.822 15.4453 13.0149C15.9514 13.6655 16.3128 13.9186 17.2165 14.3524C18.0841 14.75 18.6986 14.9307 19.7469 14.9307Z" fill="#0957A8"/>
<path fill-rule="evenodd" clip-rule="evenodd" d="M16.7104 6.21865C17.3611 6.21865 17.2888 5.89332 17.5779 5.35109C18.2286 4.12205 19.4938 3.50753 21.012 3.65212C22.1326 3.72442 22.7472 4.23049 23.2171 4.95346C23.6509 5.71258 23.5424 5.96562 23.6509 6.18251C24.3015 7.3754 24.9161 4.95346 22.9279 3.50753C22.2049 3.00145 21.1205 2.78456 20.036 2.893C17.7587 3.14604 16.2766 5.38724 16.7104 6.21865Z" fill="#0957A8"/>
<path fill-rule="evenodd" clip-rule="evenodd" d="M19.8192 12.9064C18.9878 12.5449 17.2888 12.6895 16.7104 10.7375C16.2405 9.18312 17.325 7.15881 16.9635 6.3997C16.1682 6.3274 16.2405 6.94192 15.9152 8.60475C15.4452 11.0628 16.4212 12.9426 18.8793 13.4848C19.5662 13.6294 19.9276 13.6655 19.8192 12.9064Z" fill="#0957A8"/>
<path fill-rule="evenodd" clip-rule="evenodd" d="M19.2407 7.37545H21.8073C22.0964 6.25485 21.8796 5.78492 20.6505 5.89336C19.7107 5.96566 19.313 6.43559 19.2407 7.37545Z" fill="white"/>
<path d="M1.15357 25.4915H1.38671L1.757 26.9589H1.48271L1.41414 26.6434H0.824435L0.659865 26.9589H0.358154L1.15357 25.4915ZM1.34557 26.3829L1.22214 25.9029L0.961576 26.3829H1.34557Z" fill="#48494A"/>
<path d="M2.67579 25.4915H2.90893L3.2655 26.9589H3.00493L2.92264 26.6434H2.34665L2.16837 26.9589H1.88037L2.67579 25.4915ZM2.85407 26.3829L2.74436 25.9029L2.48379 26.3829H2.85407Z" fill="#48494A"/>
<path d="M3.69082 25.4915H3.92396C4.14339 25.4915 4.29424 25.5189 4.40395 25.56C4.51367 25.6149 4.59595 25.6972 4.66452 25.8069C4.73309 25.9166 4.76052 26.04 4.76052 26.1909C4.76052 26.3417 4.73309 26.4789 4.66452 26.6023C4.59595 26.7257 4.49995 26.808 4.39024 26.8766C4.28053 26.9314 4.12967 26.9589 3.93767 26.9589H3.48511L3.69082 25.4915ZM3.92396 25.7383L3.80053 26.6983H3.88282C4.03367 26.6983 4.12967 26.6846 4.19824 26.6709C4.28053 26.6297 4.3491 26.5749 4.40395 26.4926C4.45881 26.4103 4.48624 26.3143 4.48624 26.1909C4.48624 26.0949 4.47252 26.0126 4.43138 25.944C4.39024 25.8892 4.33538 25.8343 4.26681 25.7932C4.19824 25.7657 4.11596 25.7383 3.99253 25.7383H3.92396Z" fill="#48494A"/>
<path d="M5.11684 25.4915H5.39113L5.32256 26.04H5.81627L5.89855 25.4915H6.17283L5.96712 26.9589H5.69284L5.78884 26.2869H5.28141L5.18542 26.9589H4.91113L5.11684 25.4915Z" fill="#48494A"/>
<path d="M7.00953 25.4915H7.24267L7.61295 26.9589H7.33867L7.25638 26.6434H6.68039L6.51582 26.9589H6.21411L7.00953 25.4915ZM7.20153 26.3829L7.0781 25.9029L6.81753 26.3829H7.20153Z" fill="#48494A"/>
<path d="M8.51828 25.4915H8.75142L9.1217 26.9589H8.86113L8.77885 26.6434H8.18914L8.02457 26.9589H7.73657L8.51828 25.4915ZM8.71028 26.3829L8.58685 25.9029L8.33999 26.3829H8.71028Z" fill="#48494A"/>
<path d="M9.56045 25.4915H9.8073C9.97187 25.4915 10.0816 25.5052 10.1364 25.5326C10.2187 25.56 10.2873 25.6149 10.3284 25.6697C10.3696 25.7246 10.3833 25.8069 10.3833 25.8892C10.3833 25.9852 10.3559 26.0674 10.301 26.1497C10.2324 26.2183 10.1364 26.2732 10.013 26.3006L10.3422 26.9589H10.0542L9.73873 26.3143H9.72502L9.62902 26.9589H9.35474L9.56045 25.4915ZM9.75245 26.0812C9.9033 26.0674 9.9993 26.0537 10.0404 26.0263C10.0816 25.9989 10.109 25.9577 10.109 25.8892C10.109 25.8617 10.0953 25.8343 10.0816 25.8069C10.0679 25.7795 10.0404 25.7657 9.9993 25.752C9.97187 25.752 9.9033 25.7383 9.79359 25.7383L9.75245 26.0812Z" fill="#48494A"/>
<path d="M11.2745 25.4915H12.0699L12.0425 25.752H11.5214L11.4802 26.0537H12.0014L11.9602 26.3143H11.4528L11.3979 26.6983H11.9191L11.8779 26.9589H11.0825L11.2745 25.4915Z" fill="#48494A"/>
<path d="M12.3583 25.4915H12.6051L13.14 26.4926L13.2771 25.4915H13.5377L13.3457 26.9589H13.0988L12.564 25.944L12.4268 26.9589H12.1663L12.3583 25.4915Z" fill="#48494A"/>
<path d="M14.374 25.4915H14.6072L14.9775 26.9589H14.7032L14.6346 26.6434H14.0449L13.8803 26.9589H13.5786L14.374 25.4915ZM14.566 26.3829L14.4426 25.9029L14.182 26.3829H14.566Z" fill="#48494A"/>
<path d="M15.3888 25.4915H15.622C15.7591 25.4915 15.8688 25.5052 15.9237 25.5326C15.9922 25.56 16.0471 25.6149 16.0882 25.6697C16.1294 25.7383 16.1568 25.8069 16.1568 25.8755C16.1568 25.944 16.1431 25.9989 16.1157 26.0537C16.0882 26.1086 16.0471 26.1497 15.9922 26.1909C16.1157 26.2732 16.1842 26.3966 16.1842 26.5474C16.1842 26.6297 16.1568 26.6983 16.1157 26.7669C16.0745 26.8354 16.0197 26.8766 15.9648 26.904C15.8962 26.9452 15.814 26.9589 15.7042 26.9589H15.1831L15.3888 25.4915ZM15.5945 26.0674H15.6357C15.718 26.0674 15.7591 26.0674 15.7865 26.0537C15.814 26.04 15.8414 26.0263 15.8551 25.9989C15.8688 25.9577 15.8825 25.9303 15.8825 25.8892C15.8825 25.8617 15.8825 25.8343 15.8551 25.8069C15.8414 25.7795 15.8277 25.7657 15.8002 25.752C15.7728 25.752 15.718 25.7383 15.6357 25.7383L15.5945 26.0674ZM15.4985 26.6983H15.6631C15.7591 26.6983 15.814 26.6846 15.8551 26.6572C15.8962 26.616 15.91 26.5749 15.91 26.52C15.91 26.4789 15.8962 26.4377 15.8688 26.4103C15.8551 26.3692 15.814 26.3554 15.7865 26.3417C15.7454 26.328 15.6631 26.3143 15.5534 26.3143L15.4985 26.6983Z" fill="#48494A"/>
<path d="M16.5819 25.4915H16.8562L16.6916 26.6983H17.1442L17.1168 26.9589H16.3762L16.5819 25.4915Z" fill="#48494A"/>
<path d="M17.4599 25.4915H18.2553L18.2141 25.752H17.7067L17.6656 26.0537H18.173L18.1456 26.3143H17.6244L17.5696 26.6983H18.0907L18.0633 26.9589H17.2542L17.4599 25.4915Z" fill="#48494A"/>
<path d="M18.5431 25.4915H18.7763C18.9957 25.4915 19.1602 25.5189 19.27 25.56C19.366 25.6149 19.462 25.6972 19.5305 25.8069C19.5854 25.9166 19.6265 26.04 19.6265 26.1909C19.6265 26.3417 19.5854 26.4789 19.5168 26.6023C19.4482 26.7257 19.3522 26.808 19.2425 26.8766C19.1465 26.9314 18.9957 26.9589 18.8037 26.9589H18.3374L18.5431 25.4915ZM18.79 25.7383L18.6528 26.6983H18.7488C18.886 26.6983 18.982 26.6846 19.0505 26.6709C19.1328 26.6297 19.2151 26.5749 19.2562 26.4926C19.3111 26.4103 19.3385 26.3143 19.3385 26.1909C19.3385 26.0949 19.3248 26.0126 19.2837 25.944C19.2425 25.8892 19.2014 25.8343 19.1328 25.7932C19.0643 25.7657 18.9683 25.7383 18.8585 25.7383H18.79Z" fill="#48494A"/>
<path d="M20.5455 25.4915H20.8061C20.9707 25.4915 21.0804 25.5052 21.1352 25.5326C21.2175 25.56 21.2861 25.6149 21.3272 25.6697C21.3684 25.7246 21.3821 25.8069 21.3821 25.8892C21.3821 25.9714 21.3546 26.0537 21.3135 26.1223C21.2586 26.1909 21.2038 26.2457 21.1215 26.2869C21.0392 26.3143 20.9021 26.328 20.7101 26.3417L20.6278 26.9589H20.3535L20.5455 25.4915ZM20.7512 26.0812C20.9021 26.0812 20.9981 26.0674 21.0392 26.0263C21.0804 25.9989 21.1078 25.9577 21.1078 25.8892C21.1078 25.8617 21.0941 25.8343 21.0804 25.8069C21.0667 25.7795 21.0392 25.7657 20.9981 25.7657C20.9707 25.752 20.9021 25.7383 20.7924 25.7383L20.7512 26.0812Z" fill="#48494A"/>
<path d="M22.1909 25.4915H22.4241L22.7943 26.9589H22.5201L22.4515 26.6434H21.8618L21.6972 26.9589H21.3955L22.1909 25.4915ZM22.3829 26.3829L22.2595 25.9029L21.9989 26.3829H22.3829Z" fill="#48494A"/>
<path d="M23 25.4915H23.288L23.5211 26.0812L23.9326 25.4915H24.248L23.6308 26.3692L23.5486 26.9589H23.2606L23.3429 26.3692L23 25.4915Z" fill="#48494A"/>
<path d="M24.591 25.4915H24.8379L25.0847 26.5063L25.5922 25.4915H25.8253L25.8527 26.9589H25.5922L25.5784 26.0812L25.1396 26.9589H24.9339L24.7145 26.04L24.4676 26.9589H24.207L24.591 25.4915Z" fill="#48494A"/>
<path d="M26.3051 25.4915H27.1005L27.0594 25.752H26.5382L26.4971 26.0537H27.0182L26.9908 26.3143H26.4696L26.4148 26.6983H26.9359L26.9085 26.9589H26.0994L26.3051 25.4915Z" fill="#48494A"/>
<path d="M27.3886 25.4915H27.6217L28.1566 26.4926L28.2937 25.4915H28.568L28.3623 26.9589H28.1291L27.5943 25.944L27.4434 26.9589H27.1829L27.3886 25.4915Z" fill="#48494A"/>
<path d="M28.7052 25.4915H29.5966L29.5692 25.752H29.2674L29.1029 26.9589H28.8286L28.9932 25.752H28.6777L28.7052 25.4915Z" fill="#48494A"/>
<path d="M31.0779 25.6973L30.8722 25.8756C30.7899 25.7659 30.7213 25.711 30.639 25.711C30.6116 25.711 30.5842 25.7247 30.5567 25.7384C30.5293 25.7659 30.5156 25.7796 30.5156 25.8207C30.5156 25.8481 30.5293 25.8756 30.5567 25.903C30.5705 25.9441 30.639 26.0127 30.7487 26.1224C30.8036 26.191 30.8447 26.2321 30.8584 26.2596C30.8996 26.3144 30.9407 26.3693 30.9544 26.4241C30.9682 26.479 30.9819 26.5201 30.9819 26.575C30.9819 26.6984 30.9407 26.7944 30.8584 26.8767C30.7762 26.959 30.6665 27.0001 30.5293 27.0001C30.3373 27.0001 30.1727 26.9041 30.0493 26.7121L30.255 26.5339C30.3373 26.671 30.4333 26.7396 30.5293 26.7396C30.5842 26.7396 30.6253 26.7121 30.6527 26.6847C30.6939 26.6573 30.7076 26.6161 30.7076 26.575C30.7076 26.5476 30.6939 26.5064 30.6802 26.479C30.6527 26.4379 30.5979 26.3693 30.5019 26.2733C30.4059 26.1636 30.3373 26.095 30.3099 26.0401C30.2687 25.9716 30.255 25.903 30.255 25.8344C30.255 25.7384 30.2825 25.6562 30.3373 25.5876C30.4196 25.4916 30.5156 25.4504 30.639 25.4504C30.8173 25.4504 30.9544 25.5327 31.0779 25.6973Z" fill="#48494A"/>
<path d="M31.1875 25.4915H31.4755L31.6949 26.0812L32.1201 25.4915H32.4355L31.8046 26.3692L31.7224 26.9589H31.4481L31.5304 26.3692L31.1875 25.4915Z" fill="#48494A"/>
<path d="M33.4092 25.6973L33.2035 25.8756C33.1212 25.7659 33.0526 25.711 32.984 25.711C32.9429 25.711 32.9155 25.7247 32.888 25.7384C32.8606 25.7659 32.8606 25.7796 32.8606 25.8207C32.8606 25.8481 32.8606 25.8756 32.888 25.903C32.9018 25.9441 32.9703 26.0127 33.08 26.1224C33.1349 26.191 33.176 26.2321 33.1897 26.2596C33.2446 26.3144 33.272 26.3693 33.2857 26.4241C33.3132 26.479 33.3132 26.5201 33.3132 26.575C33.3132 26.6984 33.272 26.7944 33.1897 26.8767C33.1075 26.959 32.9978 27.0001 32.8743 27.0001C32.6686 27.0001 32.504 26.9041 32.3806 26.7121L32.5863 26.5339C32.6823 26.671 32.7646 26.7396 32.8743 26.7396C32.9155 26.7396 32.9566 26.7121 32.984 26.6847C33.0252 26.6573 33.0389 26.6161 33.0389 26.575C33.0389 26.5476 33.0252 26.5064 33.0115 26.479C32.984 26.4379 32.9292 26.3693 32.8332 26.2733C32.7372 26.1636 32.6823 26.095 32.6412 26.0401C32.6 25.9716 32.5863 25.903 32.5863 25.8344C32.5863 25.7384 32.6138 25.6562 32.6686 25.5876C32.7509 25.4916 32.8469 25.4504 32.9703 25.4504C33.1486 25.4504 33.2995 25.5327 33.4092 25.6973Z" fill="#48494A"/>
<path d="M33.5326 25.4915H34.4377L34.3965 25.752H34.0948L33.9303 26.9589H33.656L33.8206 25.752H33.5051L33.5326 25.4915Z" fill="#48494A"/>
<path d="M34.5749 25.4915H35.3566L35.3291 25.752H34.808L34.7669 26.0537H35.288L35.2606 26.3143H34.7394L34.6846 26.6983H35.2057L35.1783 26.9589H34.3691L34.5749 25.4915Z" fill="#48494A"/>
<path d="M35.7543 25.4915H36.0149L36.2617 26.5063L36.7692 25.4915H37.0023L37.016 26.9589H36.7692L36.7554 26.0812L36.3166 26.9589H36.1109L35.8777 26.04L35.6446 26.9589H35.384L35.7543 25.4915Z" fill="#48494A"/>
</svg>
