<svg width="50" height="50" viewBox="0 0 50 50" fill="none" xmlns="http://www.w3.org/2000/svg">
<path d="M0 12C0 5.37258 5.37258 0 12 0H38C44.6274 0 50 5.37258 50 12V38C50 44.6274 44.6274 50 38 50H12C5.37258 50 0 44.6274 0 38V12Z" fill="white"/>
<path d="M36.1429 29.7658H30.1429C29.9155 29.7658 29.6975 29.6755 29.5368 29.5147C29.376 29.354 29.2857 29.136 29.2857 28.9086C29.2857 28.6813 29.376 28.4633 29.5368 28.3025C29.6975 28.1418 29.9155 28.0515 30.1429 28.0515H35.2857V16.9086H14.7143V28.0515H19.8571C20.0845 28.0515 20.3025 28.1418 20.4632 28.3025C20.624 28.4633 20.7143 28.6813 20.7143 28.9086C20.7143 29.136 20.624 29.354 20.4632 29.5147C20.3025 29.6755 20.0845 29.7658 19.8571 29.7658H13.8571C13.6298 29.7658 13.4118 29.6755 13.2511 29.5147C13.0903 29.354 13 29.136 13 28.9086V16.0515C13 15.8242 13.0903 15.6061 13.2511 15.4454C13.4118 15.2846 13.6298 15.1943 13.8571 15.1943H36.1429C36.3702 15.1943 36.5882 15.2846 36.7489 15.4454C36.9097 15.6061 37 15.8242 37 16.0515V28.9086C37 29.136 36.9097 29.354 36.7489 29.5147C36.5882 29.6755 36.3702 29.7658 36.1429 29.7658Z" fill="#48494A"/>
<path d="M30.1429 36.623H19.8571C19.6298 36.623 19.4118 36.5327 19.2511 36.3719C19.0903 36.2112 19 35.9932 19 35.7658V23.7658C19 23.5385 19.0903 23.3205 19.2511 23.1597C19.4118 22.999 19.6298 22.9087 19.8571 22.9087H30.1429C30.3702 22.9087 30.5882 22.999 30.7489 23.1597C30.9097 23.3205 31 23.5385 31 23.7658V35.7658C31 35.9932 30.9097 36.2112 30.7489 36.3719C30.5882 36.5327 30.3702 36.623 30.1429 36.623ZM20.7143 34.9087H29.2857V24.623H20.7143V34.9087Z" fill="#48494A"/>
<path d="M32.7143 24.623H17.2857C17.0584 24.623 16.8404 24.5327 16.6796 24.3719C16.5189 24.2112 16.4286 23.9932 16.4286 23.7658C16.4286 23.5385 16.5189 23.3205 16.6796 23.1597C16.8404 22.999 17.0584 22.9087 17.2857 22.9087H32.7143C32.9416 22.9087 33.1596 22.999 33.3204 23.1597C33.4811 23.3205 33.5714 23.5385 33.5714 23.7658C33.5714 23.9932 33.4811 24.2112 33.3204 24.3719C33.1596 24.5327 32.9416 24.623 32.7143 24.623Z" fill="#48494A"/>
<path d="M32.7143 21.1943C33.1877 21.1943 33.5715 20.8105 33.5715 20.3371C33.5715 19.8637 33.1877 19.48 32.7143 19.48C32.2409 19.48 31.8572 19.8637 31.8572 20.3371C31.8572 20.8105 32.2409 21.1943 32.7143 21.1943Z" fill="#48494A"/>
<path d="M29.2857 20.7143H19.8571C19.6298 20.7143 19.4118 20.624 19.2511 20.4632C19.0903 20.3025 19 20.0845 19 19.8571C19 19.6298 19.0903 19.4118 19.2511 19.2511C19.4118 19.0903 19.6298 19 19.8571 19H29.2857C29.513 19 29.7311 19.0903 29.8918 19.2511C30.0526 19.4118 30.1429 19.6298 30.1429 19.8571C30.1429 20.0845 30.0526 20.3025 29.8918 20.4632C29.7311 20.624 29.513 20.7143 29.2857 20.7143Z" fill="#0957A8"/>
<path d="M26.692 28.0011L26.5182 28.5943H23.2045L23.3784 28.0011H26.692ZM25.1375 32L23.2659 29.7091L23.2557 29.2795H24.1864C24.4284 29.2795 24.6347 29.2455 24.8051 29.1773C24.9756 29.1074 25.106 29.0034 25.1963 28.8653C25.2866 28.7256 25.3318 28.55 25.3318 28.3386C25.3318 28.0267 25.2381 27.7821 25.0506 27.6048C24.8631 27.4259 24.575 27.3364 24.1864 27.3364H23.2045L23.3784 26.7636H24.1864C24.6023 26.7636 24.9432 26.8327 25.2091 26.9707C25.4767 27.1071 25.6744 27.2946 25.8023 27.5332C25.9318 27.7702 25.9966 28.0386 25.9966 28.3386C25.9966 28.6097 25.9369 28.8594 25.8176 29.0878C25.7 29.3145 25.5108 29.4969 25.25 29.6349C24.9909 29.773 24.6483 29.842 24.2222 29.842H24.2068L25.9352 31.9591V32H25.1375ZM26.692 26.7636L26.5182 27.3568L23.9102 27.3364L24.0841 26.7636H26.692Z" fill="#0957A8"/>
<path d="M26.692 28.0011L26.788 28.0293L26.8256 27.9011H26.692V28.0011ZM26.5182 28.5943V28.6943H26.5931L26.6141 28.6224L26.5182 28.5943ZM23.2045 28.5943L23.1086 28.5662L23.071 28.6943H23.2045V28.5943ZM23.3784 28.0011V27.9011H23.3035L23.2824 27.973L23.3784 28.0011ZM25.1375 32L25.0601 32.0633L25.0901 32.1H25.1375V32ZM23.2659 29.7091L23.1659 29.7115L23.1668 29.7458L23.1885 29.7724L23.2659 29.7091ZM23.2557 29.2795V29.1795H23.1533L23.1557 29.2819L23.2557 29.2795ZM24.8051 29.1773L24.8423 29.2701L24.843 29.2698L24.8051 29.1773ZM25.1963 28.8653L25.28 28.9201L25.2803 28.9196L25.1963 28.8653ZM25.0506 27.6048L24.9815 27.6772L24.9819 27.6775L25.0506 27.6048ZM23.2045 27.3364L23.1089 27.3073L23.0697 27.4364H23.2045V27.3364ZM23.3784 26.7636V26.6636H23.3043L23.2827 26.7346L23.3784 26.7636ZM25.2091 26.9707L25.163 27.0595L25.1637 27.0598L25.2091 26.9707ZM25.8023 27.5332L25.7141 27.5805L25.7145 27.5812L25.8023 27.5332ZM25.8176 29.0878L25.729 29.0415L25.7288 29.0417L25.8176 29.0878ZM25.25 29.6349L25.2032 29.5466L25.203 29.5467L25.25 29.6349ZM24.2068 29.842V29.742H23.9961L24.1294 29.9053L24.2068 29.842ZM25.9352 31.9591H26.0352V31.9235L26.0127 31.8958L25.9352 31.9591ZM25.9352 32V32.1H26.0352V32H25.9352ZM26.692 26.7636L26.788 26.7918L26.8256 26.6636H26.692V26.7636ZM26.5182 27.3568L26.5174 27.4568L26.5929 27.4574L26.6141 27.3849L26.5182 27.3568ZM23.9102 27.3364L23.8145 27.3073L23.7757 27.4353L23.9094 27.4364L23.9102 27.3364ZM24.0841 26.7636V26.6636H24.0099L23.9884 26.7346L24.0841 26.7636ZM26.5961 27.973L26.4222 28.5662L26.6141 28.6224L26.788 28.0293L26.5961 27.973ZM26.5182 28.4943H23.2045V28.6943H26.5182V28.4943ZM23.3005 28.6224L23.4744 28.0293L23.2824 27.973L23.1086 28.5662L23.3005 28.6224ZM23.3784 28.1011H26.692V27.9011H23.3784V28.1011ZM25.2149 31.9367L23.3434 29.6458L23.1885 29.7724L25.0601 32.0633L25.2149 31.9367ZM23.3659 29.7067L23.3557 29.2772L23.1557 29.2819L23.1659 29.7115L23.3659 29.7067ZM23.2557 29.3795H24.1864V29.1795H23.2557V29.3795ZM24.1864 29.3795C24.4373 29.3795 24.6569 29.3443 24.8423 29.2701L24.768 29.0844C24.6124 29.1466 24.4195 29.1795 24.1864 29.1795V29.3795ZM24.843 29.2698C25.03 29.1932 25.1773 29.077 25.28 28.9201L25.1126 28.8106C25.0346 28.9298 24.9212 29.0216 24.7672 29.0847L24.843 29.2698ZM25.2803 28.9196C25.3836 28.7598 25.4318 28.5641 25.4318 28.3386H25.2318C25.2318 28.5359 25.1897 28.6913 25.1123 28.8111L25.2803 28.9196ZM25.4318 28.3386C25.4318 28.0054 25.3308 27.7322 25.1193 27.5322L24.9819 27.6775C25.1453 27.832 25.2318 28.048 25.2318 28.3386H25.4318ZM25.1196 27.5325C24.9061 27.3286 24.5881 27.2364 24.1864 27.2364V27.4364C24.5619 27.4364 24.8201 27.5231 24.9815 27.6772L25.1196 27.5325ZM24.1864 27.2364H23.2045V27.4364H24.1864V27.2364ZM23.3002 27.3654L23.4741 26.7927L23.2827 26.7346L23.1089 27.3073L23.3002 27.3654ZM23.3784 26.8636H24.1864V26.6636H23.3784V26.8636ZM24.1864 26.8636C24.5921 26.8636 24.9158 26.9311 25.163 27.0595L25.2552 26.882C24.9706 26.7342 24.6124 26.6636 24.1864 26.6636V26.8636ZM25.1637 27.0598C25.4152 27.188 25.597 27.3618 25.7141 27.5805L25.8904 27.486C25.7519 27.2274 25.5382 27.0262 25.2545 26.8816L25.1637 27.0598ZM25.7145 27.5812C25.8352 27.8019 25.8966 28.0535 25.8966 28.3386H26.0966C26.0966 28.0238 26.0285 27.7385 25.89 27.4853L25.7145 27.5812ZM25.8966 28.3386C25.8966 28.5944 25.8404 28.8281 25.729 29.0415L25.9062 29.1341C26.0334 28.8906 26.0966 28.6249 26.0966 28.3386H25.8966ZM25.7288 29.0417C25.622 29.2477 25.4489 29.4165 25.2032 29.5466L25.2968 29.7233C25.5727 29.5773 25.778 29.3813 25.9064 29.1338L25.7288 29.0417ZM25.203 29.5467C24.9634 29.6743 24.6388 29.742 24.2222 29.742V29.942C24.6578 29.942 25.0184 29.8717 25.297 29.7232L25.203 29.5467ZM24.2222 29.742H24.2068V29.942H24.2222V29.742ZM24.1294 29.9053L25.8578 32.0223L26.0127 31.8958L24.2843 29.7788L24.1294 29.9053ZM25.8352 31.9591V32H26.0352V31.9591H25.8352ZM25.9352 31.9H25.1375V32.1H25.9352V31.9ZM26.5961 26.7355L26.4222 27.3287L26.6141 27.3849L26.788 26.7918L26.5961 26.7355ZM26.519 27.2568L23.911 27.2364L23.9094 27.4364L26.5174 27.4568L26.519 27.2568ZM24.0059 27.3654L24.1798 26.7927L23.9884 26.7346L23.8145 27.3073L24.0059 27.3654ZM24.0841 26.8636H26.692V26.6636H24.0841V26.8636Z" fill="#0957A8"/>
<path d="M32.5257 14.3371C32.895 14.3371 33.1943 14.0378 33.1943 13.6686C33.1943 13.2993 32.895 13 32.5257 13C32.1565 13 31.8572 13.2993 31.8572 13.6686C31.8572 14.0378 32.1565 14.3371 32.5257 14.3371Z" fill="#48494A"/>
<path d="M20.5257 14.6803C20.7151 14.6803 20.8686 14.5268 20.8686 14.3375C20.8686 14.1481 20.7151 13.9946 20.5257 13.9946C20.3364 13.9946 20.1829 14.1481 20.1829 14.3375C20.1829 14.5268 20.3364 14.6803 20.5257 14.6803Z" fill="#48494A"/>
</svg>
