<svg width="38" height="24" viewBox="0 0 38 24" fill="none" xmlns="http://www.w3.org/2000/svg">
<path d="M34.7238 9.30416C34.5192 9.61356 34.4449 9.98598 34.3825 10.3742C34.3061 10.8468 34.2254 11.3005 34.0583 11.7454C33.8576 12.2785 33.5202 12.8724 32.9333 13.3374C32.3279 11.7009 31.4461 10.1804 30.3264 8.84213C31.0259 8.5626 31.7124 8.56688 32.2769 8.66002C32.7457 8.73765 33.179 8.89469 33.6267 9.0647C33.9938 9.20497 34.3535 9.32684 34.7236 9.30416H34.7238ZM27.9123 2.493L27.9121 2.49338L27.9126 2.49325C27.8899 2.86327 28.0117 3.22296 28.1518 3.59021C28.3219 4.03787 28.479 4.47104 28.5567 4.93987C28.6497 5.50473 28.654 6.1921 28.3737 6.8922C27.0334 5.77419 25.511 4.8945 23.8731 4.29144C24.339 3.69948 24.9358 3.36008 25.4713 3.15844C25.9162 2.99132 26.3699 2.91079 26.8427 2.83416C27.2306 2.7719 27.6031 2.6978 27.9123 2.493ZM33.6504 16.0112C34.3907 16.1207 34.9797 16.4661 35.4199 16.8271C35.7871 17.1288 36.0836 17.4815 36.3865 17.8528C36.6341 18.1574 36.8848 18.4428 37.2165 18.6083H33.8743C33.8734 17.7378 33.7984 16.869 33.6504 16.0112ZM9.30391 2.49325L9.30416 2.4935V2.493C9.61343 2.69767 9.98585 2.77178 10.3739 2.83429C10.8465 2.91066 11.3002 2.99132 11.7451 3.15831C12.2806 3.35996 12.8774 3.69948 13.3432 4.29132C11.7052 4.89433 10.1829 5.77407 8.84264 6.8922C8.56235 6.1921 8.56638 5.50473 8.65977 4.93974C8.7374 4.47091 8.89443 4.03775 9.06445 3.58996C9.20459 3.22284 9.32659 2.86327 9.30391 2.49325ZM2.49275 9.30441L2.49312 9.30453L2.493 9.30428C2.86302 9.32684 3.22271 9.20497 3.58996 9.06483C4.03762 8.89469 4.47078 8.73765 4.93949 8.66002C5.5041 8.56701 6.19059 8.56272 6.89005 8.84226C5.77053 10.1806 4.88885 11.7011 4.28338 13.3375C3.69633 12.8724 3.35907 12.2786 3.15818 11.7454C2.99107 11.3005 2.91053 10.8468 2.83403 10.3742C2.77165 9.98598 2.69742 9.61369 2.49275 9.30441ZM0 18.6084C0.331837 18.443 0.582258 18.1576 0.830159 17.8529C1.13263 17.4817 1.42943 17.1291 1.79643 16.8275C2.23678 16.4662 2.82546 16.1209 3.56589 16.0115C3.41791 16.8692 3.34315 17.738 3.34244 18.6084H0ZM18.6083 0V0.000378092L18.6086 0C18.7739 0.331963 19.0594 0.582384 19.3642 0.830537C19.7354 1.13301 20.0882 1.42968 20.3897 1.79668C20.7531 2.2398 21.1006 2.83315 21.2077 3.58026C20.3491 3.43285 19.4796 3.35877 18.6084 3.35882C17.7222 3.35882 16.854 3.4352 16.0089 3.58026C16.1161 2.83328 16.4635 2.2398 16.8269 1.79693C17.1287 1.42968 17.4814 1.13301 17.8525 0.830285C18.1573 0.58251 18.4427 0.331963 18.6083 0Z" fill="#0D77CE"/>
<path d="M15.5036 18.6115L16.6523 18.6082C16.8031 17.6381 16.5081 16.8911 15.5268 17.0694C14.6998 17.2195 13.8115 18.0411 13.2747 18.6082L14.789 18.6016C14.9578 18.4907 15.2881 18.364 15.4237 18.4583C15.4744 18.4935 15.501 18.5437 15.5036 18.6115Z" fill="#48494A"/>
<path d="M20.6691 18.6078H22.1021C22.1703 16.9156 21.8977 15.1682 21.111 13.6563C20.3954 12.2806 19.2126 11.3456 17.6813 11.1197C15.446 10.7898 13.1904 11.7362 11.2834 13.09C9.20722 14.564 7.49347 16.566 5.99573 18.608L7.8887 18.6052C9.59287 16.1897 13.5125 12.5226 16.396 12.4987C17.3147 12.4911 18.2491 12.7067 18.9399 13.323C19.4403 13.7697 20.0472 14.6369 20.0174 15.3408C19.9998 15.7581 19.6294 15.8861 19.2742 15.7567C18.9984 15.6563 18.8035 15.4042 18.6104 15.139C17.9831 14.2776 17.0044 13.856 15.931 14.003C14.6507 14.178 13.0637 15.1721 12.0401 16.0762C11.1575 16.856 10.3472 17.7093 9.58279 18.608H11.6179C12.3639 17.7074 13.1516 16.9393 14.1641 16.3087C14.4845 16.1092 14.8791 15.8981 15.2938 15.7554C16.3401 15.3958 17.3813 15.487 17.8437 16.7896C18.0253 17.3018 18.052 17.7511 17.9991 18.5743V18.608H19.3829L19.3864 18.5656C19.3874 18.1148 19.3776 17.811 19.4183 17.3642C19.4532 16.979 19.5729 16.58 19.9306 16.5326C20.6907 16.3733 20.6543 18.0644 20.6691 18.608V18.6078Z" fill="#48494A"/>
<path d="M23.6088 18.6081H25.0538C25.1237 17.0382 24.9891 15.1781 24.4811 13.5539C24.3831 13.2384 24.268 12.9285 24.1361 12.6256C23.8286 11.9237 23.4147 11.2884 22.9215 10.7013C22.373 10.049 21.7196 9.46251 20.983 9.00061C20.7646 8.86349 20.5391 8.738 20.3075 8.62466V8.62441C20.0749 8.51058 19.836 8.41006 19.592 8.32332L19.591 8.32294C16.7774 7.32391 13.9316 8.03434 11.5444 9.33282C11.0848 9.58348 10.6377 9.85641 10.2047 10.1506C9.78733 10.4339 9.38232 10.7349 8.99074 11.0529L8.98986 11.0535C8.43153 11.5069 7.90336 11.9962 7.40869 12.5184C7.29816 12.6354 7.18902 12.7547 7.0829 12.875C6.79895 13.197 6.36138 13.6483 6.49119 14.1149C6.59403 14.4849 7.07156 14.3758 7.23779 14.2485C7.49313 14.1115 7.77342 13.8943 8.0135 13.6913C8.33828 13.4163 8.64516 13.1201 8.96692 12.8414C10.2679 11.7134 11.6241 10.8437 12.9599 10.255C13.2464 10.1286 13.5377 10.0132 13.8331 9.90928C14.1169 9.80933 14.4048 9.72128 14.696 9.64538L14.6972 9.645C17.1829 8.99973 19.8839 9.41777 21.6133 11.4447C23.2794 13.3973 23.5834 16.0109 23.6088 18.6082V18.6081ZM5.68145 16.4011C5.83671 16.2561 5.99488 16.0671 6.15973 15.8579C6.39036 15.5653 6.41355 15.2819 6.32231 15.0775C6.28936 15.003 6.23978 14.937 6.17737 14.8846C6.11701 14.8339 6.04554 14.7983 5.96879 14.7805C5.78088 14.7375 5.55605 14.8048 5.36511 15.0371C5.14935 15.2996 4.85129 15.7486 4.79041 16.1459C4.77874 16.2168 4.77646 16.289 4.78361 16.3605C4.79117 16.4265 4.80881 16.4893 4.83843 16.5466L4.83868 16.5472C4.88733 16.6404 4.96938 16.6896 5.07864 16.6937C5.10146 16.6945 5.12616 16.6935 5.15237 16.6906C5.17796 16.6878 5.20568 16.6826 5.23517 16.6758V16.6761L5.23669 16.6757C5.38389 16.6404 5.53109 16.5414 5.68145 16.401V16.4011Z" fill="#48494A"/>
<path d="M27.223 18.6087L27.2333 18.6084H27.2384C27.3897 18.6167 27.6521 18.5472 27.8034 18.2918C27.8335 18.2408 27.8595 18.1824 27.879 18.1163C27.8992 18.0488 27.9131 17.9723 27.9189 17.8865L27.92 17.8689C28.0348 13.8561 26.8058 10.5339 24.7191 8.27711C24.3175 7.84219 23.8789 7.44302 23.4081 7.08411C22.9424 6.72923 22.4461 6.41637 21.925 6.14922H21.9249L21.9166 6.14519L21.9163 6.14494C20.1625 5.24861 18.1732 4.90442 16.2209 5.0699C15.4596 5.13421 14.7069 5.27559 13.9742 5.49185L13.969 5.49349C11.9611 6.08747 10.0926 7.26648 8.56986 8.81337C8.12557 9.26457 7.71234 9.74534 7.33301 10.2524C8.40086 9.3311 9.54647 8.52299 10.7448 7.88087C11.0119 7.7375 11.2832 7.602 11.5583 7.47455C11.8304 7.34846 12.1064 7.23094 12.3859 7.12217L12.3867 7.12192L12.3874 7.12154C13.4461 6.71005 14.4897 6.44766 15.5336 6.33045C16.5774 6.21324 17.622 6.24097 18.6828 6.4096C19.4377 6.52983 20.1744 6.72745 20.8382 7.00396C20.9669 7.05752 21.0937 7.11448 21.2177 7.17473C21.3402 7.23409 21.4608 7.2971 21.5789 7.36377H21.579L21.5809 7.36478L21.5808 7.3649C23.9178 8.64461 25.5413 11.2703 26.2564 14.235C26.5371 15.4007 26.6752 16.5961 26.6675 17.795V17.7953L26.6671 17.8298C26.6791 18.1508 26.7891 18.4195 26.9777 18.5404C27.0127 18.5628 27.0508 18.5804 27.0912 18.5918H27.0915C27.1328 18.6035 27.1767 18.6094 27.223 18.6087Z" fill="#48494A"/>
<path d="M23.0446 5.23438C28.6633 7.09017 32.7239 12.374 32.7476 18.6082H29.9674C30.1514 13.1624 27.7746 8.24687 23.0446 5.23438Z" fill="#0D77CE"/>
<path d="M6.73081 22.9813H5.60624L5.32772 23.9611H4.43152L5.61746 20.2087H6.75299L7.97233 23.9611H7.03706L6.73081 22.9813ZM5.73429 22.3465H6.59722C6.37087 21.6134 6.22417 21.1106 6.15737 20.8377H6.14616L5.96808 21.5504L5.73429 22.3465ZM10.8616 22.9813H9.73687L9.4586 23.9611H8.56227L9.74796 20.2087H10.8839L12.1031 23.9611H11.1678L10.8616 22.9813ZM9.86492 22.3465H10.7278C10.5015 21.6134 10.3548 21.1106 10.288 20.8377H10.2769L10.0988 21.5504L9.86492 22.3465ZM12.9601 23.9445V20.2589C13.3312 20.2031 13.7284 20.1753 14.1514 20.1753C14.9514 20.1753 15.5257 20.3423 15.8738 20.6773C16.2216 21.0123 16.3952 21.4502 16.3952 21.9902C16.3952 22.6287 16.1975 23.1233 15.8013 23.474C15.4051 23.8246 14.7937 24 13.9678 24C13.5856 24 13.2496 23.9815 12.9601 23.9445ZM13.823 20.8712V23.3153C13.8713 23.3264 13.9753 23.332 14.1348 23.332C14.5634 23.332 14.8957 23.2188 15.1304 22.9933C15.3652 22.7677 15.4821 22.445 15.4821 22.0236C15.4821 21.6376 15.3755 21.3435 15.1611 21.1412C14.9467 20.9389 14.6378 20.8377 14.235 20.8377C14.0661 20.8377 13.9288 20.849 13.823 20.8712ZM17.3191 20.2087H18.182V21.6506H19.6573V20.2088H20.5204V23.9611H19.6573V22.3967H18.182V23.9611H17.3191V20.2087ZM23.6488 22.9813H22.5242L22.2458 23.9611H21.3495L22.5355 20.2087H23.6711L24.8905 23.9611H23.9551L23.6488 22.9813ZM22.6523 22.3465H23.5152C23.2889 21.6134 23.1422 21.1106 23.0754 20.8377H23.0643L22.8861 21.5504L22.6523 22.3465ZM27.7796 22.9813H26.6549L26.3765 23.9611H25.4801L26.666 20.2087H27.8017L29.021 23.9611H28.0858L27.7796 22.9813ZM26.7829 22.3465H27.6458C27.4195 21.6134 27.2728 21.1106 27.206 20.8377H27.1949L27.0167 21.5504L26.7829 22.3465ZM29.878 23.961V20.2589C30.1937 20.2031 30.5815 20.1753 31.0417 20.1753C31.6096 20.1753 32.0178 20.2691 32.2665 20.4565C32.5151 20.6439 32.6395 20.9121 32.6395 21.2609C32.6395 21.4689 32.5773 21.6563 32.452 21.8243C32.3302 21.9897 32.1605 22.1137 31.9659 22.1795V22.2017C32.1997 22.2891 32.3686 22.5192 32.4725 22.8921C32.6636 23.5639 32.7674 23.9203 32.7842 23.9611H31.9045C31.8304 23.822 31.7413 23.5306 31.6373 23.087C31.5854 22.8644 31.5148 22.7085 31.4259 22.6194C31.3368 22.5303 31.1938 22.4858 30.9971 22.4858H30.7299V23.9611H29.878V23.961ZM30.7299 20.8377V21.8677H31.0862C31.3015 21.8677 31.4712 21.8186 31.5956 21.7212C31.72 21.6238 31.7821 21.4929 31.7821 21.3277C31.7821 21.1626 31.7264 21.0344 31.6141 20.9446C31.502 20.8545 31.3423 20.81 31.1364 20.81C30.9341 20.81 30.7986 20.8193 30.7299 20.8377Z" fill="#48494A"/>
</svg>
