<svg width="28" height="28" viewBox="0 0 28 28" fill="none" xmlns="http://www.w3.org/2000/svg">
<path d="M26.2154 23.9883C27.6474 21.4729 27.0648 18.2923 24.8341 16.448V12.9162H25.3758C25.675 12.9162 25.9175 12.6737 25.9175 12.3745V10.7495H26.4592C26.7584 10.7487 27.0003 10.5056 26.9996 10.2065C26.9992 10.0299 26.9128 9.86461 26.7679 9.7636L14.3092 1.09663C14.1235 0.967791 13.8773 0.967791 13.6917 1.09663L1.23294 9.7636C0.987609 9.93484 0.927584 10.2725 1.09877 10.5178C1.19983 10.6626 1.36513 10.749 1.5417 10.7495H2.0834V12.3745C2.0834 12.6737 2.32594 12.9162 2.62511 12.9162H3.16681V21.5832H2.62505C2.32589 21.5832 2.08335 21.8257 2.08335 22.1249V23.8474C1.43567 24.0764 1.00193 24.688 1 25.3749V26.4583C1 26.7575 1.24254 27 1.5417 27H26.4592C26.7584 27 27.0009 26.7575 27.0009 26.4583V25.3749C26.9992 24.8072 26.7015 24.2815 26.2154 23.9883ZM24.8341 11.8329H20.5007V10.7495H24.8341V11.8329ZM23.7508 12.9162V15.7384C23.0756 15.3916 22.34 15.1782 21.584 15.11V12.9162H23.7508ZM14.0004 2.20166L24.7312 9.6661H3.26964L14.0004 2.20166ZM8.04192 21.5832H7.50022V12.9162H8.04192C8.34108 12.9162 8.58362 12.6737 8.58362 12.3745V10.7495H10.7503V12.3745C10.7503 12.6737 10.9929 12.9162 11.292 12.9162H11.8337V21.5832H11.292C10.9929 21.5832 10.7503 21.8257 10.7503 22.1249V23.7499H8.58357V22.1249C8.58357 21.8257 8.34108 21.5832 8.04192 21.5832ZM11.8337 22.6665H15.3167C15.4234 23.0409 15.5667 23.4038 15.7447 23.7499H11.8337V22.6665H11.8337ZM12.9171 21.5832V12.9162H15.0838V21.5832H12.9171ZM15.6255 11.8329H11.8337V10.7495H16.1671V11.8329H15.6255ZM16.1672 12.9162H16.7089C17.0081 12.9162 17.2506 12.6737 17.2506 12.3745V10.7495H19.4174V12.3745C19.4174 12.6737 19.6599 12.9162 19.9591 12.9162H20.5007V15.11C18.757 15.2704 17.1722 16.1896 16.1672 17.6234V12.9162ZM3.16676 10.7495H7.50022V11.8328H3.16676V10.7495ZM6.41687 12.9162V21.5832H4.25011V12.9162H6.41687ZM3.16676 22.6665H7.50022V23.7499H3.16676V22.6665ZM2.08335 25.9166V25.3749C2.08335 25.0758 2.32589 24.8332 2.62505 24.8332H16.4488C16.7907 25.2451 17.186 25.6095 17.6243 25.9166H2.08335V25.9166ZM25.9175 25.9166H24.455C24.8769 25.622 25.2593 25.2742 25.5925 24.882C25.7887 24.9677 25.9161 25.1609 25.9175 25.375V25.9166ZM21.0424 25.9166C18.3499 25.9166 16.1672 23.7339 16.1672 21.0415C16.1672 18.349 18.3499 16.1663 21.0424 16.1663C23.7348 16.1663 25.9175 18.349 25.9175 21.0415C25.9175 23.7339 23.7348 25.9166 21.0424 25.9166Z" fill="#48494A" stroke="#48494A" stroke-width="0.2"/>
<path d="M23.0919 20.0011L22.9181 20.5943H19.6044L19.7783 20.0011H23.0919ZM21.5374 24L19.6658 21.7091L19.6556 21.2795H20.5863C20.8283 21.2795 21.0346 21.2455 21.205 21.1773C21.3755 21.1074 21.5059 21.0034 21.5962 20.8653C21.6866 20.7256 21.7317 20.55 21.7317 20.3386C21.7317 20.0267 21.638 19.7821 21.4505 19.6048C21.263 19.4259 20.9749 19.3364 20.5863 19.3364H19.6044L19.7783 18.7636H20.5863C21.0022 18.7636 21.3431 18.8327 21.609 18.9707C21.8766 19.1071 22.0743 19.2946 22.2022 19.5332C22.3317 19.7702 22.3965 20.0386 22.3965 20.3386C22.3965 20.6097 22.3368 20.8594 22.2175 21.0878C22.0999 21.3145 21.9107 21.4969 21.6499 21.6349C21.3908 21.773 21.0482 21.842 20.6221 21.842H20.6067L22.3351 23.9591V24H21.5374ZM23.0919 18.7636L22.9181 19.3568L20.3101 19.3364L20.484 18.7636H23.0919Z" fill="#0957A8"/>
<path d="M23.0919 20.0011L23.1879 20.0293L23.2255 19.9011H23.0919V20.0011ZM22.9181 20.5943V20.6943H22.993L23.014 20.6224L22.9181 20.5943ZM19.6044 20.5943L19.5085 20.5662L19.4709 20.6943H19.6044V20.5943ZM19.7783 20.0011V19.9011H19.7034L19.6823 19.973L19.7783 20.0011ZM21.5374 24L21.46 24.0633L21.49 24.1H21.5374V24ZM19.6658 21.7091L19.5658 21.7115L19.5667 21.7458L19.5884 21.7724L19.6658 21.7091ZM19.6556 21.2795V21.1795H19.5532L19.5556 21.2819L19.6556 21.2795ZM21.205 21.1773L21.2422 21.2701L21.243 21.2698L21.205 21.1773ZM21.5962 20.8653L21.6799 20.9201L21.6802 20.9196L21.5962 20.8653ZM21.4505 19.6048L21.3814 19.6772L21.3818 19.6775L21.4505 19.6048ZM19.6044 19.3364L19.5088 19.3073L19.4696 19.4364H19.6044V19.3364ZM19.7783 18.7636V18.6636H19.7042L19.6826 18.7346L19.7783 18.7636ZM21.609 18.9707L21.5629 19.0595L21.5636 19.0598L21.609 18.9707ZM22.2022 19.5332L22.114 19.5805L22.1144 19.5812L22.2022 19.5332ZM22.2175 21.0878L22.1289 21.0415L22.1288 21.0417L22.2175 21.0878ZM21.6499 21.6349L21.6031 21.5466L21.6029 21.5467L21.6499 21.6349ZM20.6067 21.842V21.742H20.396L20.5293 21.9053L20.6067 21.842ZM22.3351 23.9591H22.4351V23.9235L22.4126 23.8958L22.3351 23.9591ZM22.3351 24V24.1H22.4351V24H22.3351ZM23.0919 18.7636L23.1879 18.7918L23.2255 18.6636H23.0919V18.7636ZM22.9181 19.3568L22.9173 19.4568L22.9928 19.4574L23.014 19.3849L22.9181 19.3568ZM20.3101 19.3364L20.2144 19.3073L20.1756 19.4353L20.3093 19.4364L20.3101 19.3364ZM20.484 18.7636V18.6636H20.4098L20.3883 18.7346L20.484 18.7636ZM22.996 19.973L22.8221 20.5662L23.014 20.6224L23.1879 20.0293L22.996 19.973ZM22.9181 20.4943H19.6044V20.6943H22.9181V20.4943ZM19.7004 20.6224L19.8743 20.0293L19.6823 19.973L19.5085 20.5662L19.7004 20.6224ZM19.7783 20.1011H23.0919V19.9011H19.7783V20.1011ZM21.6148 23.9367L19.7433 21.6458L19.5884 21.7724L21.46 24.0633L21.6148 23.9367ZM19.7658 21.7067L19.7556 21.2772L19.5556 21.2819L19.5658 21.7115L19.7658 21.7067ZM19.6556 21.3795H20.5863V21.1795H19.6556V21.3795ZM20.5863 21.3795C20.8372 21.3795 21.0568 21.3443 21.2422 21.2701L21.1679 21.0844C21.0123 21.1466 20.8194 21.1795 20.5863 21.1795V21.3795ZM21.243 21.2698C21.4299 21.1932 21.5772 21.077 21.6799 20.9201L21.5125 20.8106C21.4345 20.9298 21.3211 21.0216 21.1671 21.0847L21.243 21.2698ZM21.6802 20.9196C21.7835 20.7598 21.8317 20.5641 21.8317 20.3386H21.6317C21.6317 20.5359 21.5896 20.6913 21.5122 20.8111L21.6802 20.9196ZM21.8317 20.3386C21.8317 20.0054 21.7307 19.7322 21.5192 19.5322L21.3818 19.6775C21.5452 19.832 21.6317 20.048 21.6317 20.3386H21.8317ZM21.5195 19.5325C21.306 19.3286 20.988 19.2364 20.5863 19.2364V19.4364C20.9618 19.4364 21.22 19.5231 21.3814 19.6772L21.5195 19.5325ZM20.5863 19.2364H19.6044V19.4364H20.5863V19.2364ZM19.7001 19.3654L19.874 18.7927L19.6826 18.7346L19.5088 19.3073L19.7001 19.3654ZM19.7783 18.8636H20.5863V18.6636H19.7783V18.8636ZM20.5863 18.8636C20.992 18.8636 21.3157 18.9311 21.5629 19.0595L21.6551 18.882C21.3705 18.7342 21.0123 18.6636 20.5863 18.6636V18.8636ZM21.5636 19.0598C21.8151 19.188 21.9969 19.3618 22.114 19.5805L22.2903 19.486C22.1518 19.2274 21.9381 19.0262 21.6544 18.8816L21.5636 19.0598ZM22.1144 19.5812C22.2351 19.8019 22.2965 20.0535 22.2965 20.3386H22.4965C22.4965 20.0238 22.4284 19.7385 22.2899 19.4853L22.1144 19.5812ZM22.2965 20.3386C22.2965 20.5944 22.2403 20.8281 22.1289 21.0415L22.3062 21.1341C22.4333 20.8906 22.4965 20.6249 22.4965 20.3386H22.2965ZM22.1288 21.0417C22.0219 21.2477 21.8488 21.4165 21.6031 21.5466L21.6967 21.7233C21.9726 21.5773 22.1779 21.3813 22.3063 21.1338L22.1288 21.0417ZM21.6029 21.5467C21.3633 21.6743 21.0387 21.742 20.6221 21.742V21.942C21.0577 21.942 21.4183 21.8717 21.6969 21.7232L21.6029 21.5467ZM20.6221 21.742H20.6067V21.942H20.6221V21.742ZM20.5293 21.9053L22.2577 24.0223L22.4126 23.8958L20.6842 21.7788L20.5293 21.9053ZM22.2351 23.9591V24H22.4351V23.9591H22.2351ZM22.3351 23.9H21.5374V24.1H22.3351V23.9ZM22.996 18.7355L22.8221 19.3287L23.014 19.3849L23.1879 18.7918L22.996 18.7355ZM22.9189 19.2568L20.3109 19.2364L20.3093 19.4364L22.9173 19.4568L22.9189 19.2568ZM20.4058 19.3654L20.5797 18.7927L20.3883 18.7346L20.2144 19.3073L20.4058 19.3654ZM20.484 18.8636H23.0919V18.6636H20.484V18.8636Z" fill="#0957A8"/>
<path d="M20.3057 7.60226L14.3472 3.2688L13.6809 4.14633L18.2906 7.49937H8.58362V8.58273H19.959C20.2032 8.59466 20.4252 8.44155 20.5007 8.20897C20.5741 7.98582 20.4954 7.7408 20.3057 7.60226Z" fill="#0957A8" stroke="#0957A8" stroke-width="0.2"/>
</svg>
