<svg width="34" height="13" viewBox="0 0 34 13" fill="none" xmlns="http://www.w3.org/2000/svg">
<path d="M0.27273 10.3173H0.527229L0.288888 11.307C0.252531 11.4525 0.260611 11.5656 0.309087 11.6383C0.357563 11.711 0.446436 11.7474 0.579745 11.7474C0.709015 11.7474 0.818086 11.711 0.902919 11.6383C0.987752 11.5656 1.04431 11.4525 1.08066 11.307L1.31901 10.3173H1.57755L1.33516 11.3313C1.28265 11.5494 1.18974 11.715 1.05239 11.8241C0.919078 11.9332 0.741332 11.9897 0.52319 11.9897C0.305047 11.9897 0.155579 11.9372 0.0747855 11.8282C-0.00600807 11.7191 -0.0221667 11.5535 0.0303491 11.3353L0.27273 10.3173ZM1.54119 11.9453L1.94516 10.2527L2.71269 11.2464C2.73289 11.2747 2.75309 11.303 2.77329 11.3353C2.79349 11.3676 2.81369 11.404 2.83792 11.4444L3.10858 10.3173H3.34692L2.94296 12.0059L2.15926 10.9919L2.09866 10.9071C2.07847 10.8748 2.06231 10.8465 2.05019 10.8102L1.77953 11.9413H1.54119V11.9453ZM3.32673 11.9453L3.71453 10.3173H3.97307L3.58526 11.9453H3.32673ZM3.95288 11.9453L4.34068 10.3173H5.22537L5.17286 10.5435H4.54671L4.44976 10.9475H5.07591L5.01935 11.1778H4.3932L4.21141 11.9413H3.95288V11.9453ZM5.12438 11.9453L5.51219 10.3173H5.77073L5.38292 11.9453H5.12438ZM5.75053 11.9453L6.13834 10.3173H7.02303L6.97051 10.5435H6.34436L6.24741 10.9515H6.87356L6.81701 11.1818H6.19086L6.06563 11.707H6.69178L6.63522 11.9453H5.75053ZM6.93416 11.9453L7.32197 10.3173H7.66938C7.8956 10.3173 8.05315 10.3294 8.13798 10.3537C8.22281 10.3779 8.29553 10.4143 8.35208 10.4708C8.4248 10.5435 8.47327 10.6365 8.49347 10.7455C8.51367 10.8586 8.50559 10.9879 8.47327 11.1293C8.43692 11.2747 8.3844 11.4 8.31169 11.5131C8.23897 11.6262 8.14606 11.715 8.03699 11.7878C7.95619 11.8443 7.86732 11.8807 7.77037 11.9049C7.67746 11.9292 7.53607 11.9413 7.35024 11.9413H6.93416V11.9453ZM7.24925 11.7029H7.46739C7.58455 11.7029 7.67746 11.6948 7.74209 11.6787C7.80673 11.6625 7.86328 11.6343 7.9158 11.5979C7.98851 11.5454 8.04911 11.4807 8.09758 11.4C8.14606 11.3232 8.18242 11.2303 8.20666 11.1253C8.23089 11.0202 8.23897 10.9314 8.22685 10.8546C8.21473 10.7778 8.18646 10.7092 8.13798 10.6567C8.10162 10.6163 8.05719 10.592 7.99659 10.5759C7.936 10.5597 7.84308 10.5516 7.70978 10.5516H7.52395L7.24925 11.7029ZM9.66094 11.2141L9.48723 11.9453H9.24485L9.63266 10.3173H10.0245C10.1417 10.3173 10.2225 10.3254 10.275 10.3375C10.3275 10.3496 10.3679 10.3698 10.4002 10.4022C10.4406 10.4385 10.4689 10.491 10.481 10.5557C10.4931 10.6203 10.4891 10.689 10.4729 10.7657C10.4527 10.8425 10.4244 10.9152 10.38 10.9798C10.3356 11.0445 10.283 11.097 10.2265 11.1333C10.178 11.1616 10.1255 11.1859 10.0689 11.198C10.0124 11.2101 9.92352 11.2182 9.81041 11.2182H9.66094V11.2141ZM9.72961 10.996H9.79425C9.93564 10.996 10.0366 10.9798 10.0932 10.9475C10.1497 10.9152 10.1861 10.8586 10.2063 10.7778C10.2265 10.693 10.2144 10.6284 10.174 10.5961C10.1295 10.5597 10.0407 10.5435 9.90736 10.5435H9.84272L9.72961 10.996ZM11.3495 11.9453L11.2687 11.5252H10.6385L10.3558 11.9453H10.0851L11.2566 10.2527L11.6202 11.9453H11.3495ZM10.792 11.303H11.2324L11.1597 10.9314C11.1556 10.9071 11.1516 10.8788 11.1516 10.8506C11.1475 10.8182 11.1475 10.7859 11.1475 10.7496C11.1314 10.7859 11.1152 10.8182 11.095 10.8506C11.0789 10.8829 11.0627 10.9112 11.0465 10.9354L10.792 11.303ZM11.9918 11.9453L12.1696 11.202L11.8464 10.3214H12.1171L12.319 10.8748C12.3231 10.891 12.3271 10.9071 12.3352 10.9314C12.3433 10.9556 12.3473 10.9798 12.3554 11.0041L12.4039 10.9314C12.42 10.9071 12.4362 10.8869 12.4524 10.8667L12.925 10.3214H13.1835L12.4281 11.198L12.2504 11.9413H11.9918V11.9453ZM14.452 11.1414C14.452 11.1293 14.456 11.0929 14.4641 11.0364C14.4682 10.9879 14.4722 10.9515 14.4762 10.9192C14.4601 10.9556 14.4439 10.9919 14.4237 11.0323C14.4035 11.0687 14.3793 11.1091 14.351 11.1455L13.7289 12.014L13.5269 11.1293C13.5188 11.0929 13.5108 11.0566 13.5067 11.0243C13.5027 10.9919 13.4986 10.9556 13.4986 10.9233C13.4906 10.9556 13.4784 10.9919 13.4663 11.0323C13.4542 11.0687 13.438 11.1091 13.4178 11.1495L13.0543 11.9493H12.8159L13.5956 10.2527L13.8178 11.2788C13.8218 11.2949 13.8258 11.3232 13.8299 11.3596C13.8339 11.3959 13.842 11.4444 13.8501 11.5009C13.8784 11.4525 13.9147 11.3959 13.9632 11.3232C13.9753 11.303 13.9874 11.2909 13.9915 11.2788L14.6944 10.2527L14.6701 11.9493H14.4318L14.452 11.1414ZM14.8802 11.9453L15.268 10.3173H16.1527L16.1002 10.5435H15.474L15.3771 10.9515H16.0032L15.9467 11.1818H15.3205L15.1953 11.707H15.8214L15.7649 11.9453H14.8802ZM16.0598 11.9453L16.4638 10.2527L17.2313 11.2464C17.2515 11.2747 17.2717 11.303 17.2919 11.3353C17.3121 11.3676 17.3323 11.404 17.3565 11.4444L17.6272 10.3173H17.8655L17.4616 12.0059L16.6779 10.9919L16.6173 10.9071C16.5971 10.8748 16.5809 10.8465 16.5688 10.8102L16.2981 11.9413H16.0598V11.9453ZM18.6896 10.5395L18.3543 11.9413H18.0958L18.4311 10.5395H18.011L18.0635 10.3133H19.1623L19.1097 10.5395H18.6896ZM18.9603 11.6181L19.1905 11.5211C19.1946 11.5939 19.2148 11.6504 19.2592 11.6868C19.3036 11.7231 19.3642 11.7433 19.445 11.7433C19.5218 11.7433 19.5864 11.7231 19.643 11.6787C19.6995 11.6343 19.7359 11.5777 19.7521 11.505C19.7763 11.408 19.7197 11.3232 19.5824 11.2505C19.5622 11.2384 19.5501 11.2303 19.5379 11.2262C19.3844 11.1374 19.2875 11.0606 19.2471 10.9879C19.2067 10.9152 19.1986 10.8304 19.2229 10.7294C19.2552 10.5961 19.3238 10.491 19.4329 10.4062C19.542 10.3254 19.6632 10.281 19.8086 10.281C19.9258 10.281 20.0187 10.3052 20.0873 10.3496C20.156 10.3941 20.1924 10.4627 20.2045 10.5476L19.9783 10.6526C19.9581 10.6001 19.9338 10.5637 19.9015 10.5395C19.8692 10.5153 19.8288 10.5031 19.7803 10.5031C19.7117 10.5031 19.6511 10.5233 19.6026 10.5597C19.5541 10.5961 19.5218 10.6445 19.5056 10.7092C19.4814 10.8061 19.5501 10.899 19.7076 10.9839C19.7197 10.9919 19.7278 10.996 19.7359 11C19.8732 11.0727 19.9662 11.1455 20.0065 11.2182C20.0469 11.2909 20.055 11.3757 20.0308 11.4848C19.9944 11.6383 19.9177 11.7595 19.8005 11.8524C19.6834 11.9413 19.546 11.9897 19.3844 11.9897C19.2511 11.9897 19.1461 11.9574 19.0734 11.8928C18.9926 11.8282 18.9562 11.7352 18.9603 11.6181ZM20.863 11.9453L21.2508 10.3173H21.5093L21.1215 11.9453H20.863ZM21.4932 11.9453L21.8971 10.2527L22.6647 11.2464C22.6849 11.2747 22.7051 11.303 22.7253 11.3353C22.7455 11.3676 22.7657 11.404 22.7899 11.4444L23.0605 10.3173H23.2989L22.8949 12.0059L22.1112 10.9919L22.0506 10.9071C22.0304 10.8748 22.0143 10.8465 22.0022 10.8102L21.7315 11.9413H21.4932V11.9453ZM24.123 10.5395L23.7877 11.9413H23.5292L23.8644 10.5395H23.4443L23.4968 10.3133H24.5956L24.5431 10.5395H24.123ZM24.4017 11.9453L24.7895 10.3173H25.6783L25.6257 10.5435H24.9996L24.9026 10.9515H25.5288L25.4722 11.1818H24.8461L24.7209 11.707H25.347L25.2905 11.9453H24.4017ZM25.9974 11.2141L25.8237 11.9413H25.5813L25.9691 10.3133H26.3286C26.4337 10.3133 26.5145 10.3214 26.567 10.3335C26.6235 10.3456 26.668 10.3698 26.7003 10.4022C26.7407 10.4425 26.7649 10.491 26.7771 10.5557C26.7892 10.6163 26.7851 10.6849 26.769 10.7617C26.7367 10.891 26.6841 10.996 26.6033 11.0687C26.5226 11.1414 26.4216 11.1859 26.3004 11.202L26.668 11.9413H26.3771L26.0257 11.2141H25.9974ZM26.062 11.0081H26.1105C26.2479 11.0081 26.3408 10.9919 26.3933 10.9596C26.4458 10.9273 26.4822 10.8708 26.5024 10.7859C26.5226 10.697 26.5145 10.6324 26.4741 10.5961C26.4337 10.5597 26.3488 10.5395 26.2196 10.5395H26.1711L26.062 11.0081ZM26.8255 11.9453L27.2133 10.3173H28.098L28.0455 10.5435H27.4194L27.3224 10.9475H27.9486L27.892 11.1778H27.2659L27.0841 11.9413H26.8255V11.9453ZM28.9585 11.9453L28.8777 11.5252H28.2475L27.9647 11.9453H27.6941L28.8656 10.2527L29.2291 11.9453H28.9585ZM28.397 11.303H28.8373L28.7646 10.9314C28.7605 10.9071 28.7565 10.8788 28.7565 10.8506C28.7525 10.8182 28.7525 10.7859 28.7525 10.7496C28.7363 10.7859 28.7201 10.8182 28.6999 10.8506C28.6838 10.8829 28.6676 10.9112 28.6515 10.9354L28.397 11.303ZM30.9096 10.7132C30.8531 10.6486 30.7844 10.6001 30.7117 10.5718C30.639 10.5395 30.5582 10.5233 30.4653 10.5233C30.2916 10.5233 30.1381 10.5799 30.0007 10.693C29.8634 10.8061 29.7745 10.9556 29.7301 11.1374C29.6897 11.3111 29.7058 11.4565 29.7866 11.5737C29.8634 11.6868 29.9846 11.7433 30.1461 11.7433C30.2391 11.7433 30.332 11.7272 30.4249 11.6908C30.5178 11.6585 30.6107 11.606 30.7077 11.5373L30.6349 11.8362C30.5541 11.8888 30.4693 11.9251 30.3804 11.9493C30.2916 11.9736 30.2027 11.9857 30.1057 11.9857C29.9846 11.9857 29.8755 11.9655 29.7826 11.9251C29.6897 11.8847 29.6129 11.8241 29.5523 11.7433C29.4917 11.6666 29.4554 11.5737 29.4392 11.4686C29.423 11.3636 29.4271 11.2505 29.4594 11.1293C29.4877 11.0081 29.5361 10.899 29.6008 10.794C29.6654 10.689 29.7503 10.5961 29.8472 10.5193C29.9442 10.4385 30.0492 10.3779 30.1623 10.3375C30.2754 10.2971 30.3885 10.2769 30.5057 10.2769C30.5986 10.2769 30.6834 10.289 30.7642 10.3173C30.841 10.3456 30.9137 10.386 30.9783 10.4425L30.9096 10.7132ZM30.9339 11.9453L31.3217 10.3173H32.2064L32.1539 10.5435H31.5277L31.4308 10.9515H32.0569L32.0004 11.1818H31.3742L31.249 11.707H31.8751L31.8186 11.9453H30.9339Z" fill="#48494A"/>
<path d="M26.2317 8.89941H24.4583L26.9225 0H28.6959L26.2317 8.89941ZM25.3107 0.278737C25.1895 0.109071 24.9996 0.024238 24.7411 0.024238H14.9974L14.5167 1.76938H23.3797L22.8626 3.63167H15.773V3.62763H13.9996L12.5292 8.93981H14.3026L15.2883 5.37681H23.2585C23.509 5.37681 23.7433 5.29198 23.9614 5.12231C24.1796 4.95264 24.325 4.74258 24.3937 4.49212L25.3794 0.929126C25.4561 0.662507 25.4319 0.448404 25.3107 0.278737ZM11.495 8.34193C11.398 8.69339 11.0749 8.93981 10.7113 8.93981H1.56951C1.31905 8.93981 1.13323 8.85497 1.01203 8.68531C0.890844 8.51564 0.862567 8.30558 0.935281 8.05512L3.16518 0.024238H4.9386L2.94704 7.1987H10.0407L12.0323 0.024238H13.8057L11.495 8.34193Z" fill="#48494A"/>
<path d="M31.758 0.0161133L34 4.47592L29.2857 8.93572L31.758 0.0161133Z" fill="#0957A8"/>
<path d="M30.1825 0.0161133L32.4245 4.47592L27.7062 8.93572L30.1825 0.0161133Z" fill="#48494A"/>
</svg>
