<svg width="20" height="27" viewBox="0 0 20 27" fill="none" xmlns="http://www.w3.org/2000/svg">
<path d="M18.0499 6.2517H17.917C17.917 6.23429 17.917 6.21637 17.917 6.19896C17.9157 5.14983 17.5115 4.14128 16.7878 3.38169C16.0641 2.6221 15.0763 2.16952 14.0285 2.11746C13.5519 1.46251 12.9273 0.929541 12.2055 0.562069C11.4837 0.194597 10.6852 0.00304031 9.87525 0.00304031C9.06529 0.00304031 8.26682 0.194597 7.54501 0.562069C6.82321 0.929541 6.19855 1.46251 5.72203 2.11746C4.67419 2.16952 3.68639 2.6221 2.96272 3.38169C2.23905 4.14128 1.83481 5.14983 1.83353 6.19896V6.2517H1.70276C1.31833 6.25225 0.9498 6.40522 0.677965 6.67705C0.406131 6.94889 0.253169 7.31741 0.252611 7.70184V18.2484C0.253169 18.6328 0.406131 19.0013 0.677965 19.2731C0.9498 19.545 1.31833 19.6979 1.70276 19.6985H5.26221V22.6473L4.16853 23.085C3.95864 22.8136 3.65922 22.6255 3.32361 22.5542C2.988 22.4829 2.63798 22.5331 2.33589 22.6957C2.0338 22.8584 1.79926 23.123 1.67403 23.4424C1.5488 23.7619 1.54101 24.1154 1.65206 24.44C1.76311 24.7646 1.98578 25.0393 2.28041 25.2151C2.57505 25.3909 2.92252 25.4564 3.26095 25.4C3.59937 25.3435 3.90677 25.1688 4.12841 24.9069C4.35005 24.645 4.47153 24.3129 4.47122 23.9698C4.47125 23.9195 4.46861 23.8691 4.46331 23.819L5.80482 23.2822C5.87847 23.2527 5.94154 23.2017 5.98584 23.1359C6.03013 23.0701 6.0536 22.9924 6.05319 22.9131V19.6964H9.48081V23.6186C9.07209 23.7156 8.71321 23.9592 8.47232 24.3034C8.23143 24.6475 8.1253 25.0681 8.1741 25.4853C8.2229 25.9025 8.42322 26.2873 8.73702 26.5665C9.05083 26.8457 9.45625 27 9.87631 27C10.2964 27 10.7018 26.8457 11.0156 26.5665C11.3294 26.2873 11.5297 25.9025 11.5785 25.4853C11.6273 25.0681 11.5212 24.6475 11.2803 24.3034C11.0394 23.9592 10.6805 23.7156 10.2718 23.6186V19.6985H13.6994V22.9152C13.699 22.9945 13.7225 23.0722 13.7668 23.138C13.8111 23.2038 13.8741 23.2548 13.9478 23.2843L15.2893 23.8211C15.284 23.8712 15.2814 23.9216 15.2814 23.9719C15.2807 24.3162 15.4023 24.6494 15.6245 24.9124C15.8467 25.1753 16.155 25.3508 16.4945 25.4076C16.834 25.4644 17.1826 25.3988 17.4783 25.2225C17.7739 25.0462 17.9973 24.7706 18.1088 24.4449C18.2202 24.1192 18.2123 23.7646 18.0866 23.4441C17.9609 23.1237 17.7255 22.8583 17.4223 22.6952C17.1191 22.5322 16.7679 22.4821 16.4313 22.5539C16.0946 22.6256 15.7944 22.8146 15.5841 23.0871L14.4904 22.6494V19.6985H18.0499C18.4343 19.6979 18.8028 19.545 19.0746 19.2731C19.3465 19.0013 19.4994 18.6328 19.5 18.2484V7.70184C19.4994 7.31741 19.3465 6.94889 19.0746 6.67705C18.8028 6.40522 18.4343 6.25225 18.0499 6.2517ZM3.02107 24.629C2.8907 24.629 2.76326 24.5903 2.65486 24.5179C2.54647 24.4455 2.46198 24.3425 2.41209 24.2221C2.3622 24.1016 2.34915 23.9691 2.37458 23.8412C2.40001 23.7134 2.46279 23.5959 2.55498 23.5037C2.64716 23.4116 2.76461 23.3488 2.89248 23.3233C3.02034 23.2979 3.15287 23.311 3.27332 23.3609C3.39376 23.4107 3.49671 23.4952 3.56914 23.6036C3.64157 23.712 3.68023 23.8395 3.68023 23.9698C3.67995 24.1446 3.61041 24.3121 3.48686 24.4356C3.3633 24.5592 3.1958 24.6287 3.02107 24.629ZM10.7991 25.2882C10.7991 25.4707 10.745 25.6491 10.6436 25.8008C10.5422 25.9526 10.3981 26.0709 10.2295 26.1407C10.0608 26.2106 9.87528 26.2288 9.69627 26.1932C9.51726 26.1576 9.35283 26.0697 9.22377 25.9407C9.09471 25.8116 9.00682 25.6472 8.97122 25.4682C8.93561 25.2892 8.95389 25.1036 9.02373 24.935C9.09358 24.7664 9.21186 24.6223 9.36361 24.5209C9.51537 24.4195 9.69379 24.3653 9.87631 24.3653C10.121 24.3656 10.3555 24.4629 10.5285 24.6359C10.7015 24.8089 10.7988 25.0435 10.7991 25.2882ZM16.7315 23.3107C16.8619 23.3107 16.9893 23.3493 17.0977 23.4218C17.2061 23.4942 17.2906 23.5971 17.3405 23.7176C17.3904 23.838 17.4035 23.9706 17.378 24.0984C17.3526 24.2263 17.2898 24.3438 17.1976 24.4359C17.1054 24.5281 16.988 24.5909 16.8601 24.6163C16.7323 24.6418 16.5997 24.6287 16.4793 24.5788C16.3588 24.5289 16.2559 24.4444 16.1835 24.336C16.111 24.2276 16.0724 24.1002 16.0724 23.9698C16.0727 23.7951 16.1422 23.6276 16.2658 23.5041C16.3893 23.3805 16.5568 23.311 16.7315 23.3107ZM18.709 14.1616L15.5841 11.7886C15.2694 11.7886 15.5 14 15.6289 13.8141C15.4064 13.5916 19 13.3147 19 13C19 12.6853 16.3265 13.7722 16.549 13.5497C16.049 14.0497 18.6853 14.5 19 14.5L18.709 11.7886V14.1616ZM17.127 6.19896V6.2517H14.897C15.1395 5.15217 15.0139 4.0034 14.5394 2.98228C15.2722 3.14439 15.9278 3.55137 16.3982 4.13613C16.8686 4.72089 17.1257 5.44849 17.127 6.19896ZM2.62558 6.19896C2.62692 5.44849 2.88399 4.72089 3.35438 4.13613C3.82478 3.55137 4.48041 3.14439 5.21316 2.98228C4.73874 4.0034 4.61311 5.15217 4.85564 6.2517H2.62663C2.6261 6.23429 2.62558 6.21637 2.62558 6.19896ZM18.0499 18.9075H1.70276C1.52802 18.9072 1.36053 18.8377 1.23697 18.7141C1.11341 18.5906 1.04388 18.4231 1.0436 18.2484V7.70184C1.04388 7.52711 1.11341 7.35961 1.23697 7.23606C1.36053 7.1125 1.52802 7.04296 1.70276 7.04269H18.0499C18.2246 7.04296 18.3921 7.1125 18.5156 7.23606C18.6392 7.35961 18.7087 7.52711 18.709 7.70184V8.361H18.0499C17.945 8.361 17.8444 8.40267 17.7702 8.47684C17.696 8.55101 17.6544 8.6516 17.6544 8.75649C17.6544 8.86139 17.696 8.96198 17.7702 9.03615C17.8444 9.11032 17.945 9.15199 18.0499 9.15199H18.709V10.9976H16.4679C15.9434 10.9976 15.4404 11.206 15.0696 11.5768C14.6987 11.9477 14.4904 12.4506 14.4904 12.9751C14.4904 13.4996 14.6987 14.0025 15.0696 14.3734C15.4404 14.7442 15.9434 14.9526 16.4679 14.9526H18.709V16.7982H18.0499C17.945 16.7982 17.8444 16.8399 17.7702 16.914C17.696 16.9882 17.6544 17.0888 17.6544 17.1937C17.6544 17.2986 17.696 17.3992 17.7702 17.4734C17.8444 17.5475 17.945 17.5892 18.0499 17.5892H18.709V18.2484C18.7087 18.4231 18.6392 18.5906 18.5156 18.7141C18.3921 18.8377 18.2246 18.9072 18.0499 18.9075Z" fill="#48494A"/>
<path d="M11.0767 2.66761L10.9318 3.16193H8.17045L8.31534 2.66761H11.0767ZM9.78125 6L8.22159 4.09091L8.21307 3.73295H8.98864C9.19034 3.73295 9.36222 3.70455 9.50426 3.64773C9.64631 3.58949 9.75497 3.50284 9.83026 3.38778C9.90554 3.27131 9.94318 3.125 9.94318 2.94886C9.94318 2.68892 9.86506 2.48509 9.70881 2.33736C9.55256 2.18821 9.3125 2.11364 8.98864 2.11364H8.17045L8.31534 1.63636H8.98864C9.33523 1.63636 9.61932 1.69389 9.84091 1.80895C10.0639 1.92259 10.2287 2.07884 10.3352 2.2777C10.4432 2.47514 10.4972 2.69886 10.4972 2.94886C10.4972 3.17472 10.4474 3.38281 10.348 3.57315C10.25 3.76207 10.0923 3.91406 9.875 4.02912C9.65909 4.14418 9.37358 4.2017 9.01847 4.2017H9.00568L10.446 5.96591V6H9.78125ZM11.0767 1.63636L10.9318 2.13068L8.75852 2.11364L8.90341 1.63636H11.0767Z" fill="white"/>
<path d="M11.0767 2.66761L11.1727 2.69574L11.2102 2.56761H11.0767V2.66761ZM10.9318 3.16193V3.26193H11.0067L11.0278 3.19006L10.9318 3.16193ZM8.17045 3.16193L8.07449 3.1338L8.03694 3.26193H8.17045V3.16193ZM8.31534 2.66761V2.56761H8.24044L8.21938 2.63949L8.31534 2.66761ZM9.78125 6L9.70381 6.06327L9.73382 6.1H9.78125V6ZM8.22159 4.09091L8.12162 4.09329L8.12244 4.1276L8.14415 4.15418L8.22159 4.09091ZM8.21307 3.73295V3.63295H8.11066L8.1131 3.73533L8.21307 3.73295ZM9.50426 3.64773L9.5414 3.74058L9.5422 3.74025L9.50426 3.64773ZM9.83026 3.38778L9.91394 3.44254L9.91424 3.44207L9.83026 3.38778ZM9.70881 2.33736L9.63976 2.40969L9.64011 2.41002L9.70881 2.33736ZM8.17045 2.11364L8.07477 2.08459L8.03559 2.21364H8.17045V2.11364ZM8.31534 1.63636V1.53636H8.24119L8.21965 1.60732L8.31534 1.63636ZM9.84091 1.80895L9.79483 1.8977L9.79551 1.89805L9.84091 1.80895ZM10.3352 2.2777L10.2471 2.32492L10.2475 2.32567L10.3352 2.2777ZM10.348 3.57315L10.2594 3.52685L10.2592 3.5271L10.348 3.57315ZM9.875 4.02912L9.82821 3.94074L9.82797 3.94087L9.875 4.02912ZM9.00568 4.2017V4.1017H8.79494L8.92822 4.26495L9.00568 4.2017ZM10.446 5.96591H10.546V5.93027L10.5235 5.90267L10.446 5.96591ZM10.446 6V6.1H10.546V6H10.446ZM11.0767 1.63636L11.1727 1.66449L11.2102 1.53636H11.0767V1.63636ZM10.9318 2.13068L10.931 2.23068L11.0065 2.23127L11.0278 2.15881L10.9318 2.13068ZM8.75852 2.11364L8.66283 2.08459L8.62398 2.21258L8.75774 2.21363L8.75852 2.11364ZM8.90341 1.63636V1.53636H8.82926L8.80772 1.60732L8.90341 1.63636ZM10.9807 2.63949L10.8359 3.1338L11.0278 3.19006L11.1727 2.69574L10.9807 2.63949ZM10.9318 3.06193H8.17045V3.26193H10.9318V3.06193ZM8.26642 3.19006L8.4113 2.69574L8.21938 2.63949L8.07449 3.1338L8.26642 3.19006ZM8.31534 2.76761H11.0767V2.56761H8.31534V2.76761ZM9.85869 5.93673L8.29903 4.02764L8.14415 4.15418L9.70381 6.06327L9.85869 5.93673ZM8.32156 4.08853L8.31304 3.73057L8.1131 3.73533L8.12162 4.09329L8.32156 4.08853ZM8.21307 3.83295H8.98864V3.63295H8.21307V3.83295ZM8.98864 3.83295C9.19923 3.83295 9.38444 3.80336 9.5414 3.74057L9.46712 3.55488C9.33999 3.60573 9.18146 3.63295 8.98864 3.63295V3.83295ZM9.5422 3.74025C9.70069 3.67527 9.8263 3.57646 9.91393 3.44254L9.74658 3.33303C9.68364 3.42922 9.59192 3.50371 9.46633 3.5552L9.5422 3.74025ZM9.91424 3.44207C10.0025 3.30556 10.0432 3.13909 10.0432 2.94886H9.84318C9.84318 3.11091 9.80861 3.23705 9.74627 3.3335L9.91424 3.44207ZM10.0432 2.94886C10.0432 2.66761 9.95783 2.43518 9.77751 2.26469L9.64011 2.41002C9.77229 2.53499 9.84318 2.71023 9.84318 2.94886H10.0432ZM9.77785 2.26502C9.59554 2.09099 9.32561 2.01364 8.98864 2.01364V2.21364C9.29939 2.21364 9.50958 2.28543 9.63976 2.40969L9.77785 2.26502ZM8.98864 2.01364H8.17045V2.21364H8.98864V2.01364ZM8.26614 2.14268L8.41103 1.66541L8.21965 1.60732L8.07477 2.08459L8.26614 2.14268ZM8.31534 1.73636H8.98864V1.53636H8.31534V1.73636ZM8.98864 1.73636C9.32507 1.73636 9.59191 1.79234 9.79483 1.8977L9.88699 1.7202C9.64673 1.59545 9.34538 1.53636 8.98864 1.53636V1.73636ZM9.79551 1.89805C10.0024 2.00347 10.1512 2.146 10.2471 2.32492L10.4234 2.23048C10.3062 2.01167 10.1254 1.8417 9.88631 1.71985L9.79551 1.89805ZM10.2475 2.32567C10.3465 2.50683 10.3972 2.71373 10.3972 2.94886H10.5972C10.5972 2.68399 10.5398 2.44346 10.423 2.22973L10.2475 2.32567ZM10.3972 2.94886C10.3972 3.15945 10.351 3.35155 10.2594 3.52685L10.4366 3.61946C10.5439 3.41408 10.5972 3.18998 10.5972 2.94886H10.3972ZM10.2592 3.5271C10.172 3.69528 10.0304 3.83367 9.82821 3.94074L9.92179 4.1175C10.1542 3.99445 10.328 3.82886 10.4368 3.6192L10.2592 3.5271ZM9.82797 3.94087C9.6316 4.04551 9.36408 4.1017 9.01847 4.1017V4.3017C9.38308 4.3017 9.68658 4.24284 9.92203 4.11737L9.82797 3.94087ZM9.01847 4.1017H9.00568V4.3017H9.01847V4.1017ZM8.92822 4.26495L10.3686 6.02915L10.5235 5.90267L9.08314 4.13846L8.92822 4.26495ZM10.346 5.96591V6H10.546V5.96591H10.346ZM10.446 5.9H9.78125V6.1H10.446V5.9ZM10.9807 1.60824L10.8359 2.10255L11.0278 2.15881L11.1727 1.66449L10.9807 1.60824ZM10.9326 2.03068L8.75931 2.01364L8.75774 2.21363L10.931 2.23068L10.9326 2.03068ZM8.85421 2.14268L8.9991 1.66541L8.80772 1.60732L8.66283 2.08459L8.85421 2.14268ZM8.90341 1.73636H11.0767V1.53636H8.90341V1.73636Z" fill="white"/>
<path d="M11.6958 16.7952H9.66136C9.55647 16.7952 9.45588 16.8368 9.38171 16.911C9.30754 16.9852 9.26587 17.0858 9.26587 17.1907C9.26587 17.2956 9.30754 17.3961 9.38171 17.4703C9.45588 17.5445 9.55647 17.5862 9.66136 17.5862H11.6958C11.8007 17.5862 11.9013 17.5445 11.9754 17.4703C12.0496 17.3961 12.0913 17.2956 12.0913 17.1907C12.0913 17.0858 12.0496 16.9852 11.9754 16.911C11.9013 16.8368 11.8007 16.7952 11.6958 16.7952Z" fill="#0957A8"/>
<path d="M7.62739 16.7952H5.59349C5.4886 16.7952 5.388 16.8368 5.31383 16.911C5.23967 16.9852 5.198 17.0858 5.198 17.1907C5.198 17.2956 5.23967 17.3961 5.31383 17.4703C5.388 17.5445 5.4886 17.5862 5.59349 17.5862H7.62739C7.73228 17.5862 7.83287 17.5445 7.90704 17.4703C7.98121 17.3961 8.02288 17.2956 8.02288 17.1907C8.02288 17.0858 7.98121 16.9852 7.90704 16.911C7.83287 16.8368 7.73228 16.7952 7.62739 16.7952Z" fill="#0957A8"/>
<path d="M15.7636 16.7952H13.7297C13.6248 16.7952 13.5242 16.8368 13.45 16.911C13.3758 16.9852 13.3342 17.0858 13.3342 17.1907C13.3342 17.2956 13.3758 17.3961 13.45 17.4703C13.5242 17.5445 13.6248 17.5862 13.7297 17.5862H15.7636C15.8684 17.5862 15.969 17.5445 16.0432 17.4703C16.1174 17.3961 16.1591 17.2956 16.1591 17.1907C16.1591 17.0858 16.1174 16.9852 16.0432 16.911C15.969 16.8368 15.8684 16.7952 15.7636 16.7952Z" fill="#0957A8"/>
<path d="M3.55958 16.7951H3.03226C2.99729 16.7951 2.96376 16.7812 2.93904 16.7565C2.91431 16.7318 2.90042 16.6983 2.90042 16.6633V16.136C2.90042 16.0311 2.85876 15.9305 2.78459 15.8563C2.71042 15.7821 2.60982 15.7405 2.50493 15.7405C2.40004 15.7405 2.29944 15.7821 2.22527 15.8563C2.1511 15.9305 2.10944 16.0311 2.10944 16.136V16.6633C2.10972 16.908 2.20703 17.1425 2.38003 17.3155C2.55303 17.4885 2.78759 17.5858 3.03226 17.5861H3.55958C3.66447 17.5861 3.76507 17.5445 3.83924 17.4703C3.91341 17.3961 3.95508 17.2955 3.95508 17.1906C3.95508 17.0857 3.91341 16.9851 3.83924 16.911C3.76507 16.8368 3.66447 16.7951 3.55958 16.7951Z" fill="#0957A8"/>
<path d="M2.50493 14.422C2.60982 14.422 2.71042 14.3804 2.78459 14.3062C2.85876 14.232 2.90042 14.1314 2.90042 14.0265V11.9172C2.90042 11.8123 2.85876 11.7117 2.78459 11.6376C2.71042 11.5634 2.60982 11.5217 2.50493 11.5217C2.40004 11.5217 2.29944 11.5634 2.22527 11.6376C2.1511 11.7117 2.10944 11.8123 2.10944 11.9172V14.0265C2.10944 14.1314 2.1511 14.232 2.22527 14.3062C2.29944 14.3804 2.40004 14.422 2.50493 14.422Z" fill="#0957A8"/>
<path d="M3.55958 8.35791H3.03226C2.78759 8.35819 2.55303 8.4555 2.38003 8.62851C2.20703 8.80151 2.10972 9.03607 2.10944 9.28073V9.80806C2.10944 9.91295 2.1511 10.0135 2.22527 10.0877C2.29944 10.1619 2.40004 10.2036 2.50493 10.2036C2.60982 10.2036 2.71042 10.1619 2.78459 10.0877C2.85876 10.0135 2.90042 9.91295 2.90042 9.80806V9.28073C2.90042 9.24577 2.91431 9.21223 2.93904 9.18751C2.96376 9.16279 2.99729 9.1489 3.03226 9.1489H3.55958C3.66447 9.1489 3.76507 9.10723 3.83924 9.03306C3.91341 8.95889 3.95508 8.8583 3.95508 8.7534C3.95508 8.64851 3.91341 8.54792 3.83924 8.47375C3.76507 8.39958 3.66447 8.35791 3.55958 8.35791Z" fill="#0957A8"/>
<path d="M13.7297 9.1489H15.7636C15.8684 9.1489 15.969 9.10723 16.0432 9.03306C16.1174 8.95889 16.1591 8.8583 16.1591 8.7534C16.1591 8.64851 16.1174 8.54792 16.0432 8.47375C15.969 8.39958 15.8684 8.35791 15.7636 8.35791H13.7297C13.6248 8.35791 13.5242 8.39958 13.45 8.47375C13.3758 8.54792 13.3342 8.64851 13.3342 8.7534C13.3342 8.8583 13.3758 8.95889 13.45 9.03306C13.5242 9.10723 13.6248 9.1489 13.7297 9.1489Z" fill="#0957A8"/>
<path d="M7.62739 8.35791H5.59349C5.4886 8.35791 5.388 8.39958 5.31383 8.47375C5.23967 8.54792 5.198 8.64851 5.198 8.7534C5.198 8.8583 5.23967 8.95889 5.31383 9.03306C5.388 9.10723 5.4886 9.1489 5.59349 9.1489H7.62739C7.73228 9.1489 7.83287 9.10723 7.90704 9.03306C7.98121 8.95889 8.02288 8.8583 8.02288 8.7534C8.02288 8.64851 7.98121 8.54792 7.90704 8.47375C7.83287 8.39958 7.73228 8.35791 7.62739 8.35791Z" fill="#0957A8"/>
<path d="M9.66136 9.1489H11.6958C11.8007 9.1489 11.9013 9.10723 11.9754 9.03306C12.0496 8.95889 12.0913 8.8583 12.0913 8.7534C12.0913 8.64851 12.0496 8.54792 11.9754 8.47375C11.9013 8.39958 11.8007 8.35791 11.6958 8.35791H9.66136C9.55647 8.35791 9.45588 8.39958 9.38171 8.47375C9.30754 8.54792 9.26587 8.64851 9.26587 8.7534C9.26587 8.8583 9.30754 8.95889 9.38171 9.03306C9.45588 9.10723 9.55647 9.1489 9.66136 9.1489Z" fill="#0957A8"/>
</svg>
