<svg width="28" height="28" viewBox="0 0 28 28" fill="none" xmlns="http://www.w3.org/2000/svg">
<path d="M8.69679 11.6097C8.60234 11.5153 8.47132 11.4609 8.33777 11.4609C8.20421 11.4609 8.07325 11.5152 7.97874 11.6097C7.88429 11.7042 7.82996 11.8352 7.82996 11.9687C7.82996 12.1023 7.88429 12.2333 7.97874 12.3277C8.0732 12.4222 8.20421 12.4766 8.33777 12.4766C8.47132 12.4766 8.60234 12.4222 8.69679 12.3277C8.79124 12.2333 8.84558 12.1023 8.84558 11.9687C8.84558 11.8352 8.79124 11.7042 8.69679 11.6097Z" fill="black"/>
<path d="M25.4763 1H5.26546C4.42544 1 3.74202 1.68341 3.74202 2.52343V10.9531C3.74202 11.7931 4.42544 12.4765 5.26546 12.4765H6.17951C6.45998 12.4765 6.68733 12.2491 6.68733 11.9687C6.68733 11.6883 6.45998 11.4609 6.17951 11.4609H5.26546C4.98545 11.4609 4.75765 11.2331 4.75765 10.9531V2.52343C4.75765 2.24342 4.98545 2.01562 5.26546 2.01562H25.4763C25.7563 2.01562 25.9841 2.24342 25.9841 2.52343V10.9531C25.9841 11.2331 25.7563 11.4609 25.4763 11.4609H22.0797C21.9451 11.4609 21.8159 11.5144 21.7206 11.6096L20.0485 13.2818L18.3763 11.6096C18.2811 11.5144 18.1519 11.4609 18.0172 11.4609H14.0571C14.0198 11.365 13.9776 11.2704 13.9298 11.1776C13.5662 10.4712 12.9473 9.95488 12.1872 9.72378L11.453 9.50054C11.1945 9.42183 10.9197 9.55955 10.8278 9.81361L9.67411 13.0021C9.35414 13.8865 8.72304 14.6212 7.89713 15.0709L6.81418 15.6606C6.54803 15.3375 6.14509 15.1312 5.69481 15.1312H2.4499C1.6504 15.1312 1 15.7817 1 16.5811V25.5499C0.999898 26.3494 1.65035 26.9999 2.44985 26.9999H5.69476C6.20023 26.9999 6.64584 26.7397 6.90543 26.3464L7.4236 26.5497C8.18542 26.8485 8.98669 27 9.80513 27H16.6569C17.685 27 18.5213 26.1636 18.5213 25.1356C18.5213 24.7953 18.4293 24.4763 18.2694 24.2014C19.0257 23.9637 19.5759 23.2561 19.5759 22.4223C19.5759 22.0734 19.4793 21.7467 19.3119 21.4671C20.036 21.211 20.5563 20.5198 20.5563 19.7091C20.5563 18.8646 19.9917 18.1498 19.2203 17.9214C19.3772 17.6484 19.4674 17.3325 19.4674 16.9957C19.4674 15.9677 18.631 15.1313 17.603 15.1313H13.5309L14.1004 13.4406C14.2068 13.1245 14.2572 12.7995 14.2538 12.4766H17.8069L19.6894 14.3591C19.7886 14.4582 19.9185 14.5078 20.0485 14.5078C20.1784 14.5078 20.3084 14.4582 20.4076 14.3591L22.2901 12.4765H25.4763C26.3163 12.4765 26.9997 11.7931 26.9997 10.9531V2.52343C26.9997 1.68341 26.3163 1 25.4763 1ZM6.12909 25.5499C6.12904 25.7894 5.93424 25.9843 5.69476 25.9843H2.44985C2.21037 25.9843 2.01557 25.7894 2.01557 25.5499V16.5812C2.01557 16.3417 2.21037 16.1469 2.44985 16.1469H3.56449V22.3991C3.56449 22.6795 3.79184 22.9069 4.0723 22.9069C4.35277 22.9069 4.58011 22.6795 4.58011 22.3991V16.1469H5.69476C5.88443 16.1469 6.04566 16.2693 6.10471 16.4391C6.10893 16.4637 6.11502 16.4881 6.12305 16.5122C6.12665 16.5347 6.12909 16.5576 6.12909 16.5812V25.5499ZM17.603 16.1468C18.0711 16.1468 18.4518 16.5276 18.4518 16.9957C18.4518 17.4637 18.0711 17.8445 17.603 17.8445H14.8481C14.5676 17.8445 14.3403 18.0719 14.3403 18.3523C14.3403 18.6328 14.5676 18.8602 14.8481 18.8602L18.6919 18.8603C19.16 18.8603 19.5407 19.241 19.5407 19.7091C19.5407 20.1771 19.16 20.5579 18.6919 20.5579H14.8481C14.5676 20.5579 14.3403 20.7853 14.3403 21.0657C14.3403 21.3461 14.5676 21.5735 14.8481 21.5735H17.7115C18.1796 21.5735 18.5603 21.9543 18.5603 22.4223C18.5603 22.8904 18.1796 23.2711 17.7115 23.2711H14.8481C14.5676 23.2711 14.3403 23.4985 14.3403 23.779C14.3403 24.0594 14.5676 24.2868 14.8481 24.2868H16.657C17.125 24.2868 17.5058 24.6676 17.5058 25.1356C17.5058 25.6037 17.125 25.9844 16.657 25.9844H9.80513C9.11415 25.9844 8.43765 25.8565 7.7944 25.6042L7.14466 25.3494V16.6371L8.38275 15.9629C9.42686 15.3943 10.2246 14.4656 10.6291 13.3477L11.6187 10.6125L11.8917 10.6955C12.3868 10.846 12.7899 11.1823 13.0268 11.6424C13.2636 12.1025 13.3031 12.626 13.1379 13.1164L12.3428 15.4769C12.2906 15.6319 12.3163 15.8025 12.4116 15.9353C12.507 16.0681 12.6605 16.1468 12.8241 16.1468H17.603Z" fill="#48494A" stroke="#48494A" stroke-width="0.4"/>
<path d="M24.6741 5.92447C24.5779 5.62872 24.3269 5.41722 24.0191 5.37258L23.1209 5.24233L22.719 4.42856C22.5812 4.14973 22.3026 3.97656 21.9916 3.97656C21.9916 3.97656 21.9915 3.97656 21.9914 3.97656C21.6804 3.97666 21.4017 4.14998 21.2641 4.42892L20.8627 5.24294L19.9644 5.3737C19.6567 5.41854 19.4058 5.63015 19.3098 5.926C19.2137 6.2218 19.2925 6.54045 19.5153 6.75754L20.1654 7.39088L20.0122 8.28549C19.9597 8.5921 20.0834 8.89603 20.3351 9.07884C20.4773 9.18208 20.6435 9.23448 20.811 9.23448C20.94 9.23448 21.0697 9.20335 21.1895 9.14033L21.9928 8.71773L22.7963 9.13988C23.0716 9.2845 23.399 9.26079 23.6506 9.07787C23.9022 8.89496 24.0257 8.59093 23.973 8.28437L23.8194 7.38986L24.4692 6.75611C24.6917 6.53887 24.7703 6.22022 24.6741 5.92447ZM23.0332 6.73783C22.842 6.92425 22.7549 7.19273 22.8001 7.45593L22.9018 8.04814L22.3697 7.76854C22.1332 7.64453 21.8511 7.64453 21.6149 7.76884L21.083 8.04864L21.1845 7.45638C21.2295 7.19308 21.1423 6.92466 20.951 6.73834L20.5205 6.31899L21.1152 6.23241C21.3795 6.19397 21.6078 6.02802 21.7258 5.78853L21.9917 5.24959L22.2578 5.78838C22.376 6.02781 22.6044 6.19361 22.8687 6.23195L23.4634 6.31818L23.0332 6.73783Z" fill="#0957A8"/>
<path d="M18.214 5.92447C18.1178 5.62872 17.8669 5.41727 17.559 5.37258L16.6608 5.24233L16.2589 4.42856C16.1212 4.14973 15.8425 3.97656 15.5315 3.97656C15.5315 3.97656 15.5314 3.97656 15.5313 3.97656C15.2203 3.97666 14.9416 4.14998 14.804 4.42897L14.4026 5.24294L13.5044 5.3737C13.1966 5.41854 12.9457 5.63015 12.8497 5.926C12.7537 6.2218 12.8324 6.54045 13.0552 6.75754L13.7053 7.39088L13.5521 8.28549C13.4996 8.5921 13.6233 8.89608 13.875 9.07884C14.0171 9.18208 14.1835 9.23448 14.3509 9.23448C14.4799 9.23448 14.6095 9.20335 14.7293 9.14033L15.5326 8.71773L16.3362 9.13988C16.6115 9.2845 16.9388 9.26079 17.1905 9.07787C17.442 8.89496 17.5656 8.59093 17.5129 8.28437L17.3592 7.38986L18.0091 6.75611C18.2317 6.53887 18.3102 6.22027 18.214 5.92447ZM16.5731 6.73783C16.3819 6.92425 16.2948 7.19273 16.34 7.45593L16.4417 8.04814L15.9096 7.76859C15.6731 7.64443 15.3909 7.64458 15.1547 7.76884L14.6229 8.04864L14.7243 7.45638C14.7694 7.19308 14.6821 6.92466 14.4908 6.73834L14.0604 6.31899L14.655 6.23241C14.9193 6.19397 15.1475 6.02807 15.2657 5.78848L15.5315 5.24954L15.7976 5.78828C15.9158 6.02776 16.1442 6.19361 16.4085 6.23195L17.0032 6.31818L16.5731 6.73783Z" fill="#0957A8"/>
<path d="M11.7541 5.92447C11.6578 5.62872 11.4069 5.41722 11.0991 5.37258L10.2009 5.24233L9.79895 4.42856C9.66123 4.14973 9.3826 3.97656 9.07162 3.97656C9.07157 3.97656 9.07146 3.97656 9.07141 3.97656C8.76038 3.97666 8.48164 4.14998 8.34408 4.42897L7.94265 5.24294L7.04444 5.3737C6.7366 5.41854 6.48579 5.6302 6.38972 5.92605C6.29369 6.22185 6.37245 6.5405 6.59523 6.75754L7.24533 7.39088L7.09212 8.28549C7.03961 8.5921 7.16337 8.89608 7.41504 9.07884C7.55717 9.18208 7.72348 9.23448 7.89091 9.23448C8.01989 9.23448 8.14953 9.20335 8.26933 9.14033L9.07263 8.71773L9.87614 9.13988C10.1515 9.2845 10.4788 9.26079 10.7304 9.07787C10.982 8.89496 11.1055 8.59093 11.0529 8.28437L10.8992 7.38986L11.5491 6.75611C11.7717 6.53887 11.8503 6.22027 11.7541 5.92447ZM10.1132 6.73783C9.922 6.92425 9.83491 7.19273 9.8801 7.45593L9.98182 8.04814L9.44968 7.76859C9.21324 7.64443 8.93095 7.64458 8.69482 7.76884L8.16299 8.04864L8.26445 7.45623C8.30944 7.19303 8.22215 6.92471 8.03091 6.73834L7.60044 6.31899L8.19508 6.23241C8.45935 6.19397 8.68761 6.02807 8.80583 5.78848L9.07162 5.24954L9.33766 5.78828C9.45588 6.02776 9.68429 6.19361 9.94861 6.23195L10.5434 6.31818L10.1132 6.73783Z" fill="#0957A8"/>
<path d="M4.07226 23.7173C3.7918 23.7173 3.56445 23.9447 3.56445 24.2251V24.233C3.56445 24.5134 3.7918 24.7408 4.07226 24.7408C4.35273 24.7408 4.58007 24.5134 4.58007 24.233V24.2251C4.58007 23.9447 4.35273 23.7173 4.07226 23.7173Z" fill="black"/>
</svg>
