<svg width="27" height="32" viewBox="0 0 27 32" fill="none" xmlns="http://www.w3.org/2000/svg">
<path d="M13.2947 20.8293C16.2429 20.8293 18.6414 18.4309 18.6414 15.4827C18.6414 12.5345 16.2429 10.136 13.2947 10.136C10.3465 10.136 7.948 12.5345 7.948 15.4827C7.948 18.4309 10.3465 20.8293 13.2947 20.8293ZM13.2947 10.8634C15.8418 10.8634 17.914 12.9355 17.914 15.4827C17.914 18.0297 15.8418 20.102 13.2947 20.102C10.7476 20.102 8.67537 18.0298 8.67537 15.4827C8.67537 12.9356 10.7476 10.8634 13.2947 10.8634Z" fill="#0957A8" stroke="#0957A8" stroke-width="0.5"/>
<path d="M15.0919 14.0011L14.9181 14.5943H11.6044L11.7783 14.0011H15.0919ZM13.5374 18L11.6658 15.7091L11.6556 15.2795H12.5863C12.8283 15.2795 13.0346 15.2455 13.205 15.1773C13.3755 15.1074 13.5059 15.0034 13.5962 14.8653C13.6866 14.7256 13.7317 14.55 13.7317 14.3386C13.7317 14.0267 13.638 13.7821 13.4505 13.6048C13.263 13.4259 12.9749 13.3364 12.5863 13.3364H11.6044L11.7783 12.7636H12.5863C13.0022 12.7636 13.3431 12.8327 13.609 12.9707C13.8766 13.1071 14.0743 13.2946 14.2022 13.5332C14.3317 13.7702 14.3965 14.0386 14.3965 14.3386C14.3965 14.6097 14.3368 14.8594 14.2175 15.0878C14.0999 15.3145 13.9107 15.4969 13.6499 15.6349C13.3908 15.773 13.0482 15.842 12.6221 15.842H12.6067L14.3351 17.9591V18H13.5374ZM15.0919 12.7636L14.9181 13.3568L12.3101 13.3364L12.484 12.7636H15.0919Z" fill="#0957A8"/>
<path d="M15.0919 14.0011L15.1879 14.0293L15.2255 13.9011H15.0919V14.0011ZM14.9181 14.5943V14.6943H14.993L15.014 14.6224L14.9181 14.5943ZM11.6044 14.5943L11.5085 14.5662L11.4709 14.6943H11.6044V14.5943ZM11.7783 14.0011V13.9011H11.7034L11.6823 13.973L11.7783 14.0011ZM13.5374 18L13.46 18.0633L13.49 18.1H13.5374V18ZM11.6658 15.7091L11.5658 15.7115L11.5667 15.7458L11.5884 15.7724L11.6658 15.7091ZM11.6556 15.2795V15.1795H11.5532L11.5556 15.2819L11.6556 15.2795ZM13.205 15.1773L13.2422 15.2701L13.243 15.2698L13.205 15.1773ZM13.5962 14.8653L13.6799 14.9201L13.6802 14.9196L13.5962 14.8653ZM13.4505 13.6048L13.3814 13.6772L13.3818 13.6775L13.4505 13.6048ZM11.6044 13.3364L11.5088 13.3073L11.4696 13.4364H11.6044V13.3364ZM11.7783 12.7636V12.6636H11.7042L11.6826 12.7346L11.7783 12.7636ZM13.609 12.9707L13.5629 13.0595L13.5636 13.0598L13.609 12.9707ZM14.2022 13.5332L14.114 13.5805L14.1144 13.5812L14.2022 13.5332ZM14.2175 15.0878L14.1289 15.0415L14.1288 15.0417L14.2175 15.0878ZM13.6499 15.6349L13.6031 15.5466L13.6029 15.5467L13.6499 15.6349ZM12.6067 15.842V15.742H12.396L12.5293 15.9053L12.6067 15.842ZM14.3351 17.9591H14.4351V17.9235L14.4126 17.8958L14.3351 17.9591ZM14.3351 18V18.1H14.4351V18H14.3351ZM15.0919 12.7636L15.1879 12.7918L15.2255 12.6636H15.0919V12.7636ZM14.9181 13.3568L14.9173 13.4568L14.9928 13.4574L15.014 13.3849L14.9181 13.3568ZM12.3101 13.3364L12.2144 13.3073L12.1756 13.4353L12.3093 13.4364L12.3101 13.3364ZM12.484 12.7636V12.6636H12.4098L12.3883 12.7346L12.484 12.7636ZM14.996 13.973L14.8221 14.5662L15.014 14.6224L15.1879 14.0293L14.996 13.973ZM14.9181 14.4943H11.6044V14.6943H14.9181V14.4943ZM11.7004 14.6224L11.8743 14.0293L11.6823 13.973L11.5085 14.5662L11.7004 14.6224ZM11.7783 14.1011H15.0919V13.9011H11.7783V14.1011ZM13.6148 17.9367L11.7433 15.6458L11.5884 15.7724L13.46 18.0633L13.6148 17.9367ZM11.7658 15.7067L11.7556 15.2772L11.5556 15.2819L11.5658 15.7115L11.7658 15.7067ZM11.6556 15.3795H12.5863V15.1795H11.6556V15.3795ZM12.5863 15.3795C12.8372 15.3795 13.0568 15.3443 13.2422 15.2701L13.1679 15.0844C13.0123 15.1466 12.8194 15.1795 12.5863 15.1795V15.3795ZM13.243 15.2698C13.4299 15.1932 13.5772 15.077 13.6799 14.9201L13.5125 14.8106C13.4345 14.9298 13.3211 15.0216 13.1671 15.0847L13.243 15.2698ZM13.6802 14.9196C13.7835 14.7598 13.8317 14.5641 13.8317 14.3386H13.6317C13.6317 14.5359 13.5896 14.6913 13.5122 14.8111L13.6802 14.9196ZM13.8317 14.3386C13.8317 14.0054 13.7307 13.7322 13.5192 13.5322L13.3818 13.6775C13.5452 13.832 13.6317 14.048 13.6317 14.3386H13.8317ZM13.5195 13.5325C13.306 13.3286 12.988 13.2364 12.5863 13.2364V13.4364C12.9618 13.4364 13.22 13.5231 13.3814 13.6772L13.5195 13.5325ZM12.5863 13.2364H11.6044V13.4364H12.5863V13.2364ZM11.7001 13.3654L11.874 12.7927L11.6826 12.7346L11.5088 13.3073L11.7001 13.3654ZM11.7783 12.8636H12.5863V12.6636H11.7783V12.8636ZM12.5863 12.8636C12.992 12.8636 13.3157 12.9311 13.5629 13.0595L13.6551 12.882C13.3705 12.7342 13.0123 12.6636 12.5863 12.6636V12.8636ZM13.5636 13.0598C13.8151 13.188 13.9969 13.3618 14.114 13.5805L14.2903 13.486C14.1518 13.2274 13.9381 13.0262 13.6544 12.8816L13.5636 13.0598ZM14.1144 13.5812C14.2351 13.8019 14.2965 14.0535 14.2965 14.3386H14.4965C14.4965 14.0238 14.4284 13.7385 14.2899 13.4853L14.1144 13.5812ZM14.2965 14.3386C14.2965 14.5944 14.2403 14.8281 14.1289 15.0415L14.3062 15.1341C14.4333 14.8906 14.4965 14.6249 14.4965 14.3386H14.2965ZM14.1288 15.0417C14.0219 15.2477 13.8488 15.4165 13.6031 15.5466L13.6967 15.7233C13.9726 15.5773 14.1779 15.3813 14.3063 15.1338L14.1288 15.0417ZM13.6029 15.5467C13.3633 15.6743 13.0387 15.742 12.6221 15.742V15.942C13.0577 15.942 13.4183 15.8717 13.6969 15.7232L13.6029 15.5467ZM12.6221 15.742H12.6067V15.942H12.6221V15.742ZM12.5293 15.9053L14.2577 18.0223L14.4126 17.8958L12.6842 15.7788L12.5293 15.9053ZM14.2351 17.9591V18H14.4351V17.9591H14.2351ZM14.3351 17.9H13.5374V18.1H14.3351V17.9ZM14.996 12.7355L14.8221 13.3287L15.014 13.3849L15.1879 12.7918L14.996 12.7355ZM14.9189 13.2568L12.3109 13.2364L12.3093 13.4364L14.9173 13.4568L14.9189 13.2568ZM12.4058 13.3654L12.5797 12.7927L12.3883 12.7346L12.2144 13.3073L12.4058 13.3654ZM12.484 12.8636H15.0919V12.6636H12.484V12.8636Z" fill="#0957A8"/>
<path d="M21.4144 6.56124C21.289 6.40437 21.0602 6.37872 20.9033 6.50412C20.7464 6.62947 20.7208 6.85835 20.8462 7.01526L21.2109 7.47181H18.8981C18.6972 7.47181 18.5344 7.6346 18.5344 7.8355C18.5344 8.03639 18.6972 8.19918 18.8981 8.19918H21.2109L20.8462 8.65573C20.7208 8.81264 20.7463 9.04152 20.9033 9.16687C21.0612 9.293 21.2899 9.26565 21.4144 9.10975L22.2511 8.06248C22.3572 7.92971 22.3572 7.74123 22.2511 7.60846L21.4144 6.56124Z" fill="#0957A8" stroke="#0957A8" stroke-width="0.5"/>
<path d="M5.41341 25.4391C5.53842 25.5956 5.76716 25.622 5.92456 25.4962C6.08148 25.3709 6.10708 25.142 5.98168 24.9851L5.61693 24.5286H7.92967C8.13057 24.5286 8.29336 24.3658 8.29336 24.1649C8.29336 23.964 8.13057 23.8012 7.92967 23.8012H5.61688L5.98163 23.3446C6.10703 23.1877 6.08148 22.9588 5.92451 22.8335C5.76754 22.7081 5.53866 22.7336 5.41336 22.8906L4.57664 23.9379C4.47055 24.0707 4.47055 24.2591 4.57664 24.3919L5.41341 25.4391Z" fill="#0957A8" stroke="#0957A8" stroke-width="0.5"/>
<path d="M3.88306 27.6474H11.4581C11.659 27.6474 11.8218 27.4846 11.8218 27.2837C11.8218 27.0828 11.659 26.92 11.4581 26.92H4.00662V26.0283C4.00662 25.8809 3.91759 25.748 3.78123 25.6919C3.64473 25.6357 3.4881 25.6677 3.38438 25.7725L1.10514 28.0765C0.964953 28.2181 0.964953 28.4463 1.10514 28.588L3.38438 30.8919C3.48752 30.9962 3.64429 31.0288 3.78123 30.9724C3.91759 30.9164 4.00662 30.7835 4.00662 30.6361V29.7444H11.4581C11.659 29.7444 11.8218 29.5816 11.8218 29.3807C11.8218 29.1798 11.659 29.017 11.4581 29.017H3.88306C3.55012 29.017 3.27925 29.2879 3.27925 29.6208V29.7513L1.87528 28.3321L3.27925 26.913V27.0435C3.27925 27.3765 3.55012 27.6474 3.88306 27.6474Z" fill="#48494A" stroke="#48494A" stroke-width="0.5"/>
<path d="M13.2946 8.35449C9.36396 8.35449 6.16626 11.5522 6.16626 15.4828C6.16626 16.9169 6.59056 18.2998 7.39323 19.482C7.50607 19.6482 7.73228 19.6914 7.89841 19.5786C8.06459 19.4658 8.1078 19.2396 7.99501 19.0735C7.27448 18.0123 6.89363 16.7707 6.89363 15.4828C6.89363 11.9533 9.76508 9.08186 13.2946 9.08186C16.824 9.08186 19.6955 11.9533 19.6955 15.4828C19.6955 19.0123 16.824 21.8837 13.2946 21.8837C11.6476 21.8837 10.083 21.2595 8.88884 20.1261C8.74317 19.9877 8.51294 19.9937 8.37469 20.1394C8.23639 20.2851 8.24236 20.5153 8.38807 20.6536C9.71799 21.9159 11.4604 22.6111 13.2946 22.6111C17.2251 22.6111 20.4228 19.4134 20.4228 15.4828C20.4228 11.5522 17.2251 8.35449 13.2946 8.35449Z" fill="#48494A" stroke="#48494A" stroke-width="0.5"/>
<path d="M25.7224 3.41187L23.4432 1.108C23.3395 1.00316 23.1828 0.97116 23.0463 1.02741C22.91 1.08347 22.8209 1.21633 22.8209 1.36379V2.25545H21.1437C20.9428 2.25545 20.78 2.41824 20.78 2.61914C20.78 2.82004 20.9428 2.98282 21.1437 2.98282H22.9445C23.2774 2.98282 23.5483 2.71195 23.5483 2.37906V2.24857L24.9523 3.66771L23.5483 5.08681V4.95637C23.5483 4.62343 23.2774 4.35256 22.9445 4.35256H15.3694C15.1685 4.35256 15.0057 4.51534 15.0057 4.71624C15.0057 4.91714 15.1685 5.07993 15.3694 5.07993H22.8209V5.97158C22.8209 6.11905 22.91 6.25186 23.0463 6.30797C23.1835 6.36446 23.3402 6.33149 23.4432 6.22738L25.7224 3.92355C25.8626 3.78172 25.8626 3.55357 25.7224 3.41187Z" fill="#48494A" stroke="#48494A" stroke-width="0.5"/>
<path d="M15.3694 5.05208H19.6896C19.8905 5.05208 20.0533 4.88929 20.0533 4.68839C20.0533 4.48749 19.8905 4.32471 19.6896 4.32471H15.3694C15.1685 4.32471 15.0057 4.48749 15.0057 4.68839C15.0057 4.88929 15.1686 5.05208 15.3694 5.05208Z" fill="#48494A" stroke="#48494A" stroke-width="0.5"/>
</svg>
