<svg width="26" height="26" viewBox="0 0 26 26" fill="none" xmlns="http://www.w3.org/2000/svg">
<g clip-path="url(#clip0_265_737)">
<path d="M25.4583 11.9167H22.1433C21.7718 10.74 20.7291 9.90234 19.5 9.79332V1.625C19.5 0.727543 18.7725 0 17.875 0H1.625C0.727543 0 0 0.727543 0 1.625V13C0 13.8975 0.727543 14.625 1.625 14.625H6.5V15.7083C6.5 16.0075 6.74253 16.25 7.04168 16.25H7.58337V25.4583C7.58337 25.7575 7.8259 26 8.12505 26H24.375C24.6742 26 24.9167 25.7575 24.9167 25.4583V16.25H25.4584C25.7576 16.25 26.0001 16.0075 26.0001 15.7083V12.4583C26 12.1592 25.7575 11.9167 25.4583 11.9167ZM18.9583 10.8333C19.7849 10.7854 20.5688 11.2036 20.9896 11.9166H16.9271C17.3478 11.2036 18.1318 10.7854 18.9583 10.8333ZM7.04168 11.9167C6.74253 11.9167 6.5 12.1592 6.5 12.4584V13.5417H1.625C1.32585 13.5417 1.08332 13.2992 1.08332 13V1.625C1.08332 1.32585 1.32585 1.08332 1.625 1.08332H17.875C18.1742 1.08332 18.4167 1.32585 18.4167 1.625V9.79332C17.5716 9.89635 16.7971 10.3165 16.25 10.9688C15.5767 10.1755 14.5819 9.72786 13.5417 9.75C11.9709 9.75 10.66 10.6817 10.3567 11.9167H7.04168ZM15.5729 11.9167H11.5104C11.9312 11.2036 12.7151 10.7855 13.5417 10.8334C14.3682 10.7854 15.1522 11.2036 15.5729 11.9167ZM14.0833 24.9167H8.66668V16.25H14.0834L14.0833 24.9167ZM17.3333 24.9167H15.1666V16.25H17.3333V24.9167ZM23.8333 24.9167H18.4167V16.25H23.8334L23.8333 24.9167ZM24.9167 15.1667H7.58332V13H24.9166L24.9167 15.1667Z" fill="#48494A" stroke="#48494A" stroke-width="0.4"/>
<path d="M4.875 7.58325C5.77246 7.58325 6.5 6.85571 6.5 5.95825C6.5 5.06079 5.77246 4.33325 4.875 4.33325C3.97754 4.33325 3.25 5.06079 3.25 5.95825C3.25 6.85571 3.97754 7.58325 4.875 7.58325ZM4.875 5.41662C5.17415 5.41662 5.41668 5.65915 5.41668 5.9583C5.41668 6.25746 5.17415 6.49999 4.875 6.49999C4.57585 6.49999 4.33332 6.25746 4.33332 5.9583C4.33332 5.6591 4.57585 5.41662 4.875 5.41662Z" fill="#0957A8"/>
<path d="M8.125 7.58325C7.22754 7.58325 6.5 8.31079 6.5 9.20825C6.5 10.1057 7.22754 10.8333 8.125 10.8333C9.02246 10.8333 9.75 10.1057 9.75 9.20825C9.75 8.31079 9.02246 7.58325 8.125 7.58325ZM8.125 9.74994C7.82585 9.74994 7.58332 9.5074 7.58332 9.20825C7.58332 8.9091 7.82585 8.66657 8.125 8.66657C8.42415 8.66657 8.66668 8.9091 8.66668 9.20825C8.66668 9.5074 8.42415 9.74994 8.125 9.74994Z" fill="#0957A8"/>
<path d="M8.57986 4.74039L3.93006 9.39019C3.71854 9.60172 3.71854 9.94467 3.93006 10.1562C4.14159 10.3677 4.48455 10.3677 4.69608 10.1562L9.34587 5.5064C9.5574 5.29488 9.5574 4.95192 9.34587 4.74039C9.13434 4.52886 8.79139 4.52886 8.57986 4.74039Z" fill="#0957A8" stroke="#0957A8" stroke-width="0.4"/>
<path d="M16.7917 2.16675H14.625C14.3258 2.16675 14.0833 2.40926 14.0833 2.70841C14.0833 3.00756 14.3258 3.25006 14.625 3.25006H16.7917C17.0908 3.25006 17.3333 3.00756 17.3333 2.70841C17.3333 2.40926 17.0908 2.16675 16.7917 2.16675Z" fill="#0957A8" stroke="#0957A8" stroke-width="0.4"/>
<path d="M16.7917 4.33325H14.625C14.3258 4.33325 14.0833 4.57576 14.0833 4.87491C14.0833 5.17406 14.3258 5.41657 14.625 5.41657H16.7917C17.0908 5.41657 17.3333 5.17406 17.3333 4.87491C17.3333 4.57576 17.0908 4.33325 16.7917 4.33325Z" fill="#0957A8" stroke="#0957A8" stroke-width="0.4"/>
<path d="M2.16669 2.70841C2.16669 3.00756 2.4092 3.25006 2.70835 3.25006C3.00749 3.25006 3.25 3.00756 3.25 2.70841C3.25 2.40926 3.00749 2.16675 2.70835 2.16675C2.4092 2.16675 2.16669 2.40926 2.16669 2.70841Z" fill="#0957A8" stroke="#0957A8" stroke-width="0.4"/>
</g>
<defs>
<clipPath id="clip0_265_737">
<rect width="26" height="26" fill="white"/>
</clipPath>
</defs>
</svg>
