<svg width="26" height="26" viewBox="0 0 26 26" fill="none" xmlns="http://www.w3.org/2000/svg">
<path d="M5.41667 22.5506V23.2916C5.41667 23.7226 5.58787 24.1359 5.89262 24.4406C6.19736 24.7454 6.61069 24.9166 7.04167 24.9166C7.47264 24.9166 7.88597 24.7454 8.19072 24.4406C8.49546 24.1359 8.66667 23.7226 8.66667 23.2916V22.7499H17.3333V23.2916C17.3333 23.7226 17.5045 24.1359 17.8093 24.4406C18.114 24.7454 18.5274 24.9166 18.9583 24.9166C19.3893 24.9166 19.8026 24.7454 20.1074 24.4406C20.4121 24.1359 20.5833 23.7226 20.5833 23.2916V22.5506C21.2148 22.3273 21.7619 21.9144 22.1497 21.3683C22.5376 20.8223 22.7472 20.1697 22.75 19.4999V4.33325C22.75 3.4713 22.4076 2.64465 21.7981 2.03515C21.1886 1.42566 20.362 1.08325 19.5 1.08325H6.5C5.63805 1.08325 4.8114 1.42566 4.2019 2.03515C3.59241 2.64465 3.25 3.4713 3.25 4.33325V19.4999C3.25278 20.1697 3.46242 20.8223 3.85026 21.3683C4.2381 21.9144 4.78518 22.3273 5.41667 22.5506ZM20.5833 14.0833H5.41667V7.58325H20.5833V14.0833ZM20.5833 19.4999C20.5833 19.7872 20.4692 20.0628 20.266 20.266C20.0629 20.4691 19.7873 20.5833 19.5 20.5833H6.5C6.21268 20.5833 5.93713 20.4691 5.73397 20.266C5.5308 20.0628 5.41667 19.7872 5.41667 19.4999V16.2499H20.5833V19.4999ZM5.41667 4.33325C5.41667 4.04593 5.5308 3.77038 5.73397 3.56722C5.93713 3.36406 6.21268 3.24992 6.5 3.24992H19.5C19.7873 3.24992 20.0629 3.36406 20.266 3.56722C20.4692 3.77038 20.5833 4.04593 20.5833 4.33325V5.41659H5.41667V4.33325Z" fill="#48494A" stroke="white" stroke-width="0.5"/>
<path d="M7.58333 19.4999C8.18164 19.4999 8.66667 19.0149 8.66667 18.4166C8.66667 17.8183 8.18164 17.3333 7.58333 17.3333C6.98502 17.3333 6.5 17.8183 6.5 18.4166C6.5 19.0149 6.98502 19.4999 7.58333 19.4999Z" fill="#0957A8"/>
<path d="M18.4167 19.4999C19.015 19.4999 19.5 19.0149 19.5 18.4166C19.5 17.8183 19.015 17.3333 18.4167 17.3333C17.8184 17.3333 17.3334 17.8183 17.3334 18.4166C17.3334 19.0149 17.8184 19.4999 18.4167 19.4999Z" fill="#0957A8"/>
</svg>
