<svg width="26" height="25" viewBox="0 0 26 25" fill="none" xmlns="http://www.w3.org/2000/svg">
<path d="M13 14.7993C12.724 14.7993 12.5 14.5753 12.5 14.2993V6.29932C12.5 6.02332 12.724 5.79932 13 5.79932C13.276 5.79932 13.5 6.02332 13.5 6.29932V14.2993C13.5 14.5753 13.276 14.7993 13 14.7993Z" fill="#48494A" stroke="#48494A" stroke-width="0.3"/>
<path d="M10.94 8.20944C10.783 8.20944 10.627 8.13545 10.531 7.99645C10.184 7.50045 10 6.91345 10 6.29945C10 5.68544 10.184 5.09844 10.531 4.60244C10.689 4.37444 11.001 4.32244 11.227 4.47944C11.453 4.63744 11.508 4.94944 11.349 5.17544C11.121 5.50344 11 5.89145 11 6.29945C11 6.70745 11.121 7.09545 11.35 7.42345C11.509 7.64945 11.454 7.96145 11.228 8.11945C11.14 8.18045 11.04 8.20944 10.94 8.20944Z" fill="#0957A8" stroke="#0957A8" stroke-width="0.3"/>
<path d="M15.0595 8.20944C14.9595 8.20944 14.8605 8.18045 14.7725 8.11945C14.5465 7.96145 14.4915 7.64945 14.6505 7.42345C14.8785 7.09545 14.9995 6.70745 14.9995 6.29945C14.9995 5.89145 14.8785 5.50344 14.6495 5.17544C14.4905 4.94944 14.5455 4.63744 14.7715 4.47944C14.9985 4.32244 15.3105 4.37444 15.4675 4.60244C15.8155 5.09844 15.9995 5.68544 15.9995 6.29945C15.9995 6.91345 15.8155 7.50045 15.4685 7.99645C15.3715 8.13545 15.2165 8.20944 15.0595 8.20944Z" fill="#0957A8" stroke="#0957A8" stroke-width="0.3"/>
<path d="M8.46 9.90956C8.301 9.90956 8.144 9.83356 8.047 9.69156C7.362 8.68656 7 7.51356 7 6.29956C7 5.08556 7.362 3.91256 8.047 2.90756C8.203 2.67856 8.517 2.62256 8.741 2.77656C8.97 2.93156 9.028 3.24256 8.873 3.47156C8.302 4.30956 8 5.28756 8 6.29956C8 7.31156 8.302 8.28956 8.873 9.12756C9.028 9.35656 8.97 9.66756 8.741 9.82256C8.655 9.88156 8.558 9.90956 8.46 9.90956Z" fill="#0957A8" stroke="#0957A8" stroke-width="0.3"/>
<path d="M17.5398 9.90934C17.4418 9.90934 17.3448 9.88134 17.2588 9.82234C17.0298 9.66734 16.9718 9.35634 17.1268 9.12734C17.6978 8.28934 17.9998 7.31134 17.9998 6.29934C17.9998 5.28734 17.6978 4.30934 17.1268 3.47134C16.9718 3.24234 17.0298 2.93134 17.2588 2.77634C17.4858 2.62334 17.7978 2.67934 17.9528 2.90734C18.6378 3.91234 18.9998 5.08534 18.9998 6.29934C18.9998 7.51334 18.6378 8.68634 17.9528 9.69134C17.8558 9.83234 17.6988 9.90934 17.5398 9.90934Z" fill="#0957A8" stroke="#0957A8" stroke-width="0.3"/>
<path d="M5.99 11.5994C5.831 11.5994 5.675 11.5234 5.578 11.3824C4.546 9.87844 4 8.12144 4 6.29944C4 4.47744 4.546 2.72044 5.578 1.21644C5.734 0.988435 6.046 0.932435 6.273 1.08744C6.501 1.24344 6.558 1.55444 6.402 1.78244C5.485 3.11843 5 4.68044 5 6.29944C5 7.91844 5.485 9.48043 6.402 10.8164C6.558 11.0444 6.501 11.3554 6.273 11.5114C6.187 11.5704 6.088 11.5994 5.99 11.5994Z" fill="#0957A8" stroke="#0957A8" stroke-width="0.3"/>
<path d="M20.0096 11.5994C19.9116 11.5994 19.8136 11.5714 19.7266 11.5114C19.4986 11.3554 19.4416 11.0444 19.5976 10.8164C20.5146 9.48043 20.9996 7.91844 20.9996 6.29944C20.9996 4.68044 20.5146 3.11843 19.5976 1.78244C19.4416 1.55444 19.4986 1.24344 19.7266 1.08744C19.9556 0.932435 20.2666 0.988435 20.4216 1.21644C21.4536 2.72044 21.9996 4.47744 21.9996 6.29944C21.9996 8.12144 21.4536 9.87844 20.4216 11.3824C20.3246 11.5234 20.1686 11.5994 20.0096 11.5994Z" fill="#0957A8" stroke="#0957A8" stroke-width="0.3"/>
<path d="M22.5 22.7993H3.5C2.121 22.7993 1 21.6773 1 20.2993V16.2993C1 14.9213 2.121 13.7993 3.5 13.7993H22.5C23.879 13.7993 25 14.9213 25 16.2993V20.2993C25 21.6773 23.879 22.7993 22.5 22.7993ZM3.5 14.7993C2.673 14.7993 2 15.4723 2 16.2993V20.2993C2 21.1263 2.673 21.7993 3.5 21.7993H22.5C23.327 21.7993 24 21.1263 24 20.2993V16.2993C24 15.4723 23.327 14.7993 22.5 14.7993H3.5Z" fill="#48494A" stroke="#48494A" stroke-width="0.3"/>
<path d="M4.5 24.7993C4.224 24.7993 4 24.5753 4 24.2993V22.2993C4 22.0233 4.224 21.7993 4.5 21.7993C4.776 21.7993 5 22.0233 5 22.2993V24.2993C5 24.5753 4.776 24.7993 4.5 24.7993Z" fill="#48494A" stroke="#48494A" stroke-width="0.3"/>
<path d="M21.5 24.7993C21.224 24.7993 21 24.5753 21 24.2993V22.2993C21 22.0233 21.224 21.7993 21.5 21.7993C21.776 21.7993 22 22.0233 22 22.2993V24.2993C22 24.5753 21.776 24.7993 21.5 24.7993Z" fill="#48494A" stroke="#48494A" stroke-width="0.3"/>
<path d="M20.5 19.7993C19.673 19.7993 19 19.1263 19 18.2993C19 17.4723 19.673 16.7993 20.5 16.7993C21.327 16.7993 22 17.4723 22 18.2993C22 19.1263 21.327 19.7993 20.5 19.7993ZM20.5 17.7993C20.225 17.7993 20 18.0233 20 18.2993C20 18.5753 20.225 18.7993 20.5 18.7993C20.775 18.7993 21 18.5753 21 18.2993C21 18.0233 20.775 17.7993 20.5 17.7993Z" fill="#0957A8" stroke="#0957A8" stroke-width="0.3"/>
<path d="M5.5 19.7993C4.673 19.7993 4 19.1263 4 18.2993C4 17.4723 4.673 16.7993 5.5 16.7993C6.327 16.7993 7 17.4723 7 18.2993C7 19.1263 6.327 19.7993 5.5 19.7993ZM5.5 17.7993C5.225 17.7993 5 18.0233 5 18.2993C5 18.5753 5.225 18.7993 5.5 18.7993C5.775 18.7993 6 18.5753 6 18.2993C6 18.0233 5.775 17.7993 5.5 17.7993Z" fill="#48494A" stroke="#48494A" stroke-width="0.3"/>
<path d="M10.5 19.7993C9.673 19.7993 9 19.1263 9 18.2993C9 17.4723 9.673 16.7993 10.5 16.7993C11.327 16.7993 12 17.4723 12 18.2993C12 19.1263 11.327 19.7993 10.5 19.7993ZM10.5 17.7993C10.225 17.7993 10 18.0233 10 18.2993C10 18.5753 10.225 18.7993 10.5 18.7993C10.775 18.7993 11 18.5753 11 18.2993C11 18.0233 10.775 17.7993 10.5 17.7993Z" fill="#48494A" stroke="#48494A" stroke-width="0.3"/>
</svg>
