<svg width="28" height="28" viewBox="0 0 28 28" fill="none" xmlns="http://www.w3.org/2000/svg">
<path d="M22.4854 1.75H5.61042C5.0496 1.75418 4.51318 1.9799 4.11809 2.37795C3.72301 2.776 3.5013 3.31409 3.5013 3.87492C3.50131 4.43575 3.72302 4.97384 4.11811 5.37189C4.5132 5.76993 5.04963 5.99564 5.61044 5.99982H8.12563V9.48785L3.95184 16.4434C3.59875 17.0368 3.4115 17.714 3.40967 18.4045V25.8125C3.4119 25.9271 3.45898 26.0362 3.54079 26.1164C3.6226 26.1966 3.7326 26.2415 3.84718 26.2415C3.96176 26.2415 4.07176 26.1966 4.15356 26.1164C4.23537 26.0361 4.28244 25.927 4.28467 25.8125V18.4045C4.28632 17.8718 4.43091 17.3493 4.70336 16.8916L8.12561 11.1885V16.9314L6.64905 18.9001C6.58213 18.993 6.55435 19.1086 6.57167 19.2218C6.58899 19.335 6.65004 19.4369 6.74169 19.5056C6.83334 19.5743 6.94828 19.6043 7.06182 19.5892C7.17536 19.5741 7.27844 19.515 7.3489 19.4247L12.0255 13.1895C12.0861 13.1036 12.1693 13.0361 12.2658 12.9944C12.3623 12.9526 12.4684 12.9383 12.5725 12.953C12.6766 12.9676 12.7747 13.0107 12.8559 13.0774C12.9371 13.1442 12.9984 13.232 13.033 13.3313C13.1251 13.6992 13.1281 14.0838 13.0416 14.4531C12.9551 14.8224 12.7816 15.1657 12.5356 15.4543C11.366 17.2208 10.4915 18.6709 10.4785 20.7975C10.4641 21.377 10.3289 21.9471 10.0815 22.4713C9.83418 22.9956 9.48014 23.4624 9.04206 23.842C8.95838 23.92 8.90854 24.0276 8.9032 24.1419C8.89787 24.2561 8.93745 24.3679 9.0135 24.4533C9.08954 24.5387 9.196 24.591 9.31009 24.5989C9.42418 24.6068 9.53684 24.5698 9.62397 24.4957C10.1531 24.0349 10.5802 23.4687 10.878 22.8334C11.1758 22.198 11.3378 21.5075 11.3535 20.806C11.3565 20.2945 11.4212 19.7853 11.5463 19.2893H14.3524C14.3315 20.6599 13.908 21.9942 13.1346 23.126C12.848 23.4966 12.692 23.9516 12.6907 24.4201V25.8125C12.6907 25.9285 12.7368 26.0398 12.8189 26.1219C12.9009 26.2039 13.0122 26.25 13.1282 26.25C13.2443 26.25 13.3555 26.2039 13.4376 26.1219C13.5196 26.0398 13.5657 25.9285 13.5657 25.8125V24.4201C13.5678 24.1418 13.6619 23.8721 13.8332 23.6528C14.7192 22.3682 15.2044 20.8497 15.2273 19.2893H19.1114C19.3393 19.2885 19.5576 19.1973 19.7184 19.0358C19.8791 18.8742 19.9692 18.6555 19.9689 18.4276V5.99982H22.4854C25.2801 5.92235 25.3044 1.8398 22.4854 1.75ZM9.49964 15.0995L9.00061 15.7648V4.31259L9.49964 4.31262V15.0995ZM13.2679 15.9337C13.5886 15.5359 13.8099 15.0673 13.9135 14.5669C14.017 14.0665 13.9999 13.5487 13.8635 13.0562C13.7748 12.8086 13.6209 12.5895 13.4181 12.4222C13.2153 12.2548 12.971 12.1452 12.7111 12.1052C12.4511 12.0651 12.1852 12.0959 11.9414 12.1945C11.6975 12.293 11.4848 12.4555 11.3257 12.6649L10.3746 13.9329V4.31262H17.7245V16.4426C17.4543 16.5581 17.2396 16.7741 17.1255 17.045H12.5572C12.7724 16.6933 13.0086 16.3299 13.2679 15.9337ZM14.8175 18.4143H11.8384C11.9078 18.2487 11.985 18.0836 12.0676 17.92H17.475C17.5325 17.92 17.5894 17.9087 17.6425 17.8867C17.6956 17.8648 17.7438 17.8325 17.7845 17.7919C17.8251 17.7513 17.8573 17.703 17.8793 17.6499C17.9013 17.5969 17.9126 17.5399 17.9125 17.4825C17.912 17.4158 17.938 17.3516 17.9848 17.304C18.0316 17.2564 18.0953 17.2293 18.1621 17.2287C18.2195 17.2287 18.2764 17.2174 18.3295 17.1955C18.3826 17.1735 18.4309 17.1413 18.4715 17.1006C18.5121 17.06 18.5443 17.0118 18.5663 16.9587C18.5883 16.9056 18.5996 16.8487 18.5996 16.7912V4.31262H19.0944C19.0945 4.32426 19.0959 5.55836 19.0959 5.56816L19.1114 18.4143H14.8175ZM23.3723 4.75737C23.1369 4.99239 22.818 5.12452 22.4854 5.12481H19.9689V4.31262H20.7981C20.9142 4.31262 21.0255 4.26653 21.1075 4.18448C21.1895 4.10243 21.2356 3.99115 21.2356 3.87512C21.2356 3.75909 21.1895 3.64781 21.1075 3.56576C21.0255 3.48371 20.9142 3.43762 20.7981 3.43762H7.29804C7.18352 3.43992 7.07447 3.48702 6.99429 3.56882C6.91412 3.65062 6.86921 3.76059 6.86921 3.87513C6.86922 3.98967 6.91413 4.09965 6.99431 4.18144C7.07449 4.26324 7.18355 4.31033 7.29806 4.31262H8.12561V5.12482H5.61042C5.27933 5.1242 4.96201 4.99224 4.72812 4.7579C4.49422 4.52357 4.36285 4.206 4.36285 3.87491C4.36285 3.54382 4.49422 3.22625 4.72812 2.99192C4.96201 2.75758 5.27933 2.62562 5.61042 2.625H22.4854C22.7307 2.62873 22.9696 2.70409 23.1727 2.84182C23.3758 2.97954 23.5342 3.17362 23.6284 3.40018C23.7227 3.62675 23.7486 3.87592 23.7031 4.11705C23.6576 4.35817 23.5426 4.58074 23.3723 4.75737Z" fill="#48494A"/>
<path d="M11.7119 9.35937C11.8101 12.4465 16.2863 12.4462 16.3839 9.35932C16.286 6.27225 11.8095 6.27334 11.7119 9.35937ZM12.5869 9.35932C12.5913 8.97471 12.7471 8.60735 13.0206 8.33693C13.2942 8.06651 13.6633 7.91484 14.0479 7.91485C14.4325 7.91485 14.8016 8.06652 15.0751 8.33695C15.3486 8.60737 15.5045 8.97474 15.5089 9.35934C15.5045 9.74394 15.3486 10.1113 15.0751 10.3817C14.8016 10.6522 14.4325 10.8038 14.0479 10.8038C13.6632 10.8038 13.2941 10.6521 13.0206 10.3817C12.7471 10.1113 12.5913 9.74392 12.5869 9.35932Z" fill="#0957A8"/>
</svg>
