<svg width="23" height="23" viewBox="0 0 23 23" fill="none" xmlns="http://www.w3.org/2000/svg">
<path d="M7.99994 0.52002V1.52003H4.47997C3.39997 1.52003 2.47998 2.40002 2.47998 3.52001C2.47998 4.60001 3.35998 5.43997 4.43997 5.47996C9.27993 5.52002 14.1599 5.52004 18.9999 5.52004C19.5999 5.52004 19.9999 5.88006 19.9999 6.24006C19.9999 6.64005 19.5999 7.00005 18.9999 7.00005H0.999993C0.439997 6.99999 0 7.47996 0 7.99995V13.9999C0 14.6399 0.999993 14.6399 0.999993 13.9999V7.99995H21.9998V19.9999H0.999993V16.9999C0.999993 16.3599 0 16.3599 0 16.9999V19.9999C0 20.5599 0.439997 20.9999 0.999993 20.9999H9.51993V21.9999C8.99993 21.9999 8.47994 21.9999 7.95994 21.9999C7.27995 22.0399 7.35995 23.0398 7.99994 22.9998H14.9999C15.6799 23.0399 15.6799 21.9999 14.9999 21.9999H13.4799V20.9999H21.9998C22.5598 20.9999 22.9998 20.5599 22.9998 19.9999V7.99995C22.9998 7.47996 22.5598 6.99999 21.9998 6.99999H20.7998C20.9198 6.8 20.9998 6.51999 20.9998 6.24C20.9998 5.24 20.0399 4.51997 18.9999 4.51997H4.47997C3.91997 4.51997 3.47997 4.08 3.47997 3.52001C3.47997 2.96001 3.91997 2.51999 4.47997 2.51999H7.99994V3.52001C7.99994 4.2 8.99993 4.2 8.99993 3.52001H10.5199C11.1999 3.52001 11.1999 2.47999 10.5199 2.51999H8.99993C8.99993 2.15999 8.99993 1.84003 8.99993 1.52003H10.5199C11.1599 1.52003 11.1599 0.52002 10.5199 0.52002H8.99993C8.99993 0.240032 8.75993 0 8.47994 0C8.19994 0 7.99994 0.240032 7.99994 0.52002ZM10.5199 20.9999H12.4799V21.9999H10.5199V20.9999Z" fill="#48494A"/>
<path d="M2 9.99996C2 9.43996 2.44 9 2.95999 9H11.5199C12.1999 9 12.1999 10.04 11.5199 9.99996H2.99999V16.9999H19.9999V9.99996H15.7599C15.0799 10.0399 15.0799 9 15.7599 9H20.0399C20.5599 9 20.9999 9.43996 20.9999 9.99996V17.0399C20.9999 17.5599 20.5599 17.9999 20.0399 17.9999H2.95999C2.44 17.9999 2 17.5599 2 17.0399V9.99996Z" fill="#0957A8"/>
<path d="M2.47996 19.5198C1.83996 19.5198 1.79996 18.5598 2.43996 18.5198H2.99995C3.63995 18.5198 3.63995 19.4797 2.99995 19.5198H2.47996Z" fill="#0957A8"/>
<path d="M4.63997 12.6398L6.15996 11.1598C6.63996 10.6798 7.35995 11.3599 6.83996 11.8798L5.35997 13.3598C4.87997 13.9198 4.07998 13.1198 4.63997 12.6398Z" fill="#48494A"/>
<path d="M14.1599 12.1598L15.1599 11.1598C15.6399 10.6398 16.3599 11.3599 15.8399 11.8798L14.8399 12.8799C14.3999 13.3598 13.6399 12.6398 14.1599 12.1598Z" fill="#48494A"/>
<path d="M14.6399 14.6398L16.1599 13.1598C16.6799 12.5998 17.3999 13.3198 16.8399 13.8798L15.3599 15.3598C14.8799 15.8398 14.1599 15.1198 14.6399 14.6398Z" fill="#48494A"/>
<path d="M5.63997 14.6398L6.63996 13.6398C7.19996 13.1199 7.87995 13.8398 7.35995 14.3598L6.35996 15.3598C5.87997 15.9198 5.07997 15.1198 5.63997 14.6398Z" fill="#48494A"/>
</svg>
