<svg width="28" height="28" viewBox="0 0 28 28" fill="none" xmlns="http://www.w3.org/2000/svg">
<g clip-path="url(#clip0_1012_718)">
<path d="M1.53125 23.4594H26.4688C27.3503 23.4594 28.1 22.6679 28.1 21.7075V7.01127C28.1 6.05086 27.3503 5.25937 26.4688 5.25937H1.53125C0.6497 5.25937 -0.1 6.05086 -0.1 7.01127V21.7075C-0.1 22.6679 0.649699 23.4594 1.53125 23.4594ZM0.75625 7.01127C0.75625 6.54996 1.09809 6.19988 1.53125 6.19988H26.4688C26.8512 6.19988 27.2437 6.55401 27.2437 7.01127V21.7075C27.2437 22.1647 26.8512 22.5189 26.4688 22.5189H1.53125C1.09809 22.5189 0.75625 22.1688 0.75625 21.7075V7.01127Z" fill="#48494A" stroke="#48494A" stroke-width="0.2"/>
<path fill-rule="evenodd" clip-rule="evenodd" d="M2.8438 22.6407C2.78911 22.6407 2.67974 22.586 2.62505 22.586C2.51567 22.4766 2.46099 22.2579 2.57036 22.0938C4.10161 19.6876 6.3438 17.5548 9.29692 15.8048C11.6485 14.3829 14.4375 13.2345 17.5547 12.3048C22.8047 10.7735 27.5079 10.3907 27.7266 10.4454C27.8907 10.5001 28 10.6641 28 10.8829C27.9454 11.047 27.7813 11.1563 27.6172 11.1016C27.125 11.1016 22.586 11.4845 17.5547 13.0157C12.8516 14.4376 6.45317 17.2266 3.11724 22.4766C3.06255 22.586 2.95317 22.6407 2.8438 22.6407Z" fill="#48494A"/>
<path fill-rule="evenodd" clip-rule="evenodd" d="M2.84375 22.6406C2.73438 22.6406 2.625 22.5859 2.57031 22.5312C2.46094 22.3672 2.46094 22.1484 2.57031 22.0391C9.51562 15.3672 21.3828 14.4922 25.8125 14.1094C26.5234 14.0547 27.125 14 27.3984 14C27.3984 13.9453 27.3984 13.9453 27.3984 13.9453C27.5625 13.8359 27.7812 13.8359 27.8906 13.9453C28 14.0547 28 14.2188 28 14.3281C27.8906 14.6016 27.6172 14.6562 27.1797 14.6562C26.9062 14.7109 26.4141 14.7656 25.8672 14.8203C21.4922 15.1484 9.78906 16.0234 3.0625 22.5312C3.00781 22.5859 2.89844 22.6406 2.84375 22.6406Z" fill="#48494A"/>
<path fill-rule="evenodd" clip-rule="evenodd" d="M22.9141 9.89844H20.5078C19.8516 9.89844 19.3047 9.35156 19.3047 8.69531C19.3047 7.98438 19.8516 7.4375 20.5078 7.4375H22.9141C23.5703 7.4375 24.1172 7.98438 24.1172 8.69531C24.1172 9.35156 23.5703 9.89844 22.9141 9.89844ZM20.5078 8.09375C20.1797 8.09375 19.9609 8.36719 19.9609 8.69531C19.9609 8.96875 20.1797 9.24219 20.5078 9.24219H22.9141C23.1875 9.24219 23.4609 8.96875 23.4609 8.69531C23.4609 8.36719 23.1875 8.09375 22.9141 8.09375H20.5078Z" fill="#0957A8"/>
<path fill-rule="evenodd" clip-rule="evenodd" d="M22.9688 19.0859H20.4531C20.2344 19.0859 20.0703 18.9219 20.0703 18.7578C20.0703 18.5391 20.2344 18.4297 20.4531 18.4297H22.9688C23.1875 18.4297 23.2969 18.5391 23.2969 18.7578C23.2969 18.9219 23.1875 19.0859 22.9688 19.0859Z" fill="#0957A8"/>
<path fill-rule="evenodd" clip-rule="evenodd" d="M22.9688 20.5625H20.4531C20.2344 20.5625 20.0703 20.3984 20.0703 20.2344C20.0703 20.0156 20.2344 19.9062 20.4531 19.9062H22.9688C23.1875 19.9062 23.2969 20.0156 23.2969 20.2344C23.2969 20.3984 23.1875 20.5625 22.9688 20.5625Z" fill="#0957A8"/>
<path fill-rule="evenodd" clip-rule="evenodd" d="M6.67188 15.5859C4.26562 15.5859 2.35156 13.6719 2.35156 11.2656C2.35156 8.91406 4.26562 7 6.67188 7C9.02344 7 10.9922 8.91406 10.9922 11.2656C10.9922 13.6719 9.02344 15.5859 6.67188 15.5859ZM6.67188 7.65625C4.64844 7.65625 3.00781 9.29688 3.00781 11.2656C3.00781 13.2891 4.64844 14.9297 6.67188 14.9297C8.64062 14.9297 10.2812 13.2891 10.2812 11.2656C10.2812 9.29688 8.64062 7.65625 6.67188 7.65625Z" fill="#0957A8"/>
<path d="M8.09195 10.0011L7.91808 10.5943H4.60445L4.77831 10.0011H8.09195ZM6.5374 14L4.66581 11.7091L4.65558 11.2795H5.58627C5.82831 11.2795 6.03456 11.2455 6.20502 11.1773C6.37547 11.1074 6.50587 11.0034 6.59621 10.8653C6.68655 10.7256 6.73172 10.55 6.73172 10.3386C6.73172 10.0267 6.63797 9.7821 6.45047 9.60483C6.26297 9.42585 5.9749 9.33636 5.58627 9.33636H4.60445L4.77831 8.76364H5.58627C6.00218 8.76364 6.34308 8.83267 6.60899 8.97074C6.87661 9.1071 7.07433 9.2946 7.20218 9.53324C7.33172 9.77017 7.39649 10.0386 7.39649 10.3386C7.39649 10.6097 7.33683 10.8594 7.21752 11.0878C7.0999 11.3145 6.9107 11.4969 6.6499 11.6349C6.39081 11.773 6.0482 11.842 5.62206 11.842H5.60672L7.33513 13.9591V14H6.5374ZM8.09195 8.76364L7.91808 9.35682L5.31013 9.33636L5.48399 8.76364H8.09195Z" fill="#0957A8"/>
<path d="M8.09195 10.0011L8.18791 10.0293L8.22547 9.90114H8.09195V10.0011ZM7.91808 10.5943V10.6943H7.99298L8.01405 10.6224L7.91808 10.5943ZM4.60445 10.5943L4.50848 10.5662L4.47093 10.6943H4.60445V10.5943ZM4.77831 10.0011V9.90114H4.70341L4.68235 9.97301L4.77831 10.0011ZM6.5374 14L6.45996 14.0633L6.48997 14.1H6.5374V14ZM4.66581 11.7091L4.56584 11.7115L4.56666 11.7458L4.58837 11.7724L4.66581 11.7091ZM4.65558 11.2795V11.1795H4.55317L4.55561 11.2819L4.65558 11.2795ZM6.20502 11.1773L6.24216 11.2701L6.24295 11.2698L6.20502 11.1773ZM6.59621 10.8653L6.67989 10.9201L6.68019 10.9196L6.59621 10.8653ZM6.45047 9.60483L6.38142 9.67717L6.38177 9.67749L6.45047 9.60483ZM4.60445 9.33636L4.50876 9.30732L4.46958 9.43636H4.60445V9.33636ZM4.77831 8.76364V8.66364H4.70416L4.68262 8.73459L4.77831 8.76364ZM6.60899 8.97074L6.56291 9.05949L6.56359 9.05984L6.60899 8.97074ZM7.20218 9.53324L7.11402 9.58046L7.11443 9.58121L7.20218 9.53324ZM7.21752 11.0878L7.12888 11.0415L7.12875 11.0417L7.21752 11.0878ZM6.6499 11.6349L6.60311 11.5466L6.60287 11.5467L6.6499 11.6349ZM5.60672 11.842V11.742H5.39598L5.52926 11.9053L5.60672 11.842ZM7.33513 13.9591H7.43513V13.9235L7.41259 13.8958L7.33513 13.9591ZM7.33513 14V14.1H7.43513V14H7.33513ZM8.09195 8.76364L8.18791 8.79176L8.22547 8.66364H8.09195V8.76364ZM7.91808 9.35682L7.9173 9.45681L7.99281 9.45741L8.01405 9.38494L7.91808 9.35682ZM5.31013 9.33636L5.21444 9.30732L5.17559 9.43531L5.30935 9.43636L5.31013 9.33636ZM5.48399 8.76364V8.66364H5.40984L5.38831 8.73459L5.48399 8.76364ZM7.99599 9.97301L7.82212 10.5662L8.01405 10.6224L8.18791 10.0293L7.99599 9.97301ZM7.91808 10.4943H4.60445V10.6943H7.91808V10.4943ZM4.70041 10.6224L4.87427 10.0293L4.68235 9.97301L4.50848 10.5662L4.70041 10.6224ZM4.77831 10.1011H8.09195V9.90114H4.77831V10.1011ZM6.61484 13.9367L4.74325 11.6458L4.58837 11.7724L6.45996 14.0633L6.61484 13.9367ZM4.76578 11.7067L4.75556 11.2772L4.55561 11.2819L4.56584 11.7115L4.76578 11.7067ZM4.65558 11.3795H5.58627V11.1795H4.65558V11.3795ZM5.58627 11.3795C5.8372 11.3795 6.05678 11.3443 6.24216 11.2701L6.16788 11.0844C6.01234 11.1466 5.81943 11.1795 5.58627 11.1795V11.3795ZM6.24295 11.2698C6.42985 11.1932 6.5772 11.077 6.67989 10.9201L6.51253 10.8106C6.43454 10.9298 6.32109 11.0216 6.16708 11.0847L6.24295 11.2698ZM6.68019 10.9196C6.78348 10.7598 6.83172 10.5641 6.83172 10.3386H6.63172C6.63172 10.5359 6.58962 10.6913 6.51222 10.8111L6.68019 10.9196ZM6.83172 10.3386C6.83172 10.0054 6.73074 9.73219 6.51917 9.53216L6.38177 9.67749C6.5452 9.83201 6.63172 10.048 6.63172 10.3386H6.83172ZM6.51952 9.53249C6.30595 9.32864 5.98802 9.23636 5.58627 9.23636V9.43636C5.96179 9.43636 6.21999 9.52307 6.38142 9.67716L6.51952 9.53249ZM5.58627 9.23636H4.60445V9.43636H5.58627V9.23636ZM4.70014 9.36541L4.874 8.79268L4.68262 8.73459L4.50876 9.30732L4.70014 9.36541ZM4.77831 8.86364H5.58627V8.66364H4.77831V8.86364ZM5.58627 8.86364C5.99202 8.86364 6.31568 8.93112 6.56291 9.05949L6.65507 8.88199C6.37049 8.73422 6.01233 8.66364 5.58627 8.66364V8.86364ZM6.56359 9.05984C6.81509 9.18799 6.99687 9.36177 7.11403 9.58046L7.29032 9.48602C7.1518 9.22743 6.93812 9.02621 6.65439 8.88164L6.56359 9.05984ZM7.11443 9.58121C7.23507 9.80185 7.29649 10.0535 7.29649 10.3386H7.49649C7.49649 10.0238 7.42837 9.73849 7.28992 9.48526L7.11443 9.58121ZM7.29649 10.3386C7.29649 10.5944 7.24035 10.8281 7.12888 11.0415L7.30615 11.1341C7.43332 10.8906 7.49649 10.6249 7.49649 10.3386H7.29649ZM7.12875 11.0417C7.0219 11.2477 6.84882 11.4165 6.60311 11.5466L6.69669 11.7233C6.97258 11.5773 7.17791 11.3813 7.30628 11.1338L7.12875 11.0417ZM6.60287 11.5467C6.36332 11.6743 6.03869 11.742 5.62206 11.742V11.942C6.0577 11.942 6.4183 11.8717 6.69693 11.7232L6.60287 11.5467ZM5.62206 11.742H5.60672V11.942H5.62206V11.742ZM5.52926 11.9053L7.25767 14.0223L7.41259 13.8958L5.68418 11.7788L5.52926 11.9053ZM7.23513 13.9591V14H7.43513V13.9591H7.23513ZM7.33513 13.9H6.5374V14.1H7.33513V13.9ZM7.99599 8.73551L7.82212 9.32869L8.01405 9.38494L8.18791 8.79176L7.99599 8.73551ZM7.91887 9.25682L5.31091 9.23637L5.30935 9.43636L7.9173 9.45681L7.91887 9.25682ZM5.40582 9.36541L5.57968 8.79268L5.38831 8.73459L5.21444 9.30732L5.40582 9.36541ZM5.48399 8.86364H8.09195V8.66364H5.48399V8.86364Z" fill="#0957A8"/>
</g>
<defs>
<clipPath id="clip0_1012_718">
<rect width="28" height="28" fill="white"/>
</clipPath>
</defs>
</svg>
