<svg width="18" height="26" viewBox="0 0 18 26" fill="none" xmlns="http://www.w3.org/2000/svg">
<path d="M12 1H6C4.67441 1.00159 3.40356 1.52888 2.46622 2.46622C1.52888 3.40356 1.00159 4.67441 1 6V20C1.00159 21.3256 1.52888 22.5964 2.46622 23.5338C3.40356 24.4711 4.67441 24.9984 6 25H12C13.3256 24.9984 14.5964 24.4711 15.5338 23.5338C16.4711 22.5964 16.9984 21.3256 17 20V6C16.9984 4.67441 16.4711 3.40356 15.5338 2.46622C14.5964 1.52888 13.3256 1.00159 12 1ZM6 3H12C12.7956 3 13.5587 3.31607 14.1213 3.87868C14.6839 4.44129 15 5.20435 15 6V17H3V6C3 5.20435 3.31607 4.44129 3.87868 3.87868C4.44129 3.31607 5.20435 3 6 3ZM12 23H6C5.20435 23 4.44129 22.6839 3.87868 22.1213C3.31607 21.5587 3 20.7956 3 20V19H15V20C15 20.7956 14.6839 21.5587 14.1213 22.1213C13.5587 22.6839 12.7956 23 12 23Z" fill="#48494A" stroke="white" stroke-width="0.6"/>
<path d="M9 22C9.55228 22 10 21.5523 10 21C10 20.4477 9.55228 20 9 20C8.44772 20 8 20.4477 8 21C8 21.5523 8.44772 22 9 22Z" fill="#0957A8"/>
</svg>
