<svg width="18" height="18" viewBox="0 0 18 18" fill="none" xmlns="http://www.w3.org/2000/svg">
<path d="M0.666667 15.6667H17.3333V17.3333H0.666667V15.6667ZM2.33333 9H4V14.8333H2.33333V9ZM6.5 9H8.16667V14.8333H6.5V9ZM9.83333 9H11.5V14.8333H9.83333V9ZM14 9H15.6667V14.8333H14V9ZM0.666667 4.83333L9 0.666666L17.3333 4.83333V8.16667H0.666667V4.83333ZM2.33333 5.86667V6.5H15.6667V5.86667L9 2.53333L2.33333 5.86667ZM9 5.66667C8.76667 5.66667 8.56667 5.58889 8.4 5.43333C8.24444 5.26667 8.16667 5.06667 8.16667 4.83333C8.16667 4.6 8.24444 4.40556 8.4 4.25C8.56667 4.08333 8.76667 4 9 4C9.23333 4 9.42778 4.08333 9.58333 4.25C9.75 4.40556 9.83333 4.6 9.83333 4.83333C9.83333 5.06667 9.75 5.26667 9.58333 5.43333C9.42778 5.58889 9.23333 5.66667 9 5.66667Z" fill="url(#paint0_linear_416_6730)"/>
<defs>
<linearGradient id="paint0_linear_416_6730" x1="9" y1="-1" x2="9" y2="19" gradientUnits="userSpaceOnUse">
<stop stop-color="#046FBD"/>
<stop offset="1" stop-color="#2189F4"/>
</linearGradient>
</defs>
</svg>
