<svg width="19" height="19" viewBox="0 0 19 19" fill="none" xmlns="http://www.w3.org/2000/svg">
<path d="M15.013 11.7376C14.6251 11.3337 14.1572 11.1177 13.6613 11.1177C13.1695 11.1177 12.6976 11.3297 12.2937 11.7336L11.03 12.9933C10.926 12.9373 10.822 12.8853 10.722 12.8333C10.5781 12.7613 10.4421 12.6933 10.3261 12.6213C9.14241 11.8695 8.06666 10.8898 7.03491 9.62205C6.53502 8.9902 6.1991 8.45833 5.95516 7.91846C6.28308 7.61853 6.58701 7.3066 6.88294 7.00667C6.99492 6.8947 7.10689 6.77873 7.21886 6.66675C8.05867 5.82695 8.05867 4.73921 7.21886 3.8994L6.12712 2.80766C6.00315 2.68369 5.87518 2.55572 5.75521 2.42775C5.51527 2.17981 5.26332 1.92387 5.00339 1.68393C4.61548 1.30002 4.15159 1.09607 3.6637 1.09607C3.17582 1.09607 2.70393 1.30002 2.30402 1.68393C2.30002 1.68793 2.30002 1.68793 2.29602 1.69193L0.936345 3.0636C0.424465 3.57548 0.132534 4.19933 0.0685492 4.92316C-0.0274282 6.09089 0.316491 7.17863 0.580428 7.89046C1.22828 9.63805 2.19605 11.2577 3.63971 12.9933C5.39129 15.0848 7.4988 16.7364 9.90623 17.9001C10.826 18.336 12.0537 18.8519 13.4254 18.9399C13.5094 18.9439 13.5974 18.9479 13.6773 18.9479C14.6011 18.9479 15.3769 18.6159 15.9848 17.9561C15.9888 17.9481 15.9968 17.9441 16.0008 17.9361C16.2087 17.6842 16.4487 17.4562 16.7006 17.2123C16.8726 17.0483 17.0485 16.8763 17.2205 16.6964C17.6164 16.2845 17.8244 15.8046 17.8244 15.3127C17.8244 14.8168 17.6124 14.3409 17.2085 13.941L15.013 11.7376ZM16.4447 15.9486C16.4407 15.9486 16.4407 15.9526 16.4447 15.9486C16.2887 16.1165 16.1288 16.2685 15.9568 16.4364C15.6969 16.6844 15.4329 16.9443 15.185 17.2363C14.7811 17.6682 14.3052 17.8721 13.6813 17.8721C13.6214 17.8721 13.5574 17.8721 13.4974 17.8681C12.3097 17.7921 11.2059 17.3282 10.3781 16.9323C8.11465 15.8366 6.12712 14.281 4.47551 12.3094C3.11183 10.6658 2.20005 9.14617 1.59619 7.51455C1.22428 6.51879 1.08831 5.74297 1.14829 5.01114C1.18829 4.54325 1.36824 4.15534 1.70016 3.82342L3.06384 2.45974C3.2598 2.27579 3.46775 2.17581 3.6717 2.17581C3.92364 2.17581 4.12759 2.32778 4.25556 2.45575C4.25956 2.45974 4.26356 2.46374 4.26756 2.46774C4.5115 2.69569 4.74345 2.93163 4.98739 3.18357C5.11136 3.31154 5.23933 3.43951 5.3673 3.57148L6.45904 4.66322C6.88294 5.08712 6.88294 5.47903 6.45904 5.90293C6.34307 6.01891 6.2311 6.13488 6.11512 6.24685C5.7792 6.59077 5.45928 6.91069 5.11136 7.22262C5.10336 7.23062 5.09536 7.23462 5.09137 7.24262C4.74745 7.58654 4.81143 7.92246 4.88341 8.1504C4.88741 8.1624 4.89141 8.1744 4.89541 8.18639C5.17934 8.87423 5.57925 9.52208 6.18711 10.2939L6.19111 10.2979C7.29485 11.6576 8.45857 12.7173 9.74227 13.5291C9.90623 13.6331 10.0742 13.7171 10.2342 13.7971C10.3781 13.8691 10.5141 13.937 10.6301 14.009C10.6461 14.017 10.6621 14.029 10.678 14.037C10.814 14.105 10.942 14.137 11.074 14.137C11.4059 14.137 11.6138 13.929 11.6818 13.8611L13.0495 12.4934C13.1855 12.3574 13.4014 12.1934 13.6533 12.1934C13.9013 12.1934 14.1052 12.3494 14.2292 12.4854C14.2332 12.4894 14.2332 12.4894 14.2372 12.4934L16.4407 14.6969C16.8526 15.1048 16.8526 15.5247 16.4447 15.9486Z" fill="#807A7A" stroke="#807A7A" stroke-width="0.1"/>
<path d="M10.2781 4.50725C11.3259 4.68321 12.2777 5.17909 13.0375 5.93891C13.7973 6.69873 14.2892 7.65051 14.4691 8.69826C14.5131 8.9622 14.7411 9.14616 15.001 9.14616C15.033 9.14616 15.061 9.14216 15.093 9.13816C15.3889 9.09017 15.5849 8.81024 15.5369 8.51431C15.3209 7.2466 14.7211 6.09088 13.8053 5.17509C12.8895 4.25931 11.7338 3.65945 10.4661 3.4435C10.1702 3.39551 9.89422 3.59147 9.84223 3.8834C9.79024 4.17533 9.9822 4.45926 10.2781 4.50725Z" fill="#807A7A"/>
<path d="M18.9641 8.35826C18.6082 6.27075 17.6245 4.3712 16.1128 2.85956C14.6012 1.34791 12.7016 0.364147 10.6141 0.00823065C10.3222 -0.0437571 10.0462 0.156196 9.99426 0.448127C9.94627 0.744057 10.1422 1.01999 10.4382 1.07198C12.3017 1.38791 14.0013 2.2717 15.353 3.61938C16.7047 4.97106 17.5845 6.67066 17.9004 8.53422C17.9444 8.79816 18.1723 8.98211 18.4323 8.98211C18.4643 8.98211 18.4923 8.97812 18.5242 8.97412C18.8162 8.93013 19.0161 8.65019 18.9641 8.35826Z" fill="#807A7A"/>
</svg>
