<svg width="18" height="18" viewBox="0 0 18 18" fill="none" xmlns="http://www.w3.org/2000/svg">
<path d="M9 17.3333C7.48889 17.3333 6.08889 16.9556 4.8 16.2C3.54444 15.4556 2.54444 14.4556 1.8 13.2C1.04444 11.9111 0.666667 10.5111 0.666667 9C0.666667 7.48889 1.04444 6.08889 1.8 4.8C2.54444 3.54444 3.54444 2.54444 4.8 1.8C6.08889 1.04444 7.48889 0.666666 9 0.666666C10.5111 0.666666 11.9111 1.04444 13.2 1.8C14.4556 2.54444 15.4556 3.54444 16.2 4.8C16.9556 6.08889 17.3333 7.48889 17.3333 9C17.3333 10.5111 16.9556 11.9111 16.2 13.2C15.4556 14.4556 14.4556 15.4556 13.2 16.2C11.9111 16.9556 10.5111 17.3333 9 17.3333ZM9 15.6667C10.2111 15.6667 11.3333 15.3611 12.3667 14.75C13.3667 14.1611 14.1611 13.3667 14.75 12.3667C15.3611 11.3333 15.6667 10.2111 15.6667 9C15.6667 7.78889 15.3611 6.66667 14.75 5.63333C14.1611 4.63333 13.3667 3.83889 12.3667 3.25C11.3333 2.63889 10.2111 2.33333 9 2.33333C7.78889 2.33333 6.66667 2.63889 5.63333 3.25C4.63333 3.83889 3.83889 4.63333 3.25 5.63333C2.63889 6.66667 2.33333 7.78889 2.33333 9C2.33333 10.2111 2.63889 11.3333 3.25 12.3667C3.83889 13.3667 4.63333 14.1611 5.63333 14.75C6.66667 15.3611 7.78889 15.6667 9 15.6667ZM4.83333 6.5L7.33333 3.58333L9.83333 6.5H8.16667V9.83333H6.5V6.5H4.83333ZM13.1667 11.5L10.6667 14.4167L8.16667 11.5H9.83333V8.16667H11.5V11.5H13.1667Z" fill="url(#paint0_linear_416_6729)"/>
<defs>
<linearGradient id="paint0_linear_416_6729" x1="9" y1="-4" x2="9" y2="21" gradientUnits="userSpaceOnUse">
<stop stop-color="#046FBD"/>
<stop offset="1" stop-color="#2189F4"/>
</linearGradient>
</defs>
</svg>
