<svg width="20" height="20" viewBox="0 0 20 20" fill="none" xmlns="http://www.w3.org/2000/svg">
<path d="M0.75 0.833333H15.4167C15.93 0.833333 16.3639 1.01055 16.7183 1.365C17.0728 1.71944 17.25 2.15333 17.25 2.66667V17.3333C17.25 17.8467 17.0728 18.2806 16.7183 18.635C16.3639 18.9894 15.93 19.1667 15.4167 19.1667H0.75V0.833333ZM4.41667 2.66667H2.58333V17.3333H4.41667V2.66667ZM6.25 17.3333H15.4167V2.66667H6.25V17.3333ZM8.08333 13.6667C8.08333 13.1656 8.20556 12.7072 8.45 12.2917C8.69444 11.8639 9.02444 11.5278 9.44 11.2833C9.86778 11.0389 10.3322 10.9167 10.8333 10.9167C11.3344 10.9167 11.7928 11.0389 12.2083 11.2833C12.6361 11.5278 12.9722 11.8639 13.2167 12.2917C13.4611 12.7072 13.5833 13.1656 13.5833 13.6667H8.08333ZM10.8333 10C10.3322 10 9.89833 9.82278 9.53167 9.46833C9.17722 9.10167 9 8.66778 9 8.16667C9 7.66556 9.17722 7.23778 9.53167 6.88333C9.89833 6.51667 10.3322 6.33333 10.8333 6.33333C11.3344 6.33333 11.7622 6.51667 12.1167 6.88333C12.4833 7.23778 12.6667 7.66556 12.6667 8.16667C12.6667 8.66778 12.4833 9.10167 12.1167 9.46833C11.7622 9.82278 11.3344 10 10.8333 10ZM18.1667 4.5H20V8.16667H18.1667V4.5ZM18.1667 10H20V13.6667H18.1667V10Z" fill="url(#paint0_linear_100_8675)"/>
<defs>
<linearGradient id="paint0_linear_100_8675" x1="9" y1="-1" x2="9" y2="22" gradientUnits="userSpaceOnUse">
<stop stop-color="#046FBD"/>
<stop offset="1" stop-color="#2189F4"/>
</linearGradient>
</defs>
</svg>
