<svg width="26" height="25" viewBox="0 0 26 25" fill="none" xmlns="http://www.w3.org/2000/svg">
<path d="M6.25058 19.7224C5.87544 19.3472 5.37669 19.1407 4.84625 19.1407C4.53289 19.1407 4.23083 19.2133 3.95853 19.3496C1.28276 15.5587 1.27348 10.3637 3.98117 6.56356C4.13136 6.35272 4.08223 6.06003 3.87139 5.90979C3.66055 5.75956 3.36786 5.80868 3.21762 6.01953C1.72404 8.11574 0.957822 10.5911 1.00179 13.178C1.04365 15.6398 1.81662 17.9752 3.24073 19.9576C2.67486 20.7339 2.74184 21.8309 3.44192 22.531C3.82911 22.9182 4.33766 23.1118 4.84625 23.1118C5.35485 23.1118 5.86339 22.9182 6.25058 22.531C7.02491 21.7567 7.02491 20.4968 6.25058 19.7224ZM5.58763 21.8681C5.17874 22.2769 4.51363 22.2769 4.10483 21.8681C3.69598 21.4592 3.69598 20.794 4.10483 20.3852C4.30288 20.1872 4.56617 20.0781 4.84621 20.0781C5.12624 20.0781 5.38958 20.1872 5.58758 20.3852C5.99647 20.7941 5.99647 21.4593 5.58763 21.8681Z" fill="#48494A" stroke="#48494A" stroke-width="0.3"/>
<path d="M20.1232 22.0548C19.9718 21.845 19.6788 21.7977 19.4689 21.9494C18.1288 22.9177 16.6224 23.5592 14.9914 23.856C14.6135 23.9248 14.2281 23.8235 13.934 23.5782C13.6421 23.3346 13.4747 22.9768 13.4747 22.5965V19.1606H13.5156C14.0584 19.1606 14.5 18.7191 14.5 18.1763V17.3849C16.0878 16.7788 17.2188 15.24 17.2188 13.4419V11.2226C17.9742 11.0163 18.5313 10.3243 18.5313 9.50441C18.5313 8.60173 17.8561 7.85422 16.9844 7.73904V4.8169C16.9844 4.04149 16.3535 3.41064 15.5781 3.41064C14.8027 3.41064 14.1719 4.04149 14.1719 4.8169V7.72315H11.8281V4.8169C11.8281 4.04149 11.1973 3.41064 10.4219 3.41064C9.64647 3.41064 9.01563 4.04149 9.01563 4.8169V7.73904C8.14389 7.85422 7.46875 8.60169 7.46875 9.50441C7.46875 10.3243 8.02581 11.0163 8.78125 11.2226V13.4419C8.78125 15.24 9.91221 16.7788 11.5 17.3849V18.1763C11.5 18.7191 11.9416 19.1607 12.4844 19.1607H12.5372V22.5965C12.5372 23.2557 12.8274 23.8758 13.3334 24.298C13.7372 24.635 14.2405 24.8147 14.7574 24.8147C14.891 24.8147 15.0254 24.8027 15.1593 24.7784C16.9289 24.4562 18.5636 23.7601 20.0178 22.7093C20.2277 22.5576 20.2748 22.2646 20.1232 22.0548ZM15.1094 4.8169C15.1094 4.55843 15.3197 4.34815 15.5782 4.34815C15.8367 4.34815 16.0469 4.55843 16.0469 4.8169V7.72315H15.1094V4.8169ZM9.95318 4.8169C9.95318 4.55843 10.1635 4.34815 10.4219 4.34815C10.6804 4.34815 10.8907 4.55843 10.8907 4.8169V7.72315H9.95318V4.8169ZM8.4063 9.50441C8.4063 9.03917 8.78482 8.66066 9.25005 8.66066H16.7501C17.2153 8.66066 17.5938 9.03917 17.5938 9.50441C17.5938 9.96964 17.2153 10.3482 16.7501 10.3482H9.25005C8.78482 10.3482 8.4063 9.96964 8.4063 9.50441ZM9.7188 13.4419V11.2857H16.2813V13.4419C16.2813 15.2512 14.8093 16.7232 13.0001 16.7232C11.1908 16.7232 9.7188 15.2512 9.7188 13.4419ZM13.0178 18.2232C13.0139 18.2231 13.01 18.2226 13.0061 18.2226C13.0021 18.2226 12.9982 18.2231 12.9943 18.2232H12.4845C12.4586 18.2232 12.4376 18.2021 12.4376 18.1763V17.6231C12.6216 17.6477 12.8094 17.6607 13.0001 17.6607C13.1907 17.6607 13.3785 17.6477 13.5626 17.6231V18.1763C13.5626 18.2021 13.5416 18.2232 13.5157 18.2232H13.0178Z" fill="url(#paint0_linear_503_7257)" stroke="url(#paint1_linear_503_7257)" stroke-width="0.3"/>
<path d="M21.4742 20.7843C21.2884 20.6108 20.9989 20.6175 20.8213 20.7971C20.8177 20.8008 20.8141 20.8045 20.8107 20.8081C20.634 20.9974 20.6442 21.294 20.8335 21.4707C20.9239 21.555 21.0387 21.5967 21.1532 21.5967C21.2743 21.5967 21.3951 21.5501 21.4864 21.4578C21.49 21.4542 21.4936 21.4504 21.497 21.4468C21.6737 21.2575 21.6634 20.9609 21.4742 20.7843Z" fill="#48494A" stroke="#48494A" stroke-width="0.3"/>
<path d="M24.9682 12.097C24.7594 9.22743 23.5225 6.52518 21.4855 4.48813C19.4834 2.48586 16.8089 1.26026 13.9547 1.03718C11.1353 0.816731 8.32932 1.58183 6.05269 3.19133C5.84128 3.34077 5.79108 3.63331 5.94052 3.84467C6.08991 4.05603 6.3825 4.10633 6.59386 3.95685C10.9473 0.879168 17.0643 1.3925 20.8226 5.15104C24.7065 9.03515 25.1762 15.0668 21.9392 19.4929C21.7864 19.7019 21.8319 19.9952 22.0409 20.148C22.1243 20.209 22.2212 20.2384 22.3173 20.2384C22.4617 20.2384 22.6042 20.1719 22.696 20.0463C24.368 17.7601 25.175 14.937 24.9682 12.097Z" fill="#48494A" stroke="#48494A" stroke-width="0.3"/>
<path d="M5.12086 4.54208C4.93697 4.35988 4.64016 4.3611 4.45791 4.54503L4.45027 4.55282C4.26802 4.73666 4.26938 5.03347 4.45322 5.21572C4.54463 5.30629 4.66392 5.35152 4.78322 5.35152C4.90383 5.35152 5.02449 5.30521 5.11617 5.21277L5.12382 5.20499C5.30607 5.02114 5.30471 4.72433 5.12086 4.54208Z" fill="#48494A" stroke="#48494A" stroke-width="0.3"/>
<path d="M14.0566 13.2683C13.9726 13.1242 13.8184 13.0356 13.6516 13.0356H13.3166L13.9336 12.2563C14.0943 12.0533 14.06 11.7585 13.857 11.5978C13.654 11.4371 13.3592 11.4715 13.1985 11.6744L11.9801 13.2134C11.8686 13.3544 11.8474 13.5467 11.9257 13.7085C12.004 13.8703 12.1679 13.9731 12.3477 13.9731H12.8474L12.2733 14.9867C12.1457 15.212 12.2249 15.498 12.4501 15.6255C12.5232 15.6669 12.6024 15.6865 12.6808 15.6865C12.8442 15.6865 13.0029 15.6009 13.0891 15.4487L14.0595 13.7354C14.1417 13.5903 14.1406 13.4124 14.0566 13.2683Z" fill="#48494A"/>
<defs>
<linearGradient id="paint0_linear_503_7257" x1="13.8404" y1="3.41064" x2="13.8404" y2="24.8147" gradientUnits="userSpaceOnUse">
<stop stop-color="#046FBD"/>
<stop offset="1" stop-color="#2189F4"/>
</linearGradient>
<linearGradient id="paint1_linear_503_7257" x1="13.8404" y1="3.41064" x2="13.8404" y2="24.8147" gradientUnits="userSpaceOnUse">
<stop stop-color="#046FBD"/>
<stop offset="1" stop-color="#2189F4"/>
</linearGradient>
</defs>
</svg>
