<svg width="163" height="163" viewBox="0 0 163 163" fill="none" xmlns="http://www.w3.org/2000/svg">
<path d="M81 131C71.9333 131 63.5333 128.733 55.8 124.2C48.2667 119.733 42.2667 113.733 37.8 106.2C33.2667 98.4667 31 90.0667 31 81C31 71.9333 33.2667 63.5333 37.8 55.8C42.2667 48.2667 48.2667 42.2667 55.8 37.8C63.5333 33.2667 71.9333 31 81 31C90.0667 31 98.4667 33.2667 106.2 37.8C113.733 42.2667 119.733 48.2667 124.2 55.8C128.733 63.5333 131 71.9333 131 81C131 90.0667 128.733 98.4667 124.2 106.2C119.733 113.733 113.733 119.733 106.2 124.2C98.4667 128.733 90.0667 131 81 131ZM81 73.9L66.9 59.8L59.8 66.9L73.9 81L59.8 95.1L66.9 102.2L81 88.1L95.1 102.2L102.2 95.1L88.1 81L102.2 66.9L95.1 59.8L81 73.9Z" fill="#F44236"/>
<path d="M157.321 90.4745C160.771 85.0103 160.766 78.0448 157.312 72.5831C155.092 69.0733 154.255 64.8612 154.967 60.7697C156.073 54.4053 153.408 47.9655 148.134 44.2346C144.753 41.8427 142.37 38.2749 141.457 34.2353C140.031 27.9301 135.102 22.9978 128.796 21.5742C124.747 20.6602 121.181 18.2748 118.791 14.8813C115.07 9.59792 108.634 6.92826 102.264 8.01961C98.1795 8.71955 93.9721 7.87919 90.4697 5.66345C85.0059 2.20693 78.0341 2.20294 72.5698 5.65863C69.06 7.87834 64.8501 8.71389 60.7586 8.00275C54.3941 6.89655 47.9546 9.56146 44.2237 14.835C41.8316 18.2163 38.2615 20.5996 34.2215 21.5125C27.915 22.9375 22.9783 27.8694 21.5544 34.1761C20.6408 38.2227 18.257 41.7885 14.8658 44.178C9.58488 47.8992 6.91695 54.3329 8.0085 60.7003C8.70851 64.7837 7.86987 68.9887 5.65688 72.4911C2.20387 77.956 2.20292 84.9272 5.65813 90.3907C7.87784 93.9006 8.71389 98.1113 8.00275 102.203C6.89654 108.567 9.56147 115.007 14.835 118.738C18.2163 121.13 20.5996 124.7 21.5125 128.74C22.9376 135.046 27.8663 139.982 34.1732 141.406C38.223 142.321 41.7896 144.706 44.1812 148.099C47.9054 153.384 54.3442 156.054 60.7164 154.962C64.7995 154.262 69.0047 155.101 72.5068 157.314C77.9717 160.767 84.9432 160.768 90.4067 157.313C93.9166 155.093 98.1273 154.257 102.219 154.968C108.583 156.074 115.023 153.409 118.754 148.136C121.146 144.755 124.716 142.371 128.756 141.458C135.062 140.033 139.998 135.105 141.422 128.798C142.337 124.748 144.722 121.181 148.115 118.79C153.4 115.066 156.069 108.621 154.977 102.249C154.278 98.1715 155.112 93.9722 157.321 90.4745ZM81.4791 139.436C49.4758 139.436 23.5331 113.494 23.5331 81.4903C23.5331 49.487 49.4758 23.5443 81.4791 23.5443C113.482 23.5443 139.425 49.487 139.425 81.4903C139.425 113.494 113.482 139.436 81.4791 139.436Z" fill="#F44236"/>
</svg>
