<svg width="20" height="20" viewBox="0 0 20 20" fill="none" xmlns="http://www.w3.org/2000/svg">
<path d="M10 20C8.18667 20 6.50667 19.5467 4.96 18.64C3.45333 17.7467 2.25333 16.5467 1.36 15.04C0.453333 13.4933 5.96046e-08 11.8133 5.96046e-08 10C5.96046e-08 8.18667 0.453333 6.50667 1.36 4.96C2.25333 3.45333 3.45333 2.25333 4.96 1.36C6.50667 0.453333 8.18667 -4.76837e-07 10 -4.76837e-07C11.8133 -4.76837e-07 13.4933 0.453333 15.04 1.36C16.5467 2.25333 17.7467 3.45333 18.64 4.96C19.5467 6.50667 20 8.18667 20 10C20 11.8133 19.5467 13.4933 18.64 15.04C17.7467 16.5467 16.5467 17.7467 15.04 18.64C13.4933 19.5467 11.8133 20 10 20ZM10 8.58L7.18 5.76L5.76 7.18L8.58 10L5.76 12.82L7.18 14.24L10 11.42L12.82 14.24L14.24 12.82L11.42 10L14.24 7.18L12.82 5.76L10 8.58Z" fill="#E84545"/>
</svg>
