<svg width="35" height="28" viewBox="0 0 35 28" fill="none" xmlns="http://www.w3.org/2000/svg">
<path d="M34.2882 9.51672C33.8286 8.27487 32.4556 7.53124 31.1529 7.8618L29.3324 6.75164C28.6448 6.3354 27.814 6.25395 27.0534 6.52739L20.3935 8.9508L14.9247 1.22306C14.7872 1.02896 14.5349 0.95068 14.3122 1.0316L11.3345 2.11584C11.0595 2.21581 10.9183 2.51886 11.0182 2.79336L14.0901 11.2436L7.46827 13.6532L3.91143 9.67486C3.7681 9.51408 3.54014 9.4559 3.33651 9.53047L1.34838 10.254C1.07336 10.3534 0.93214 10.6576 1.0321 10.9315L3.92571 18.883C4.00187 19.0924 4.20073 19.231 4.42234 19.231H4.42922L15.6366 19.0935C15.6958 19.093 15.7556 19.0819 15.8111 19.0612L16.8039 18.6989L19.6985 26.6515C19.7763 26.8662 19.9794 27 20.1952 27C20.2549 27 20.3163 26.9894 20.376 26.9677L23.3585 25.8819C23.5828 25.8005 23.7245 25.5788 23.7044 25.3414L22.9666 16.4575L32.7089 12.9096C33.7493 12.5309 34.4479 11.5302 34.4479 10.419C34.4485 10.1186 34.3956 9.81661 34.2882 9.51672ZM12.1929 2.92929L14.2948 2.16397L19.3637 9.32526L15.0839 10.8823L12.1929 2.92929ZM3.65332 15.0416L2.20679 11.0675L3.3619 10.6475L6.39831 14.043L3.65332 15.0416ZM20.512 25.7931L16.8938 15.8529L21.7099 14.1002L22.6175 25.0272L20.512 25.7931ZM32.3477 11.9169L22.8762 15.3658L22.7064 13.3227C22.6932 13.1582 22.6038 13.0096 22.4647 12.9207C22.3256 12.8319 22.1526 12.8139 21.9987 12.8689L16.0348 15.0395C15.9031 15.0876 15.7958 15.186 15.7365 15.3129C15.6773 15.4404 15.671 15.5858 15.7191 15.7175L16.4426 17.7051L15.534 18.0368L4.79151 18.169L4.01615 16.0359L27.4136 7.52225C27.8711 7.35723 28.3714 7.40642 28.7834 7.65553L29.2901 7.96441L27.7373 8.5298L28.099 9.52413L30.4463 8.66996L30.8043 8.88839C30.9403 8.97196 31.1079 8.98835 31.2566 8.93546C32.0986 8.63558 33.0035 9.09096 33.2944 9.87849C33.3584 10.0583 33.3912 10.2403 33.3912 10.4201C33.3907 11.0881 32.9712 11.6894 32.3477 11.9169Z" fill="#48494A" stroke="#48494A" stroke-width="0.3"/>
<path d="M24.4457 10.2905C24.3459 10.0161 24.4873 9.71254 24.7617 9.61272C25.036 9.51289 25.3395 9.65464 25.4393 9.929C25.5391 10.2034 25.3977 10.5069 25.1233 10.6068C24.849 10.7066 24.5455 10.5648 24.4457 10.2905Z" fill="url(#paint0_linear_48_6144)"/>
<path d="M22.4572 11.0144C22.3574 10.74 22.4988 10.4364 22.7731 10.3366C23.0475 10.2368 23.3509 10.3785 23.4508 10.6529C23.5506 10.9272 23.4092 11.2308 23.1348 11.3306C22.8604 11.4305 22.557 11.2887 22.4572 11.0144Z" fill="url(#paint1_linear_48_6144)"/>
<path d="M20.4694 11.739C20.3696 11.4646 20.511 11.161 20.7854 11.0612C21.0597 10.9614 21.3631 11.1031 21.463 11.3775C21.5628 11.6518 21.4214 11.9554 21.147 12.0553C20.8727 12.1551 20.5692 12.0133 20.4694 11.739Z" fill="url(#paint2_linear_48_6144)"/>
<path d="M18.4809 12.4628C18.3811 12.1885 18.5225 11.8849 18.7968 11.7851C19.0712 11.6853 19.3746 11.827 19.4744 12.1014C19.5743 12.3757 19.4329 12.6793 19.1585 12.7791C18.8841 12.8789 18.5807 12.7372 18.4809 12.4628Z" fill="url(#paint3_linear_48_6144)"/>
<path d="M16.4926 13.1872C16.3928 12.9128 16.5342 12.6093 16.8085 12.5094C17.0829 12.4096 17.3863 12.5514 17.4862 12.8257C17.586 13.1001 17.4446 13.4037 17.1702 13.5035C16.8958 13.6033 16.5924 13.4616 16.4926 13.1872Z" fill="url(#paint4_linear_48_6144)"/>
<path d="M14.5041 13.9113C14.4043 13.637 14.5457 13.3334 14.82 13.2336C15.0944 13.1337 15.3978 13.2755 15.4976 13.5498C15.5974 13.8242 15.456 14.1278 15.1817 14.2276C14.9073 14.3274 14.6039 14.1857 14.5041 13.9113Z" fill="url(#paint5_linear_48_6144)"/>
<path d="M12.5155 14.6352C12.4157 14.3608 12.5571 14.0573 12.8315 13.9574C13.1059 13.8576 13.4093 13.9994 13.5091 14.2737C13.6089 14.5481 13.4675 14.8517 13.1932 14.9515C12.9188 15.0513 12.6154 14.9096 12.5155 14.6352Z" fill="url(#paint6_linear_48_6144)"/>
<path d="M10.5229 15.3657C10.423 15.0912 10.5646 14.7877 10.8391 14.6878C11.1136 14.5879 11.4171 14.7295 11.5169 15.004C11.6168 15.2785 11.4752 15.582 11.2007 15.6819C10.9262 15.7817 10.6227 15.6402 10.5229 15.3657Z" fill="url(#paint7_linear_48_6144)"/>
<path d="M8.53386 16.0896C8.43399 15.8151 8.57555 15.5116 8.85005 15.4117C9.12455 15.3118 9.42804 15.4534 9.52791 15.7279C9.62778 16.0024 9.48622 16.3059 9.21172 16.4057C8.93722 16.5056 8.63373 16.3641 8.53386 16.0896Z" fill="url(#paint8_linear_48_6144)"/>
<defs>
<linearGradient id="paint0_linear_48_6144" x1="24.7617" y1="9.61272" x2="25.1233" y2="10.6068" gradientUnits="userSpaceOnUse">
<stop stop-color="#046FBD"/>
<stop offset="1" stop-color="#2189F4"/>
</linearGradient>
<linearGradient id="paint1_linear_48_6144" x1="22.7731" y1="10.3366" x2="23.1348" y2="11.3306" gradientUnits="userSpaceOnUse">
<stop stop-color="#046FBD"/>
<stop offset="1" stop-color="#2189F4"/>
</linearGradient>
<linearGradient id="paint2_linear_48_6144" x1="20.7854" y1="11.0612" x2="21.147" y2="12.0553" gradientUnits="userSpaceOnUse">
<stop stop-color="#046FBD"/>
<stop offset="1" stop-color="#2189F4"/>
</linearGradient>
<linearGradient id="paint3_linear_48_6144" x1="18.7968" y1="11.7851" x2="19.1585" y2="12.7791" gradientUnits="userSpaceOnUse">
<stop stop-color="#046FBD"/>
<stop offset="1" stop-color="#2189F4"/>
</linearGradient>
<linearGradient id="paint4_linear_48_6144" x1="16.8085" y1="12.5094" x2="17.1702" y2="13.5035" gradientUnits="userSpaceOnUse">
<stop stop-color="#046FBD"/>
<stop offset="1" stop-color="#2189F4"/>
</linearGradient>
<linearGradient id="paint5_linear_48_6144" x1="14.82" y1="13.2336" x2="15.1817" y2="14.2276" gradientUnits="userSpaceOnUse">
<stop stop-color="#046FBD"/>
<stop offset="1" stop-color="#2189F4"/>
</linearGradient>
<linearGradient id="paint6_linear_48_6144" x1="12.8315" y1="13.9574" x2="13.1932" y2="14.9515" gradientUnits="userSpaceOnUse">
<stop stop-color="#046FBD"/>
<stop offset="1" stop-color="#2189F4"/>
</linearGradient>
<linearGradient id="paint7_linear_48_6144" x1="10.8391" y1="14.6878" x2="11.2007" y2="15.6819" gradientUnits="userSpaceOnUse">
<stop stop-color="#046FBD"/>
<stop offset="1" stop-color="#2189F4"/>
</linearGradient>
<linearGradient id="paint8_linear_48_6144" x1="8.85005" y1="15.4117" x2="9.21172" y2="16.4057" gradientUnits="userSpaceOnUse">
<stop stop-color="#046FBD"/>
<stop offset="1" stop-color="#2189F4"/>
</linearGradient>
</defs>
</svg>
