<svg width="16" height="24" viewBox="0 0 16 24" fill="none" xmlns="http://www.w3.org/2000/svg">
<path d="M12.6562 5.72864V1.40625H13.3594C13.7477 1.40625 14.0625 1.09144 14.0625 0.703125C14.0625 0.314812 13.7477 0 13.3594 0H2.10938C1.72106 0 1.40625 0.314812 1.40625 0.703125C1.40625 1.09144 1.72106 1.40625 2.10938 1.40625H2.8125V5.72864C1.24167 5.84883 0 7.16447 0 8.76562V20.9531C0 22.6332 1.36683 24 3.04688 24H12.4219C14.1019 24 15.4688 22.6332 15.4688 20.9531V8.76562C15.4688 7.16452 14.2271 5.84888 12.6562 5.72864ZM4.21875 1.40625H11.25V5.71875H8.4375V4.3125H9.14062C9.52894 4.3125 9.84375 3.99769 9.84375 3.60938C9.84375 3.22106 9.52894 2.90625 9.14062 2.90625H6.32812C5.93981 2.90625 5.625 3.22106 5.625 3.60938C5.625 3.99769 5.93981 4.3125 6.32812 4.3125H7.03125V5.71875H4.21875V1.40625ZM14.0625 20.9531C14.0625 21.8578 13.3265 22.5938 12.4219 22.5938H3.04688C2.14223 22.5938 1.40625 21.8578 1.40625 20.9531V20.7188H14.0625V20.9531ZM14.0625 19.3125H1.40625V10.4062H14.0625V19.3125ZM14.0625 9H1.40625V8.76562C1.40625 7.86098 2.14223 7.125 3.04688 7.125H12.4219C13.3265 7.125 14.0625 7.86098 14.0625 8.76562V9Z" fill="#48494A"/>
<path d="M7.73445 17.9062C8.48562 17.9062 9.16985 17.5248 9.56478 16.8858C9.9597 16.2468 9.9949 15.4642 9.65895 14.7923L8.36332 12.2012C8.24426 11.963 8.00079 11.8125 7.73445 11.8125C7.4681 11.8125 7.22468 11.963 7.10553 12.2012L5.80995 14.7923C5.474 15.4642 5.5092 16.2468 5.90412 16.8858C6.29904 17.5248 6.98328 17.9062 7.73445 17.9062ZM7.06775 15.4213L7.73445 14.0879L8.4012 15.4213C8.51932 15.6575 8.50742 15.9218 8.36857 16.1465C8.22973 16.3711 7.99859 16.5 7.73445 16.5C7.47035 16.5 7.23926 16.3711 7.10037 16.1465C6.96153 15.9218 6.94962 15.6575 7.06775 15.4213Z" fill="url(#paint0_linear_503_7280)"/>
<defs>
<linearGradient id="paint0_linear_503_7280" x1="7.73445" y1="11.8125" x2="7.73445" y2="17.9062" gradientUnits="userSpaceOnUse">
<stop stop-color="#046FBD"/>
<stop offset="1" stop-color="#2189F4"/>
</linearGradient>
</defs>
</svg>
