<svg width="26" height="26" viewBox="0 0 26 26" fill="none" xmlns="http://www.w3.org/2000/svg">
<path d="M25.4583 11.9167H22.1433C21.7718 10.74 20.7291 9.90234 19.5 9.79332V1.625C19.5 0.727543 18.7725 0 17.875 0H1.625C0.727543 0 0 0.727543 0 1.625V13C0 13.8975 0.727543 14.625 1.625 14.625H6.5V15.7083C6.5 16.0075 6.74253 16.25 7.04168 16.25H7.58337V25.4583C7.58337 25.7575 7.8259 26 8.12505 26H24.375C24.6742 26 24.9167 25.7575 24.9167 25.4583V16.25H25.4584C25.7576 16.25 26.0001 16.0075 26.0001 15.7083V12.4583C26 12.1592 25.7575 11.9167 25.4583 11.9167ZM18.9583 10.8333C19.7849 10.7854 20.5688 11.2036 20.9896 11.9166H16.9271C17.3478 11.2036 18.1318 10.7854 18.9583 10.8333ZM7.04168 11.9167C6.74253 11.9167 6.5 12.1592 6.5 12.4584V13.5417H1.625C1.32585 13.5417 1.08332 13.2992 1.08332 13V1.625C1.08332 1.32585 1.32585 1.08332 1.625 1.08332H17.875C18.1742 1.08332 18.4167 1.32585 18.4167 1.625V9.79332C17.5716 9.89635 16.7971 10.3165 16.25 10.9688C15.5767 10.1755 14.5819 9.72786 13.5417 9.75C11.9709 9.75 10.66 10.6817 10.3567 11.9167H7.04168ZM15.5729 11.9167H11.5104C11.9312 11.2036 12.7151 10.7855 13.5417 10.8334C14.3682 10.7854 15.1522 11.2036 15.5729 11.9167ZM14.0833 24.9167H8.66668V16.25H14.0834L14.0833 24.9167ZM17.3333 24.9167H15.1666V16.25H17.3333V24.9167ZM23.8333 24.9167H18.4167V16.25H23.8334L23.8333 24.9167ZM24.9167 15.1667H7.58332V13H24.9166L24.9167 15.1667Z" fill="#48494A" stroke="#48494A" stroke-width="0.4"/>
<path d="M4.875 7.5835C5.77246 7.5835 6.5 6.85595 6.5 5.9585C6.5 5.06104 5.77246 4.3335 4.875 4.3335C3.97754 4.3335 3.25 5.06104 3.25 5.9585C3.25 6.85595 3.97754 7.5835 4.875 7.5835ZM4.875 5.41686C5.17415 5.41686 5.41668 5.65939 5.41668 5.95855C5.41668 6.2577 5.17415 6.50023 4.875 6.50023C4.57585 6.50023 4.33332 6.2577 4.33332 5.95855C4.33332 5.65934 4.57585 5.41686 4.875 5.41686Z" fill="url(#paint0_linear_48_6110)"/>
<path d="M8.125 7.5835C7.22754 7.5835 6.5 8.31104 6.5 9.2085C6.5 10.106 7.22754 10.8335 8.125 10.8335C9.02246 10.8335 9.75 10.106 9.75 9.2085C9.75 8.31104 9.02246 7.5835 8.125 7.5835ZM8.125 9.75018C7.82585 9.75018 7.58332 9.50765 7.58332 9.2085C7.58332 8.90934 7.82585 8.66681 8.125 8.66681C8.42415 8.66681 8.66668 8.90934 8.66668 9.2085C8.66668 9.50765 8.42415 9.75018 8.125 9.75018Z" fill="url(#paint1_linear_48_6110)"/>
<path d="M8.57992 4.74015L3.93013 9.38994C3.7186 9.60147 3.7186 9.94443 3.93013 10.156C4.14165 10.3675 4.48461 10.3675 4.69614 10.156L9.34593 5.50616C9.55746 5.29463 9.55746 4.95168 9.34593 4.74015C9.13441 4.52862 8.79145 4.52862 8.57992 4.74015Z" fill="url(#paint2_linear_48_6110)" stroke="url(#paint3_linear_48_6110)" stroke-width="0.4"/>
<path d="M16.7916 2.1665H14.6249C14.3258 2.1665 14.0833 2.40901 14.0833 2.70816C14.0833 3.00731 14.3258 3.24982 14.6249 3.24982H16.7916C17.0907 3.24982 17.3333 3.00731 17.3333 2.70816C17.3333 2.40901 17.0907 2.1665 16.7916 2.1665Z" fill="url(#paint4_linear_48_6110)" stroke="url(#paint5_linear_48_6110)" stroke-width="0.4"/>
<path d="M16.7916 4.3335H14.6249C14.3258 4.3335 14.0833 4.576 14.0833 4.87515C14.0833 5.1743 14.3258 5.41681 14.6249 5.41681H16.7916C17.0907 5.41681 17.3333 5.1743 17.3333 4.87515C17.3333 4.576 17.0907 4.3335 16.7916 4.3335Z" fill="url(#paint6_linear_48_6110)" stroke="url(#paint7_linear_48_6110)" stroke-width="0.4"/>
<path d="M2.16675 2.70816C2.16675 3.00731 2.40926 3.24982 2.70841 3.24982C3.00756 3.24982 3.25006 3.00731 3.25006 2.70816C3.25006 2.40901 3.00756 2.1665 2.70841 2.1665C2.40926 2.1665 2.16675 2.40901 2.16675 2.70816Z" fill="url(#paint8_linear_48_6110)" stroke="url(#paint9_linear_48_6110)" stroke-width="0.4"/>
<defs>
<linearGradient id="paint0_linear_48_6110" x1="4.875" y1="4.3335" x2="4.875" y2="7.5835" gradientUnits="userSpaceOnUse">
<stop stop-color="#046FBD"/>
<stop offset="1" stop-color="#2189F4"/>
</linearGradient>
<linearGradient id="paint1_linear_48_6110" x1="8.125" y1="7.5835" x2="8.125" y2="10.8335" gradientUnits="userSpaceOnUse">
<stop stop-color="#046FBD"/>
<stop offset="1" stop-color="#2189F4"/>
</linearGradient>
<linearGradient id="paint2_linear_48_6110" x1="6.25502" y1="7.06504" x2="7.02104" y2="7.83106" gradientUnits="userSpaceOnUse">
<stop stop-color="#046FBD"/>
<stop offset="1" stop-color="#2189F4"/>
</linearGradient>
<linearGradient id="paint3_linear_48_6110" x1="6.25502" y1="7.06504" x2="7.02104" y2="7.83106" gradientUnits="userSpaceOnUse">
<stop stop-color="#046FBD"/>
<stop offset="1" stop-color="#2189F4"/>
</linearGradient>
<linearGradient id="paint4_linear_48_6110" x1="15.7083" y1="2.1665" x2="15.7083" y2="3.24982" gradientUnits="userSpaceOnUse">
<stop stop-color="#046FBD"/>
<stop offset="1" stop-color="#2189F4"/>
</linearGradient>
<linearGradient id="paint5_linear_48_6110" x1="15.7083" y1="2.1665" x2="15.7083" y2="3.24982" gradientUnits="userSpaceOnUse">
<stop stop-color="#046FBD"/>
<stop offset="1" stop-color="#2189F4"/>
</linearGradient>
<linearGradient id="paint6_linear_48_6110" x1="15.7083" y1="4.3335" x2="15.7083" y2="5.41681" gradientUnits="userSpaceOnUse">
<stop stop-color="#046FBD"/>
<stop offset="1" stop-color="#2189F4"/>
</linearGradient>
<linearGradient id="paint7_linear_48_6110" x1="15.7083" y1="4.3335" x2="15.7083" y2="5.41681" gradientUnits="userSpaceOnUse">
<stop stop-color="#046FBD"/>
<stop offset="1" stop-color="#2189F4"/>
</linearGradient>
<linearGradient id="paint8_linear_48_6110" x1="2.70841" y1="2.1665" x2="2.70841" y2="3.24982" gradientUnits="userSpaceOnUse">
<stop stop-color="#046FBD"/>
<stop offset="1" stop-color="#2189F4"/>
</linearGradient>
<linearGradient id="paint9_linear_48_6110" x1="2.70841" y1="2.1665" x2="2.70841" y2="3.24982" gradientUnits="userSpaceOnUse">
<stop stop-color="#046FBD"/>
<stop offset="1" stop-color="#2189F4"/>
</linearGradient>
</defs>
</svg>
