<svg width="16" height="16" viewBox="0 0 16 16" fill="none" xmlns="http://www.w3.org/2000/svg">
<path d="M5.8 6.9C6.18889 7.58889 6.66111 8.21667 7.21667 8.78333C7.78333 9.33889 8.41111 9.81111 9.1 10.2L9.83333 9.16667C9.95556 8.98889 10.1167 8.87778 10.3167 8.83333C10.5278 8.78889 10.7278 8.81667 10.9167 8.91667C12.1056 9.57222 13.3778 9.95 14.7333 10.05C14.9444 10.0722 15.1222 10.1611 15.2667 10.3167C15.4222 10.4722 15.5 10.6611 15.5 10.8833V14.6C15.5 14.8111 15.4278 15 15.2833 15.1667C15.1389 15.3222 14.9611 15.4111 14.75 15.4333C14.3167 15.4778 13.8722 15.5 13.4167 15.5C11.6611 15.5 9.98333 15.1611 8.38333 14.4833C6.83889 13.8278 5.47222 12.9056 4.28333 11.7167C3.09444 10.5278 2.17222 9.16111 1.51667 7.61667C0.838889 6.01667 0.5 4.33889 0.5 2.58333C0.5 2.12778 0.522222 1.68333 0.566667 1.25C0.588889 1.03889 0.677778 0.861111 0.833333 0.716666C1 0.572222 1.18889 0.5 1.4 0.5H5.11667C5.33889 0.5 5.52778 0.577778 5.68333 0.733333C5.83889 0.877777 5.92778 1.05556 5.95 1.26667C6.05 2.62222 6.42778 3.89444 7.08333 5.08333C7.18333 5.27222 7.21111 5.47222 7.16667 5.68333C7.12222 5.88333 7.01111 6.04444 6.83333 6.16667L5.8 6.9ZM3.7 6.35L5.28333 5.21667C4.83889 4.25 4.53333 3.23333 4.36667 2.16667H2.18333L2.16667 2.58333C2.16667 4.10555 2.46111 5.56667 3.05 6.96667C3.61667 8.31111 4.41667 9.50556 5.45 10.55C6.49444 11.5833 7.68889 12.3833 9.03333 12.95C10.4333 13.5389 11.8944 13.8333 13.4167 13.8333H13.8333V11.6333C12.7667 11.4667 11.75 11.1611 10.7833 10.7167L9.65 12.3C9.19444 12.1222 8.75 11.9111 8.31667 11.6667L8.26667 11.65C7.45556 11.1833 6.71667 10.6167 6.05 9.95C5.38333 9.28333 4.81667 8.54444 4.35 7.73333L4.33333 7.68333C4.08889 7.25 3.87778 6.80556 3.7 6.35Z" fill="url(#paint0_linear_416_6936)"/>
<defs>
<linearGradient id="paint0_linear_416_6936" x1="8" y1="-2" x2="8" y2="18" gradientUnits="userSpaceOnUse">
<stop stop-color="#046FBD"/>
<stop offset="1" stop-color="#2189F4"/>
</linearGradient>
</defs>
</svg>
