<svg width="20" height="20" viewBox="0 0 20 20" fill="none" xmlns="http://www.w3.org/2000/svg">
<g clip-path="url(#clip0_29_10218)">
<path d="M10.0003 5C9.77931 5 9.56735 5.0878 9.41107 5.24408C9.25479 5.40036 9.16699 5.61232 9.16699 5.83333V10C9.16704 10.221 9.25487 10.4329 9.41116 10.5892L11.9112 13.0892C12.0683 13.241 12.2788 13.325 12.4973 13.3231C12.7158 13.3212 12.9248 13.2335 13.0793 13.079C13.2338 12.9245 13.3215 12.7155 13.3234 12.497C13.3253 12.2785 13.2413 12.068 13.0895 11.9108L10.8337 9.655V5.83333C10.8337 5.61232 10.7459 5.40036 10.5896 5.24408C10.4333 5.0878 10.2213 5 10.0003 5Z" fill="#F2F2F2"/>
<path d="M19.843 8.44333C19.557 6.63153 18.7781 4.93331 17.5916 3.53447C16.4051 2.13563 14.8568 1.09006 13.116 0.512166C11.3751 -0.0657305 9.50889 -0.153693 7.72142 0.257902C5.93396 0.669496 4.29413 1.56479 2.98135 2.84583V0.833333C2.98135 0.61232 2.89355 0.400358 2.73727 0.244078C2.58099 0.0877974 2.36903 0 2.14801 0C1.927 0 1.71504 0.0877974 1.55876 0.244078C1.40248 0.400358 1.31468 0.61232 1.31468 0.833333V4.16667C1.31468 4.60869 1.49028 5.03262 1.80284 5.34518C2.1154 5.65774 2.53932 5.83333 2.98135 5.83333H6.31468C6.53569 5.83333 6.74765 5.74554 6.90394 5.58926C7.06022 5.43298 7.14801 5.22101 7.14801 5C7.14801 4.77899 7.06022 4.56703 6.90394 4.41074C6.74765 4.25446 6.53569 4.16667 6.31468 4.16667H4.02218C5.35385 2.81469 7.10745 1.95825 8.99244 1.73924C10.8774 1.52024 12.7807 1.9518 14.3869 2.96245C15.993 3.97309 17.2057 5.50214 17.824 7.29628C18.4423 9.09041 18.429 11.0419 17.7865 12.8275C17.1439 14.6131 15.9106 16.1255 14.2908 17.1143C12.6711 18.1031 10.7622 18.5088 8.88032 18.2642C6.99847 18.0196 5.25666 17.1395 3.94346 15.7696C2.63026 14.3996 1.8245 12.6222 1.65968 10.7317C1.63807 10.5285 1.54127 10.3408 1.3883 10.2054C1.23534 10.0701 1.03726 9.99677 0.833014 10C0.716468 10.0003 0.601265 10.0249 0.494746 10.0722C0.388226 10.1195 0.292725 10.1884 0.214327 10.2747C0.13593 10.3609 0.0763555 10.4625 0.0393996 10.5731C0.00244361 10.6836 -0.0110834 10.8006 -0.000319531 10.9167C0.13146 12.2445 0.527661 13.5326 1.16494 14.7049C1.80222 15.8773 2.66769 16.9103 3.71037 17.743C4.75304 18.5757 5.95182 19.1913 7.23609 19.5536C8.52036 19.9158 9.86415 20.0174 11.1883 19.8522C12.5124 19.6871 13.7901 19.2586 14.9461 18.5921C16.102 17.9255 17.1129 17.0344 17.9191 15.9711C18.7254 14.9078 19.3106 13.6939 19.6405 12.4009C19.9703 11.108 20.038 9.76205 19.8397 8.4425L19.843 8.44333Z" fill="#F2F2F2"/>
</g>
<defs>
<clipPath id="clip0_29_10218">
<rect width="20" height="20" fill="white"/>
</clipPath>
</defs>
</svg>
