<svg width="28" height="28" viewBox="0 0 28 28" fill="none" xmlns="http://www.w3.org/2000/svg">
<path d="M2.91659 25.6668H25.0833C25.238 25.6668 25.3863 25.6054 25.4957 25.496C25.6051 25.3866 25.6666 25.2382 25.6666 25.0835V11.0835C25.6666 10.9288 25.6051 10.7804 25.4957 10.671C25.3863 10.5616 25.238 10.5002 25.0833 10.5002H22.1666V5.25016C22.1666 5.09545 22.1051 4.94708 21.9957 4.83768C21.8863 4.72829 21.738 4.66683 21.5833 4.66683H18.6666V4.0835C18.6666 3.61937 18.4822 3.17425 18.154 2.84606C17.8258 2.51787 17.3807 2.3335 16.9166 2.3335H11.0833C10.6191 2.3335 10.174 2.51787 9.84581 2.84606C9.51763 3.17425 9.33325 3.61937 9.33325 4.0835V4.66683H6.41658C6.26188 4.66683 6.1135 4.72829 6.00411 4.83768C5.89471 4.94708 5.83325 5.09545 5.83325 5.25016V10.5002H2.91659C2.76188 10.5002 2.6135 10.5616 2.50411 10.671C2.39471 10.7804 2.33325 10.9288 2.33325 11.0835V25.0835C2.33325 25.2382 2.39471 25.3866 2.50411 25.496C2.6135 25.6054 2.76188 25.6668 2.91659 25.6668ZM22.1666 11.6668H24.4999V24.5002H22.1666V11.6668ZM15.7499 24.5002H12.2499V20.4168H15.7499V24.5002ZM10.4999 4.0835C10.4999 3.92879 10.5614 3.78041 10.6708 3.67102C10.7802 3.56162 10.9285 3.50016 11.0833 3.50016H16.9166C17.0713 3.50016 17.2197 3.56162 17.3291 3.67102C17.4385 3.78041 17.4999 3.92879 17.4999 4.0835V9.91683C17.4999 10.0715 17.4385 10.2199 17.3291 10.3293C17.2197 10.4387 17.0713 10.5002 16.9166 10.5002H11.0833C10.9285 10.5002 10.7802 10.4387 10.6708 10.3293C10.5614 10.2199 10.4999 10.0715 10.4999 9.91683V4.0835ZM6.99992 5.8335H9.33325V9.91683C9.33325 10.381 9.51763 10.8261 9.84581 11.1543C10.174 11.4825 10.6191 11.6668 11.0833 11.6668H16.9166C17.3807 11.6668 17.8258 11.4825 18.154 11.1543C18.4822 10.8261 18.6666 10.381 18.6666 9.91683V5.8335H20.9999V24.5002H16.9166V19.8335C16.9166 19.6788 16.8551 19.5304 16.7457 19.421C16.6363 19.3116 16.488 19.2502 16.3333 19.2502H11.6666C11.5119 19.2502 11.3635 19.3116 11.2541 19.421C11.1447 19.5304 11.0833 19.6788 11.0833 19.8335V24.5002H6.99992V5.8335ZM3.49992 11.6668H5.83325V24.5002H3.49992V11.6668Z" fill="#48494A"/>
<path d="M12.2501 7.58317H13.4167V8.74984C13.4167 8.90455 13.4782 9.05292 13.5876 9.16232C13.697 9.27171 13.8454 9.33317 14.0001 9.33317C14.1548 9.33317 14.3032 9.27171 14.4126 9.16232C14.522 9.05292 14.5834 8.90455 14.5834 8.74984V7.58317H15.7501C15.9048 7.58317 16.0532 7.52171 16.1626 7.41232C16.272 7.30292 16.3334 7.15455 16.3334 6.99984C16.3334 6.84513 16.272 6.69675 16.1626 6.58736C16.0532 6.47796 15.9048 6.4165 15.7501 6.4165H14.5834V5.24984C14.5834 5.09513 14.522 4.94675 14.4126 4.83736C14.3032 4.72796 14.1548 4.6665 14.0001 4.6665C13.8454 4.6665 13.697 4.72796 13.5876 4.83736C13.4782 4.94675 13.4167 5.09513 13.4167 5.24984V6.4165H12.2501C12.0954 6.4165 11.947 6.47796 11.8376 6.58736C11.7282 6.69675 11.6667 6.84513 11.6667 6.99984C11.6667 7.15455 11.7282 7.30292 11.8376 7.41232C11.947 7.52171 12.0954 7.58317 12.2501 7.58317Z" fill="url(#paint0_linear_504_7428)"/>
<path d="M9.91659 14.5832H11.0833C11.238 14.5832 11.3863 14.5217 11.4957 14.4123C11.6051 14.3029 11.6666 14.1545 11.6666 13.9998C11.6666 13.8451 11.6051 13.6968 11.4957 13.5874C11.3863 13.478 11.238 13.4165 11.0833 13.4165H9.91659C9.76188 13.4165 9.6135 13.478 9.50411 13.5874C9.39471 13.6968 9.33325 13.8451 9.33325 13.9998C9.33325 14.1545 9.39471 14.3029 9.50411 14.4123C9.6135 14.5217 9.76188 14.5832 9.91659 14.5832Z" fill="url(#paint1_linear_504_7428)"/>
<path d="M11.6666 16.9168C11.6666 16.7621 11.6051 16.6137 11.4957 16.5044C11.3863 16.395 11.238 16.3335 11.0833 16.3335H9.91659C9.76188 16.3335 9.6135 16.395 9.50411 16.5044C9.39471 16.6137 9.33325 16.7621 9.33325 16.9168C9.33325 17.0715 9.39471 17.2199 9.50411 17.3293C9.6135 17.4387 9.76188 17.5002 9.91659 17.5002H11.0833C11.238 17.5002 11.3863 17.4387 11.4957 17.3293C11.6051 17.2199 11.6666 17.0715 11.6666 16.9168Z" fill="url(#paint2_linear_504_7428)"/>
<path d="M13.4166 14.5832H14.5833C14.738 14.5832 14.8863 14.5217 14.9957 14.4123C15.1051 14.3029 15.1666 14.1545 15.1666 13.9998C15.1666 13.8451 15.1051 13.6968 14.9957 13.5874C14.8863 13.478 14.738 13.4165 14.5833 13.4165H13.4166C13.2619 13.4165 13.1135 13.478 13.0041 13.5874C12.8947 13.6968 12.8333 13.8451 12.8333 13.9998C12.8333 14.1545 12.8947 14.3029 13.0041 14.4123C13.1135 14.5217 13.2619 14.5832 13.4166 14.5832Z" fill="url(#paint3_linear_504_7428)"/>
<path d="M13.4166 17.5002H14.5833C14.738 17.5002 14.8863 17.4387 14.9957 17.3293C15.1051 17.2199 15.1666 17.0715 15.1666 16.9168C15.1666 16.7621 15.1051 16.6137 14.9957 16.5044C14.8863 16.395 14.738 16.3335 14.5833 16.3335H13.4166C13.2619 16.3335 13.1135 16.395 13.0041 16.5044C12.8947 16.6137 12.8333 16.7621 12.8333 16.9168C12.8333 17.0715 12.8947 17.2199 13.0041 17.3293C13.1135 17.4387 13.2619 17.5002 13.4166 17.5002Z" fill="url(#paint4_linear_504_7428)"/>
<path d="M16.9166 14.5832H18.0833C18.238 14.5832 18.3863 14.5217 18.4957 14.4123C18.6051 14.3029 18.6666 14.1545 18.6666 13.9998C18.6666 13.8451 18.6051 13.6968 18.4957 13.5874C18.3863 13.478 18.238 13.4165 18.0833 13.4165H16.9166C16.7619 13.4165 16.6135 13.478 16.5041 13.5874C16.3947 13.6968 16.3333 13.8451 16.3333 13.9998C16.3333 14.1545 16.3947 14.3029 16.5041 14.4123C16.6135 14.5217 16.7619 14.5832 16.9166 14.5832Z" fill="url(#paint5_linear_504_7428)"/>
<path d="M16.9166 17.5002H18.0833C18.238 17.5002 18.3863 17.4387 18.4957 17.3293C18.6051 17.2199 18.6666 17.0715 18.6666 16.9168C18.6666 16.7621 18.6051 16.6137 18.4957 16.5044C18.3863 16.395 18.238 16.3335 18.0833 16.3335H16.9166C16.7619 16.3335 16.6135 16.395 16.5041 16.5044C16.3947 16.6137 16.3333 16.7621 16.3333 16.9168C16.3333 17.0715 16.3947 17.2199 16.5041 17.3293C16.6135 17.4387 16.7619 17.5002 16.9166 17.5002Z" fill="url(#paint6_linear_504_7428)"/>
<defs>
<linearGradient id="paint0_linear_504_7428" x1="14.0001" y1="4.6665" x2="14.0001" y2="9.33317" gradientUnits="userSpaceOnUse">
<stop stop-color="#046FBD"/>
<stop offset="1" stop-color="#2189F4"/>
</linearGradient>
<linearGradient id="paint1_linear_504_7428" x1="10.4999" y1="13.4165" x2="10.4999" y2="14.5832" gradientUnits="userSpaceOnUse">
<stop stop-color="#046FBD"/>
<stop offset="1" stop-color="#2189F4"/>
</linearGradient>
<linearGradient id="paint2_linear_504_7428" x1="10.4999" y1="16.3335" x2="10.4999" y2="17.5002" gradientUnits="userSpaceOnUse">
<stop stop-color="#046FBD"/>
<stop offset="1" stop-color="#2189F4"/>
</linearGradient>
<linearGradient id="paint3_linear_504_7428" x1="13.9999" y1="13.4165" x2="13.9999" y2="14.5832" gradientUnits="userSpaceOnUse">
<stop stop-color="#046FBD"/>
<stop offset="1" stop-color="#2189F4"/>
</linearGradient>
<linearGradient id="paint4_linear_504_7428" x1="13.9999" y1="16.3335" x2="13.9999" y2="17.5002" gradientUnits="userSpaceOnUse">
<stop stop-color="#046FBD"/>
<stop offset="1" stop-color="#2189F4"/>
</linearGradient>
<linearGradient id="paint5_linear_504_7428" x1="17.4999" y1="13.4165" x2="17.4999" y2="14.5832" gradientUnits="userSpaceOnUse">
<stop stop-color="#046FBD"/>
<stop offset="1" stop-color="#2189F4"/>
</linearGradient>
<linearGradient id="paint6_linear_504_7428" x1="17.4999" y1="16.3335" x2="17.4999" y2="17.5002" gradientUnits="userSpaceOnUse">
<stop stop-color="#046FBD"/>
<stop offset="1" stop-color="#2189F4"/>
</linearGradient>
</defs>
</svg>
