<svg width="19" height="20" viewBox="0 0 19 20" fill="none" xmlns="http://www.w3.org/2000/svg">
<path d="M8 -4.76837e-07L15.3 2.28C15.5133 2.34667 15.68 2.46667 15.8 2.64C15.9333 2.81333 16 3.01333 16 3.24V5H18C18.28 5 18.5133 5.1 18.7 5.3C18.9 5.48667 19 5.72 19 6V14C19 14.28 18.9 14.52 18.7 14.72C18.5133 14.9067 18.28 15 18 15H14.78C14.38 15.52 13.9133 15.9667 13.38 16.34L8 20L2.62 16.34C1.80667 15.78 1.16667 15.06 0.7 14.18C0.233333 13.3 0 12.3667 0 11.38V3.24C0 3.01333 0.0600001 2.81333 0.18 2.64C0.313333 2.46667 0.486667 2.34667 0.7 2.28L8 -4.76837e-07ZM8 2.1L2 3.96V11.38C2 11.9933 2.13333 12.58 2.4 13.14C2.68 13.7 3.06667 14.1667 3.56 14.54L8 17.58L11.78 15H7C6.72 15 6.48 14.9067 6.28 14.72C6.09333 14.52 6 14.28 6 14V6C6 5.72 6.09333 5.48667 6.28 5.3C6.48 5.1 6.72 5 7 5H14V3.96L8 2.1ZM8 10V13H17V10H8ZM8 8H17V7H8V8Z" fill="url(#paint0_linear_416_6501)"/>
<path d="M8 -4.76837e-07L8.07453 -0.238632L8 -0.26191L7.92547 -0.238632L8 -4.76837e-07ZM15.3 2.28L15.3746 2.04138L15.3745 2.04137L15.3 2.28ZM15.8 2.64L15.5942 2.78248L15.6018 2.79243L15.8 2.64ZM16 5H15.75V5.25H16V5ZM18.7 5.3L18.5172 5.47058L18.5231 5.47688L18.5294 5.48276L18.7 5.3ZM14.78 15V14.75H14.6569L14.5818 14.8476L14.78 15ZM13.38 16.34L13.5206 16.5467L13.5234 16.5448L13.38 16.34ZM8 20L7.85938 20.2067L8 20.3024L8.14062 20.2067L8 20ZM2.62 16.34L2.47822 16.5459L2.47938 16.5467L2.62 16.34ZM0.7 14.18L0.920866 14.0629L0.7 14.18ZM0.18 2.64L-0.0184052 2.48738L-0.0255477 2.4977L0.18 2.64ZM0.7 2.28L0.625468 2.04137L0.625431 2.04138L0.7 2.28ZM8 2.1L8.07403 1.86121L8 1.83826L7.92598 1.86121L8 2.1ZM2 3.96L1.92598 3.72121L1.75 3.77576V3.96H2ZM2.4 13.14L2.17424 13.2475L2.17639 13.2518L2.4 13.14ZM3.56 14.54L3.40897 14.7396L3.41876 14.7463L3.56 14.54ZM8 17.58L7.85876 17.7863L7.99978 17.8828L8.14094 17.7865L8 17.58ZM11.78 15L11.9209 15.2065L12.5897 14.75H11.78V15ZM6.28 14.72L6.09724 14.8906L6.10312 14.8969L6.10942 14.9028L6.28 14.72ZM6.28 5.3L6.45678 5.47678L6.45678 5.47678L6.28 5.3ZM14 5V5.25H14.25V5H14ZM14 3.96H14.25V3.77576L14.074 3.72121L14 3.96ZM8 10V9.75H7.75V10H8ZM8 13H7.75V13.25H8V13ZM17 13V13.25H17.25V13H17ZM17 10H17.25V9.75H17V10ZM8 8H7.75V8.25H8V8ZM17 8V8.25H17.25V8H17ZM17 7H17.25V6.75H17V7ZM8 7V6.75H7.75V7H8ZM7.92547 0.238631L15.2255 2.51863L15.3745 2.04137L8.07453 -0.238632L7.92547 0.238631ZM15.2254 2.51862C15.389 2.56974 15.5081 2.65764 15.5945 2.7823L16.0055 2.4977C15.8519 2.27569 15.6376 2.12359 15.3746 2.04138L15.2254 2.51862ZM15.6018 2.79243C15.7003 2.92037 15.75 3.0663 15.75 3.24H16.25C16.25 2.96036 16.1664 2.70629 15.9982 2.48757L15.6018 2.79243ZM15.75 3.24V5H16.25V3.24H15.75ZM16 5.25H18V4.75H16V5.25ZM18 5.25C18.2125 5.25 18.3791 5.32257 18.5172 5.47058L18.8828 5.12942C18.6476 4.87743 18.3475 4.75 18 4.75V5.25ZM18.5294 5.48276C18.6774 5.62091 18.75 5.78745 18.75 6H19.25C19.25 5.65255 19.1226 5.35243 18.8706 5.11724L18.5294 5.48276ZM18.75 6V14H19.25V6H18.75ZM18.75 14C18.75 14.2129 18.6769 14.3896 18.5232 14.5432L18.8768 14.8968C19.1231 14.6504 19.25 14.3471 19.25 14H18.75ZM18.5232 14.5432C18.3865 14.6799 18.2182 14.75 18 14.75V15.25C18.3418 15.25 18.6402 15.1334 18.8768 14.8968L18.5232 14.5432ZM18 14.75H14.78V15.25H18V14.75ZM14.5818 14.8476C14.1972 15.3476 13.749 15.7765 13.2366 16.1352L13.5234 16.5448C14.0777 16.1568 14.5628 15.6924 14.9782 15.1524L14.5818 14.8476ZM13.2394 16.1333L7.85938 19.7933L8.14062 20.2067L13.5206 16.5467L13.2394 16.1333ZM8.14062 19.7933L2.76062 16.1333L2.47938 16.5467L7.85938 20.2067L8.14062 19.7933ZM2.76178 16.1341C1.98186 15.5971 1.36886 14.9077 0.920866 14.0629L0.479135 14.2971C0.964469 15.2123 1.63147 15.9629 2.47822 16.5459L2.76178 16.1341ZM0.920866 14.0629C0.47314 13.2186 0.25 12.3254 0.25 11.38H-0.25C-0.25 12.4079 -0.00647306 13.3814 0.479135 14.2971L0.920866 14.0629ZM0.25 11.38V3.24H-0.25V11.38H0.25ZM0.25 3.24C0.25 3.06016 0.296701 2.91064 0.385548 2.7823L-0.0255477 2.4977C-0.176701 2.71603 -0.25 2.9665 -0.25 3.24H0.25ZM0.378156 2.79243C0.479407 2.6608 0.609158 2.57031 0.774569 2.51862L0.625431 2.04138C0.364175 2.12302 0.14726 2.27253 -0.0181558 2.48757L0.378156 2.79243ZM0.774532 2.51863L8.07453 0.238631L7.92547 -0.238632L0.625468 2.04137L0.774532 2.51863ZM7.92598 1.86121L1.92598 3.72121L2.07403 4.19879L8.07403 2.33879L7.92598 1.86121ZM1.75 3.96V11.38H2.25V3.96H1.75ZM1.75 11.38C1.75 12.031 1.89182 12.6543 2.17428 13.2475L2.62572 13.0325C2.37485 12.5057 2.25 11.9557 2.25 11.38H1.75ZM2.17639 13.2518C2.47337 13.8458 2.88477 14.3425 3.40914 14.7394L3.71086 14.3406C3.24857 13.9908 2.88663 13.5542 2.62361 13.0282L2.17639 13.2518ZM3.41876 14.7463L7.85876 17.7863L8.14124 17.3737L3.70124 14.3337L3.41876 14.7463ZM8.14094 17.7865L11.9209 15.2065L11.6391 14.7935L7.85906 17.3735L8.14094 17.7865ZM11.78 14.75H7V15.25H11.78V14.75ZM7 14.75C6.78168 14.75 6.6031 14.6796 6.45058 14.5372L6.10942 14.9028C6.3569 15.1337 6.65833 15.25 7 15.25V14.75ZM6.46276 14.5494C6.32042 14.3969 6.25 14.2183 6.25 14H5.75C5.75 14.3417 5.86625 14.6431 6.09724 14.8906L6.46276 14.5494ZM6.25 14V6H5.75V14H6.25ZM6.25 6C6.25 5.78184 6.32006 5.61349 6.45678 5.47678L6.10322 5.12322C5.86661 5.35984 5.75 5.65816 5.75 6H6.25ZM6.45678 5.47678C6.61043 5.32312 6.78706 5.25 7 5.25V4.75C6.65294 4.75 6.34957 4.87687 6.10322 5.12322L6.45678 5.47678ZM7 5.25H14V4.75H7V5.25ZM14.25 5V3.96H13.75V5H14.25ZM14.074 3.72121L8.07403 1.86121L7.92598 2.33879L13.926 4.19879L14.074 3.72121ZM7.75 10V13H8.25V10H7.75ZM8 13.25H17V12.75H8V13.25ZM17.25 13V10H16.75V13H17.25ZM17 9.75H8V10.25H17V9.75ZM8 8.25H17V7.75H8V8.25ZM17.25 8V7H16.75V8H17.25ZM17 6.75H8V7.25H17V6.75ZM7.75 7V8H8.25V7H7.75Z" fill="#F5FBFC"/>
<defs>
<linearGradient id="paint0_linear_416_6501" x1="9" y1="-2" x2="9" y2="22" gradientUnits="userSpaceOnUse">
<stop stop-color="#046FBD"/>
<stop offset="1" stop-color="#2189F4"/>
</linearGradient>
</defs>
</svg>
