<svg width="24" height="24" viewBox="0 0 24 24" fill="none" xmlns="http://www.w3.org/2000/svg">
<g clip-path="url(#clip0_503_7180)">
<path d="M22.5 3.5H12V3C12 2.6717 11.9353 2.34661 11.8097 2.04329C11.6841 1.73998 11.4999 1.46438 11.2678 1.23223C11.0356 1.00009 10.76 0.815938 10.4567 0.690301C10.1534 0.564664 9.8283 0.5 9.5 0.5H7.5C6.83696 0.5 6.20107 0.763392 5.73223 1.23223C5.26339 1.70107 5 2.33696 5 3V3.5H4.5C4.10218 3.5 3.72064 3.65804 3.43934 3.93934C3.15804 4.22064 3 4.60218 3 5V11.04C2.1677 11.1601 1.40648 11.5759 0.85559 12.2113C0.304704 12.8466 0.000985554 13.6591 0 14.5L0 20C0 20.9283 0.368749 21.8185 1.02513 22.4749C1.6815 23.1313 2.57174 23.5 3.5 23.5H5.5C6.34092 23.499 7.15338 23.1953 7.78874 22.6444C8.42409 22.0935 8.83987 21.3323 8.96 20.5H22.5C22.8978 20.5 23.2794 20.342 23.5607 20.0607C23.842 19.7794 24 19.3978 24 19V5C24 4.60218 23.842 4.22064 23.5607 3.93934C23.2794 3.65804 22.8978 3.5 22.5 3.5ZM6 3C6 2.60218 6.15804 2.22064 6.43934 1.93934C6.72064 1.65804 7.10218 1.5 7.5 1.5H9.5C9.89782 1.5 10.2794 1.65804 10.5607 1.93934C10.842 2.22064 11 2.60218 11 3V16C11 16.3978 10.842 16.7794 10.5607 17.0607C10.2794 17.342 9.89782 17.5 9.5 17.5H7.5C7.10218 17.5 6.72064 17.342 6.43934 17.0607C6.15804 16.7794 6 16.3978 6 16V3ZM4 5C4 4.86739 4.05268 4.74022 4.14645 4.64645C4.24021 4.55268 4.36739 4.5 4.5 4.5H5V16C4.99988 16.5763 5.19889 17.135 5.56335 17.5815C5.9278 18.0279 6.43532 18.3347 7 18.45V19.5H4.5C4.36739 19.5 4.24021 19.4473 4.14645 19.3536C4.05268 19.2598 4 19.1326 4 19V5ZM5.5 22.5H3.5C2.83696 22.5 2.20107 22.2366 1.73223 21.7678C1.26339 21.2989 1 20.663 1 20V14.5C0.999882 13.9237 1.19889 13.365 1.56335 12.9186C1.9278 12.4721 2.43532 12.1653 3 12.05V19C3 19.3978 3.15804 19.7794 3.43934 20.0607C3.72064 20.342 4.10218 20.5 4.5 20.5H7.95C7.83473 21.0647 7.52791 21.5722 7.08145 21.9367C6.63499 22.3011 6.07633 22.5001 5.5 22.5ZM8 19.5V18.5H9V19.5H8ZM23 19C23 19.1326 22.9473 19.2598 22.8536 19.3536C22.7598 19.4473 22.6326 19.5 22.5 19.5H10V18.45C10.5647 18.3347 11.0722 18.0279 11.4367 17.5815C11.8011 17.135 12.0001 16.5763 12 16V4.5H22.5C22.6326 4.5 22.7598 4.55268 22.8536 4.64645C22.9473 4.74022 23 4.86739 23 5V19Z" fill="#48494A"/>
<path d="M21.5 5.5H13.5C13.3674 5.5 13.2402 5.55268 13.1464 5.64645C13.0527 5.74021 13 5.86739 13 6V9C13 9.13261 13.0527 9.25979 13.1464 9.35355C13.2402 9.44732 13.3674 9.5 13.5 9.5H21.5C21.6326 9.5 21.7598 9.44732 21.8536 9.35355C21.9473 9.25979 22 9.13261 22 9V6C22 5.86739 21.9473 5.74021 21.8536 5.64645C21.7598 5.55268 21.6326 5.5 21.5 5.5ZM21 8.5H14V6.5H21V8.5Z" fill="url(#paint0_linear_503_7180)"/>
<path d="M15 10.5H14C13.7239 10.5 13.5 10.7239 13.5 11V12C13.5 12.2761 13.7239 12.5 14 12.5H15C15.2761 12.5 15.5 12.2761 15.5 12V11C15.5 10.7239 15.2761 10.5 15 10.5Z" fill="url(#paint1_linear_503_7180)"/>
<path d="M18 10.5H17C16.7239 10.5 16.5 10.7239 16.5 11V12C16.5 12.2761 16.7239 12.5 17 12.5H18C18.2761 12.5 18.5 12.2761 18.5 12V11C18.5 10.7239 18.2761 10.5 18 10.5Z" fill="url(#paint2_linear_503_7180)"/>
<path d="M21 10.5H20C19.7239 10.5 19.5 10.7239 19.5 11V12C19.5 12.2761 19.7239 12.5 20 12.5H21C21.2761 12.5 21.5 12.2761 21.5 12V11C21.5 10.7239 21.2761 10.5 21 10.5Z" fill="url(#paint3_linear_503_7180)"/>
<path d="M15 13.5H14C13.7239 13.5 13.5 13.7239 13.5 14V15C13.5 15.2761 13.7239 15.5 14 15.5H15C15.2761 15.5 15.5 15.2761 15.5 15V14C15.5 13.7239 15.2761 13.5 15 13.5Z" fill="url(#paint4_linear_503_7180)"/>
<path d="M18 13.5H17C16.7239 13.5 16.5 13.7239 16.5 14V15C16.5 15.2761 16.7239 15.5 17 15.5H18C18.2761 15.5 18.5 15.2761 18.5 15V14C18.5 13.7239 18.2761 13.5 18 13.5Z" fill="url(#paint5_linear_503_7180)"/>
<path d="M21 13.5H20C19.7239 13.5 19.5 13.7239 19.5 14V15C19.5 15.2761 19.7239 15.5 20 15.5H21C21.2761 15.5 21.5 15.2761 21.5 15V14C21.5 13.7239 21.2761 13.5 21 13.5Z" fill="url(#paint6_linear_503_7180)"/>
<path d="M15 16.5H14C13.7239 16.5 13.5 16.7239 13.5 17V18C13.5 18.2761 13.7239 18.5 14 18.5H15C15.2761 18.5 15.5 18.2761 15.5 18V17C15.5 16.7239 15.2761 16.5 15 16.5Z" fill="url(#paint7_linear_503_7180)"/>
<path d="M18 16.5H17C16.7239 16.5 16.5 16.7239 16.5 17V18C16.5 18.2761 16.7239 18.5 17 18.5H18C18.2761 18.5 18.5 18.2761 18.5 18V17C18.5 16.7239 18.2761 16.5 18 16.5Z" fill="url(#paint8_linear_503_7180)"/>
<path d="M21 16.5H20C19.7239 16.5 19.5 16.7239 19.5 17V18C19.5 18.2761 19.7239 18.5 20 18.5H21C21.2761 18.5 21.5 18.2761 21.5 18V17C21.5 16.7239 21.2761 16.5 21 16.5Z" fill="url(#paint9_linear_503_7180)"/>
</g>
<defs>
<linearGradient id="paint0_linear_503_7180" x1="17.5" y1="5.5" x2="17.5" y2="9.5" gradientUnits="userSpaceOnUse">
<stop stop-color="#046FBD"/>
<stop offset="1" stop-color="#2189F4"/>
</linearGradient>
<linearGradient id="paint1_linear_503_7180" x1="14.5" y1="10.5" x2="14.5" y2="12.5" gradientUnits="userSpaceOnUse">
<stop stop-color="#046FBD"/>
<stop offset="1" stop-color="#2189F4"/>
</linearGradient>
<linearGradient id="paint2_linear_503_7180" x1="17.5" y1="10.5" x2="17.5" y2="12.5" gradientUnits="userSpaceOnUse">
<stop stop-color="#046FBD"/>
<stop offset="1" stop-color="#2189F4"/>
</linearGradient>
<linearGradient id="paint3_linear_503_7180" x1="20.5" y1="10.5" x2="20.5" y2="12.5" gradientUnits="userSpaceOnUse">
<stop stop-color="#046FBD"/>
<stop offset="1" stop-color="#2189F4"/>
</linearGradient>
<linearGradient id="paint4_linear_503_7180" x1="14.5" y1="13.5" x2="14.5" y2="15.5" gradientUnits="userSpaceOnUse">
<stop stop-color="#046FBD"/>
<stop offset="1" stop-color="#2189F4"/>
</linearGradient>
<linearGradient id="paint5_linear_503_7180" x1="17.5" y1="13.5" x2="17.5" y2="15.5" gradientUnits="userSpaceOnUse">
<stop stop-color="#046FBD"/>
<stop offset="1" stop-color="#2189F4"/>
</linearGradient>
<linearGradient id="paint6_linear_503_7180" x1="20.5" y1="13.5" x2="20.5" y2="15.5" gradientUnits="userSpaceOnUse">
<stop stop-color="#046FBD"/>
<stop offset="1" stop-color="#2189F4"/>
</linearGradient>
<linearGradient id="paint7_linear_503_7180" x1="14.5" y1="16.5" x2="14.5" y2="18.5" gradientUnits="userSpaceOnUse">
<stop stop-color="#046FBD"/>
<stop offset="1" stop-color="#2189F4"/>
</linearGradient>
<linearGradient id="paint8_linear_503_7180" x1="17.5" y1="16.5" x2="17.5" y2="18.5" gradientUnits="userSpaceOnUse">
<stop stop-color="#046FBD"/>
<stop offset="1" stop-color="#2189F4"/>
</linearGradient>
<linearGradient id="paint9_linear_503_7180" x1="20.5" y1="16.5" x2="20.5" y2="18.5" gradientUnits="userSpaceOnUse">
<stop stop-color="#046FBD"/>
<stop offset="1" stop-color="#2189F4"/>
</linearGradient>
<clipPath id="clip0_503_7180">
<rect width="24" height="24" fill="white"/>
</clipPath>
</defs>
</svg>
