<svg width="24" height="24" viewBox="0 0 24 24" fill="none" xmlns="http://www.w3.org/2000/svg">
<g clip-path="url(#clip0_504_7368)">
<path d="M14.692 10.0011L14.5182 10.5943H11.2045L11.3784 10.0011H14.692ZM13.1375 14L11.2659 11.7091L11.2557 11.2795H12.1864C12.4284 11.2795 12.6347 11.2455 12.8051 11.1773C12.9756 11.1074 13.106 11.0034 13.1963 10.8653C13.2866 10.7256 13.3318 10.55 13.3318 10.3386C13.3318 10.0267 13.2381 9.7821 13.0506 9.60483C12.8631 9.42585 12.575 9.33636 12.1864 9.33636H11.2045L11.3784 8.76364H12.1864C12.6023 8.76364 12.9432 8.83267 13.2091 8.97074C13.4767 9.1071 13.6744 9.2946 13.8023 9.53324C13.9318 9.77017 13.9966 10.0386 13.9966 10.3386C13.9966 10.6097 13.9369 10.8594 13.8176 11.0878C13.7 11.3145 13.5108 11.4969 13.25 11.6349C12.9909 11.773 12.6483 11.842 12.2222 11.842H12.2068L13.9352 13.9591V14H13.1375ZM14.692 8.76364L14.5182 9.35682L11.9102 9.33636L12.0841 8.76364H14.692Z" fill="url(#paint0_linear_504_7368)"/>
<path d="M14.692 10.0011L14.788 10.0293L14.8256 9.90114H14.692V10.0011ZM14.5182 10.5943V10.6943H14.5931L14.6141 10.6224L14.5182 10.5943ZM11.2045 10.5943L11.1086 10.5662L11.071 10.6943H11.2045V10.5943ZM11.3784 10.0011V9.90114H11.3035L11.2824 9.97301L11.3784 10.0011ZM13.1375 14L13.0601 14.0633L13.0901 14.1H13.1375V14ZM11.2659 11.7091L11.1659 11.7115L11.1668 11.7458L11.1885 11.7724L11.2659 11.7091ZM11.2557 11.2795V11.1795H11.1533L11.1557 11.2819L11.2557 11.2795ZM12.8051 11.1773L12.8423 11.2701L12.843 11.2698L12.8051 11.1773ZM13.1963 10.8653L13.28 10.9201L13.2803 10.9196L13.1963 10.8653ZM13.0506 9.60483L12.9815 9.67717L12.9819 9.67749L13.0506 9.60483ZM11.2045 9.33636L11.1089 9.30732L11.0697 9.43636H11.2045V9.33636ZM11.3784 8.76364V8.66364H11.3043L11.2827 8.73459L11.3784 8.76364ZM13.2091 8.97074L13.163 9.05949L13.1637 9.05984L13.2091 8.97074ZM13.8023 9.53324L13.7141 9.58046L13.7145 9.58121L13.8023 9.53324ZM13.8176 11.0878L13.729 11.0415L13.7288 11.0417L13.8176 11.0878ZM13.25 11.6349L13.2032 11.5466L13.203 11.5467L13.25 11.6349ZM12.2068 11.842V11.742H11.9961L12.1294 11.9053L12.2068 11.842ZM13.9352 13.9591H14.0352V13.9235L14.0127 13.8958L13.9352 13.9591ZM13.9352 14V14.1H14.0352V14H13.9352ZM14.692 8.76364L14.788 8.79176L14.8256 8.66364H14.692V8.76364ZM14.5182 9.35682L14.5174 9.45681L14.5929 9.45741L14.6141 9.38494L14.5182 9.35682ZM11.9102 9.33636L11.8145 9.30732L11.7757 9.43531L11.9094 9.43636L11.9102 9.33636ZM12.0841 8.76364V8.66364H12.0099L11.9884 8.73459L12.0841 8.76364ZM14.5961 9.97301L14.4222 10.5662L14.6141 10.6224L14.788 10.0293L14.5961 9.97301ZM14.5182 10.4943H11.2045V10.6943H14.5182V10.4943ZM11.3005 10.6224L11.4744 10.0293L11.2824 9.97301L11.1086 10.5662L11.3005 10.6224ZM11.3784 10.1011H14.692V9.90114H11.3784V10.1011ZM13.2149 13.9367L11.3434 11.6458L11.1885 11.7724L13.0601 14.0633L13.2149 13.9367ZM11.3659 11.7067L11.3557 11.2772L11.1557 11.2819L11.1659 11.7115L11.3659 11.7067ZM11.2557 11.3795H12.1864V11.1795H11.2557V11.3795ZM12.1864 11.3795C12.4373 11.3795 12.6569 11.3443 12.8423 11.2701L12.768 11.0844C12.6124 11.1466 12.4195 11.1795 12.1864 11.1795V11.3795ZM12.843 11.2698C13.03 11.1932 13.1773 11.077 13.28 10.9201L13.1126 10.8106C13.0346 10.9298 12.9212 11.0216 12.7672 11.0847L12.843 11.2698ZM13.2803 10.9196C13.3836 10.7598 13.4318 10.5641 13.4318 10.3386H13.2318C13.2318 10.5359 13.1897 10.6913 13.1123 10.8111L13.2803 10.9196ZM13.4318 10.3386C13.4318 10.0054 13.3308 9.73219 13.1193 9.53216L12.9819 9.67749C13.1453 9.83201 13.2318 10.048 13.2318 10.3386H13.4318ZM13.1196 9.53249C12.9061 9.32864 12.5881 9.23636 12.1864 9.23636V9.43636C12.5619 9.43636 12.8201 9.52307 12.9815 9.67716L13.1196 9.53249ZM12.1864 9.23636H11.2045V9.43636H12.1864V9.23636ZM11.3002 9.36541L11.4741 8.79268L11.2827 8.73459L11.1089 9.30732L11.3002 9.36541ZM11.3784 8.86364H12.1864V8.66364H11.3784V8.86364ZM12.1864 8.86364C12.5921 8.86364 12.9158 8.93112 13.163 9.05949L13.2552 8.88199C12.9706 8.73422 12.6124 8.66364 12.1864 8.66364V8.86364ZM13.1637 9.05984C13.4152 9.18799 13.597 9.36177 13.7141 9.58046L13.8904 9.48602C13.7519 9.22743 13.5382 9.02621 13.2545 8.88164L13.1637 9.05984ZM13.7145 9.58121C13.8352 9.80185 13.8966 10.0535 13.8966 10.3386H14.0966C14.0966 10.0238 14.0285 9.73849 13.89 9.48526L13.7145 9.58121ZM13.8966 10.3386C13.8966 10.5944 13.8404 10.8281 13.729 11.0415L13.9062 11.1341C14.0334 10.8906 14.0966 10.6249 14.0966 10.3386H13.8966ZM13.7288 11.0417C13.622 11.2477 13.4489 11.4165 13.2032 11.5466L13.2968 11.7233C13.5727 11.5773 13.778 11.3813 13.9064 11.1338L13.7288 11.0417ZM13.203 11.5467C12.9634 11.6743 12.6388 11.742 12.2222 11.742V11.942C12.6578 11.942 13.0184 11.8717 13.297 11.7232L13.203 11.5467ZM12.2222 11.742H12.2068V11.942H12.2222V11.742ZM12.1294 11.9053L13.8578 14.0223L14.0127 13.8958L12.2843 11.7788L12.1294 11.9053ZM13.8352 13.9591V14H14.0352V13.9591H13.8352ZM13.9352 13.9H13.1375V14.1H13.9352V13.9ZM14.5961 8.73551L14.4222 9.32869L14.6141 9.38494L14.788 8.79176L14.5961 8.73551ZM14.519 9.25682L11.911 9.23637L11.9094 9.43636L14.5174 9.45681L14.519 9.25682ZM12.0059 9.36541L12.1798 8.79268L11.9884 8.73459L11.8145 9.30732L12.0059 9.36541ZM12.0841 8.86364H14.692V8.66364H12.0841V8.86364Z" fill="url(#paint1_linear_504_7368)"/>
<path d="M23.9295 15.6589C23.7456 15.0215 23.2284 14.54 22.5796 14.402C22.1642 14.3135 21.7321 14.3781 21.3631 14.5742C21.5767 13.2455 21.4645 11.871 21.0248 10.5898C20.9408 10.3449 20.6741 10.2148 20.4293 10.2986C20.1844 10.3826 20.054 10.6493 20.138 10.8941C20.6573 12.4072 20.6615 14.067 20.1528 15.5819L16.4172 18.8996C16.1867 19.1043 15.9339 19.2778 15.6653 19.4187C15.7412 19.1115 15.736 18.7861 15.6448 18.477C15.5008 17.9888 15.1549 17.5828 14.6958 17.3629L11.3866 15.7779C9.93975 15.0849 8.24638 15.0048 6.74061 15.5576L6.40423 15.6811C5.47054 13.0435 6.12044 10.1183 8.11991 8.11891L11.4293 4.80957H15.093L17.897 7.61358C18.0801 7.79659 18.3769 7.79659 18.56 7.61358C18.7431 7.43053 18.7431 7.13371 18.56 6.95061L15.8808 4.27157L16.8494 1.48438C16.9792 1.11073 16.8358 0.70309 16.5006 0.492989C16.1656 0.282935 15.7361 0.33164 15.4564 0.611212L15.4506 0.616978C15.2569 0.810812 14.9415 0.810812 14.7477 0.616978C13.925 -0.205659 12.5865 -0.205659 11.7637 0.616978C11.6699 0.710871 11.545 0.762529 11.4123 0.762529C11.2795 0.762529 11.1547 0.710824 11.0609 0.616978C10.7809 0.336984 10.3511 0.288513 10.0158 0.499224C9.68048 0.709887 9.53765 1.11809 9.66848 1.49188L10.6412 4.27185L7.45698 7.45603C6.27855 8.63451 5.4952 10.1203 5.19172 11.7528C4.92551 13.1844 5.04082 14.6442 5.52342 16.0046L4.78441 16.2759C4.5385 15.9562 4.15247 15.7496 3.7189 15.7496H1.34381C0.602833 15.7496 0 16.3525 0 17.0934V22.656C0 23.397 0.602833 23.9998 1.34381 23.9998H13.6988C15.6394 23.9998 17.4746 23.255 18.8662 21.9025L23.4563 17.4414C23.9319 16.9792 24.1132 16.2962 23.9295 15.6589ZM11.4122 1.70011C11.7954 1.70011 12.1557 1.5509 12.4266 1.27995C12.8838 0.822812 13.6276 0.822812 14.0848 1.27995C14.3557 1.5509 14.716 1.70011 15.0992 1.70011C15.3712 1.70011 15.6317 1.62492 15.8569 1.48429L15.0272 3.87209H11.4946L10.6603 1.48785C10.8842 1.62614 11.1425 1.70011 11.4122 1.70011ZM0.937531 22.6561V17.0934C0.937531 16.8694 1.11979 16.6871 1.34381 16.6871H3.71886C3.94288 16.6871 4.12514 16.8694 4.12514 17.0934V22.656C4.12514 22.8801 3.94288 23.0623 3.71886 23.0623H1.34381C1.11979 23.0624 0.937531 22.8801 0.937531 22.6561ZM22.8029 16.7692L18.2128 21.2302C16.9971 22.4117 15.394 23.0624 13.6988 23.0624H4.99971C5.0405 22.9341 5.06267 22.7977 5.06267 22.6561V17.1725L7.06374 16.4378C8.33348 15.9716 9.76158 16.0392 10.9816 16.6235L14.2909 18.2086C14.5141 18.3155 14.6756 18.5051 14.7456 18.7425C14.8156 18.9798 14.7829 19.2268 14.6535 19.4378C14.4456 19.7766 14.0356 19.9291 13.6568 19.8088L9.26042 18.4107C9.01375 18.3323 8.75012 18.4686 8.6716 18.7154C8.59318 18.9621 8.72954 19.2258 8.9763 19.3042L13.3727 20.7022C13.5537 20.7598 13.7381 20.7874 13.9201 20.7874C13.9421 20.7874 13.9639 20.7861 13.9858 20.7853C15.1132 20.7691 16.1953 20.3506 17.0396 19.6007L21.6385 15.5162C21.8409 15.3365 22.1199 15.2628 22.3845 15.3191C22.6987 15.3859 22.9395 15.6101 23.0285 15.9188C23.1176 16.2273 23.0333 16.5453 22.8029 16.7692Z" fill="#48494A"/>
<path d="M19.6289 9.32764C19.7522 9.32764 19.8731 9.27795 19.9603 9.19029C20.0475 9.10311 20.0977 8.98259 20.0977 8.85889C20.0977 8.73561 20.0475 8.61514 19.9603 8.52748C19.8731 8.44034 19.7522 8.39014 19.6289 8.39014C19.5056 8.39014 19.3852 8.44029 19.2975 8.52748C19.2103 8.61514 19.1602 8.73561 19.1602 8.85889C19.1602 8.98264 19.2103 9.10311 19.2975 9.19029C19.3846 9.278 19.5056 9.32764 19.6289 9.32764Z" fill="url(#paint2_linear_504_7368)"/>
</g>
<defs>
<linearGradient id="paint0_linear_504_7368" x1="13" y1="7" x2="13" y2="16" gradientUnits="userSpaceOnUse">
<stop stop-color="#046FBD"/>
<stop offset="1" stop-color="#2189F4"/>
</linearGradient>
<linearGradient id="paint1_linear_504_7368" x1="13" y1="7" x2="13" y2="16" gradientUnits="userSpaceOnUse">
<stop stop-color="#046FBD"/>
<stop offset="1" stop-color="#2189F4"/>
</linearGradient>
<linearGradient id="paint2_linear_504_7368" x1="19.6289" y1="8.39014" x2="19.6289" y2="9.32764" gradientUnits="userSpaceOnUse">
<stop stop-color="#046FBD"/>
<stop offset="1" stop-color="#2189F4"/>
</linearGradient>
<clipPath id="clip0_504_7368">
<rect width="24" height="24" fill="white"/>
</clipPath>
</defs>
</svg>
