<svg width="24" height="24" viewBox="0 0 24 24" fill="none" xmlns="http://www.w3.org/2000/svg">
<path d="M19.7315 7.07236C19.6444 6.98517 19.5235 6.93506 19.4002 6.93506C19.277 6.93506 19.1561 6.98517 19.0689 7.07236C18.9818 7.15954 18.9316 7.28043 18.9316 7.40367C18.9316 7.5269 18.9817 7.64779 19.0689 7.73493C19.1561 7.82207 19.277 7.87228 19.4002 7.87228C19.5235 7.87228 19.6444 7.82212 19.7315 7.73493C19.8187 7.64784 19.8689 7.5269 19.8689 7.40367C19.8689 7.28043 19.8187 7.1595 19.7315 7.07236Z" fill="url(#paint0_linear_504_7487)"/>
<path d="M19.4001 6.0215C19.6588 6.0215 19.8687 5.81165 19.8687 5.5529V1.40578C19.8687 0.630608 19.238 2.6129e-09 18.4629 2.6129e-09H1.40583C0.630655 -4.68723e-05 0 0.630608 0 1.40578V22.5865C0 23.3617 0.630655 23.9924 1.40583 23.9924H18.4629C19.2381 23.9924 19.8687 23.3617 19.8687 22.5865V20.4819C19.8687 20.2231 19.6589 20.0132 19.4001 20.0132C19.1414 20.0132 18.9315 20.2231 18.9315 20.4819V22.5865C18.9315 22.8449 18.7213 23.0551 18.4629 23.0551H1.40583C1.14745 23.0551 0.937217 22.8449 0.937217 22.5865V1.40578C0.937217 1.1474 1.14745 0.93717 1.40583 0.93717H18.4629C18.7213 0.93717 18.9315 1.1474 18.9315 1.40578V5.5529C18.9315 5.81165 19.1413 6.0215 19.4001 6.0215Z" fill="#48494A"/>
<path d="M23.5883 18.847L21.171 16.4297C21.5872 15.6867 21.825 14.8308 21.825 13.9202C21.825 11.0796 19.514 8.76857 16.6734 8.76857C16.645 8.76857 16.6168 8.76918 16.5886 8.76965V6.19125C16.5886 5.9325 16.3787 5.72264 16.12 5.72264H13.3813V3.19224C13.3813 2.93349 13.1714 2.72363 12.9126 2.72363H9.70537C9.44662 2.72363 9.23676 2.93349 9.23676 3.19224V6.00385H6.49805C6.2393 6.00385 6.02944 6.2137 6.02944 6.47245V9.0029H3.74888C3.49013 9.0029 3.28027 9.21276 3.28027 9.47151V12.002C3.28027 12.2607 3.49013 12.4706 3.74888 12.4706H11.7297C11.5945 12.9306 11.5217 13.4171 11.5217 13.9203C11.5217 16.7609 13.8327 19.0719 16.6733 19.0719C17.5839 19.0719 18.4398 18.8342 19.1828 18.4179L21.5843 20.8193C21.8672 21.1022 22.2349 21.2448 22.6011 21.2448C22.9428 21.2448 23.2832 21.1206 23.5517 20.8705C23.8338 20.6077 23.9929 20.251 23.9998 19.8662C24.0066 19.4811 23.8605 19.1193 23.5883 18.847ZM6.02939 11.5333H4.21749V9.94012H6.02944V11.5333H6.02939ZM9.23672 11.5333H6.96661V9.47151V6.94106H9.23672V11.5333ZM10.1739 11.5333V6.47245V3.66085H12.444V6.1913V7.88794V8.52839C12.444 8.78714 12.6538 8.997 12.9126 8.997C13.1713 8.997 13.3812 8.78714 13.3812 8.52839V7.88794V6.65991H15.6514V8.87057C14.1118 9.18168 12.819 10.1815 12.1092 11.5333H10.1739ZM16.6733 18.1347C14.3495 18.1347 12.4588 16.244 12.4588 13.9202C12.4588 11.5964 14.3495 9.70574 16.6733 9.70574C18.9972 9.70574 20.8878 11.5963 20.8878 13.9202C20.8878 16.2441 18.9972 18.1347 16.6733 18.1347ZM22.9129 20.1846C22.7307 20.3543 22.4321 20.3417 22.247 20.1565L19.9679 17.8774C20.2082 17.6769 20.4301 17.4551 20.6306 17.2147L22.9256 19.5096C23.0163 19.6004 23.0651 19.721 23.0628 19.8494C23.0604 19.9778 23.0073 20.0967 22.9129 20.1846Z" fill="#48494A"/>
<path d="M17.8925 11.5245C17.6672 11.3973 17.3813 11.4767 17.2541 11.7022L14.7345 16.1653C14.6072 16.3907 14.6867 16.6765 14.9122 16.8038C14.985 16.8449 15.064 16.8644 15.1421 16.8644C15.3056 16.8644 15.4644 16.7787 15.5505 16.6261L18.0702 12.163C18.1974 11.9375 18.1179 11.6517 17.8925 11.5245Z" fill="url(#paint1_linear_504_7487)"/>
<path d="M18.3101 14.3203C17.535 14.3203 16.9043 14.951 16.9043 15.7261C16.9043 16.5013 17.535 17.1319 18.3101 17.1319C19.0853 17.1319 19.7159 16.5013 19.7159 15.7261C19.7159 14.9509 19.0853 14.3203 18.3101 14.3203ZM18.3101 16.1947C18.0517 16.1947 17.8415 15.9845 17.8415 15.7261C17.8415 15.4677 18.0517 15.2575 18.3101 15.2575C18.5685 15.2575 18.7787 15.4677 18.7787 15.7261C18.7787 15.9845 18.5685 16.1947 18.3101 16.1947Z" fill="url(#paint2_linear_504_7487)"/>
<path d="M15.0367 10.7085C14.2615 10.7085 13.6309 11.3392 13.6309 12.1143C13.6309 12.8895 14.2615 13.5201 15.0367 13.5201C15.8119 13.5201 16.4425 12.8895 16.4425 12.1143C16.4425 11.3392 15.8118 10.7085 15.0367 10.7085ZM15.0367 12.5829C14.7783 12.5829 14.5681 12.3726 14.5681 12.1143C14.5681 11.8559 14.7783 11.6457 15.0367 11.6457C15.2951 11.6457 15.5053 11.8559 15.5053 12.1143C15.5053 12.3726 15.2951 12.5829 15.0367 12.5829Z" fill="url(#paint3_linear_504_7487)"/>
<path d="M15.9729 20.5244H2.99888C2.74013 20.5244 2.53027 20.7343 2.53027 20.993C2.53027 21.2518 2.74013 21.4616 2.99888 21.4616H15.9729C16.2317 21.4616 16.4415 21.2518 16.4415 20.993C16.4415 20.7343 16.2317 20.5244 15.9729 20.5244Z" fill="#48494A"/>
<path d="M9.9347 17.9004H7.02916C6.77041 17.9004 6.56055 18.1103 6.56055 18.369C6.56055 18.6277 6.77041 18.8376 7.02916 18.8376H9.9347C10.1934 18.8376 10.4033 18.6277 10.4033 18.369C10.4033 18.1103 10.1934 17.9004 9.9347 17.9004Z" fill="url(#paint4_linear_504_7487)"/>
<path d="M11.9835 18.0377C11.8964 17.9505 11.7754 17.9004 11.6522 17.9004C11.529 17.9004 11.4081 17.9505 11.3209 18.0377C11.2333 18.1248 11.1836 18.2458 11.1836 18.369C11.1836 18.4922 11.2333 18.6131 11.3209 18.7003C11.408 18.7874 11.5285 18.8376 11.6522 18.8376C11.7754 18.8376 11.8963 18.7875 11.9835 18.7003C12.0706 18.6132 12.1208 18.4922 12.1208 18.369C12.1208 18.2457 12.0707 18.1248 11.9835 18.0377Z" fill="#48494A"/>
<path d="M9.9347 15.2764H7.02916C6.77041 15.2764 6.56055 15.4862 6.56055 15.745C6.56055 16.0037 6.77041 16.2136 7.02916 16.2136H9.9347C10.1934 16.2136 10.4033 16.0037 10.4033 15.745C10.4033 15.4862 10.1934 15.2764 9.9347 15.2764Z" fill="url(#paint5_linear_504_7487)"/>
<defs>
<linearGradient id="paint0_linear_504_7487" x1="19.4002" y1="6.93506" x2="19.4002" y2="7.87228" gradientUnits="userSpaceOnUse">
<stop stop-color="#046FBD"/>
<stop offset="1" stop-color="#2189F4"/>
</linearGradient>
<linearGradient id="paint1_linear_504_7487" x1="16.4023" y1="11.4639" x2="16.4023" y2="16.8644" gradientUnits="userSpaceOnUse">
<stop stop-color="#046FBD"/>
<stop offset="1" stop-color="#2189F4"/>
</linearGradient>
<linearGradient id="paint2_linear_504_7487" x1="18.3101" y1="14.3203" x2="18.3101" y2="17.1319" gradientUnits="userSpaceOnUse">
<stop stop-color="#046FBD"/>
<stop offset="1" stop-color="#2189F4"/>
</linearGradient>
<linearGradient id="paint3_linear_504_7487" x1="15.0367" y1="10.7085" x2="15.0367" y2="13.5201" gradientUnits="userSpaceOnUse">
<stop stop-color="#046FBD"/>
<stop offset="1" stop-color="#2189F4"/>
</linearGradient>
<linearGradient id="paint4_linear_504_7487" x1="8.48193" y1="17.9004" x2="8.48193" y2="18.8376" gradientUnits="userSpaceOnUse">
<stop stop-color="#046FBD"/>
<stop offset="1" stop-color="#2189F4"/>
</linearGradient>
<linearGradient id="paint5_linear_504_7487" x1="8.48193" y1="15.2764" x2="8.48193" y2="16.2136" gradientUnits="userSpaceOnUse">
<stop stop-color="#046FBD"/>
<stop offset="1" stop-color="#2189F4"/>
</linearGradient>
</defs>
</svg>
