<svg width="16" height="21" viewBox="0 0 16 21" fill="none" xmlns="http://www.w3.org/2000/svg">
<path d="M8 5C9.45333 5 10.8 5.36667 12.04 6.1C13.24 6.80667 14.1933 7.76 14.9 8.96C15.6333 10.2 16 11.5467 16 13C16 14.4533 15.6333 15.8 14.9 17.04C14.1933 18.24 13.24 19.1933 12.04 19.9C10.8 20.6333 9.45333 21 8 21C6.54667 21 5.2 20.6333 3.96 19.9C2.76 19.1933 1.80667 18.24 1.1 17.04C0.366667 15.8 1.19209e-07 14.4533 1.19209e-07 13C1.19209e-07 11.5467 0.366667 10.2 1.1 8.96C1.80667 7.76 2.76 6.80667 3.96 6.1C5.2 5.36667 6.54667 5 8 5ZM8 7C6.92 7 5.91333 7.27333 4.98 7.82C4.07333 8.35333 3.35333 9.07333 2.82 9.98C2.27333 10.9133 2 11.92 2 13C2 14.08 2.27333 15.0867 2.82 16.02C3.35333 16.9267 4.07333 17.6467 4.98 18.18C5.91333 18.7267 6.92 19 8 19C9.08 19 10.0867 18.7267 11.02 18.18C11.9267 17.6467 12.6467 16.9267 13.18 16.02C13.7267 15.0867 14 14.08 14 13C14 11.92 13.7267 10.9133 13.18 9.98C12.6467 9.07333 11.9267 8.35333 11.02 7.82C10.0867 7.27333 9.08 7 8 7ZM8 8.5L9.32 11.18L12.28 11.6L10.14 13.7L10.64 16.64L8 15.24L5.36 16.64L5.86 13.7L3.72 11.6L6.68 11.18L8 8.5ZM14 -4.76837e-07V3L12.64 4.14C11.4933 3.54 10.28 3.17333 9 3.04V-4.76837e-07H14ZM7 -4.76837e-07V3.04C5.72 3.17333 4.50667 3.54 3.36 4.14L2 3V-4.76837e-07H7Z" fill="url(#paint0_linear_416_6495)"/>
<path d="M12.04 6.1L11.9127 6.31519L11.9131 6.31542L12.04 6.1ZM14.9 8.96L14.6846 9.08686L14.6848 9.08726L14.9 8.96ZM14.9 17.04L14.6848 16.9127L14.6846 16.9131L14.9 17.04ZM12.04 19.9L11.9131 19.6846L11.9127 19.6848L12.04 19.9ZM3.96 19.9L4.08726 19.6848L4.08686 19.6846L3.96 19.9ZM1.1 17.04L1.31542 16.9131L1.31519 16.9127L1.1 17.04ZM1.1 8.96L1.31519 9.08726L1.31542 9.08686L1.1 8.96ZM3.96 6.1L4.08686 6.31542L4.08726 6.31518L3.96 6.1ZM4.98 7.82L4.85365 7.60428L4.85324 7.60452L4.98 7.82ZM2.82 9.98L2.60452 9.85324L2.60428 9.85365L2.82 9.98ZM2.82 16.02L2.60428 16.1464L2.60452 16.1468L2.82 16.02ZM4.98 18.18L4.85324 18.3955L4.85365 18.3957L4.98 18.18ZM11.02 18.18L11.1464 18.3957L11.1468 18.3955L11.02 18.18ZM13.18 16.02L13.3955 16.1468L13.3957 16.1464L13.18 16.02ZM13.18 9.98L13.3957 9.85365L13.3955 9.85324L13.18 9.98ZM11.02 7.82L11.1468 7.60452L11.1464 7.60428L11.02 7.82ZM8 8.5L8.22427 8.38954L8 7.9342L7.77573 8.38954L8 8.5ZM9.32 11.18L9.09573 11.2905L9.15409 11.409L9.28488 11.4275L9.32 11.18ZM12.28 11.6L12.4551 11.7784L12.8167 11.4236L12.3151 11.3525L12.28 11.6ZM10.14 13.7L9.9649 13.5216L9.87163 13.6131L9.89354 13.7419L10.14 13.7ZM10.64 16.64L10.5229 16.8609L10.9716 17.0988L10.8865 16.5981L10.64 16.64ZM8 15.24L8.11713 15.0191L8 14.957L7.88287 15.0191L8 15.24ZM5.36 16.64L5.11354 16.5981L5.02838 17.0988L5.47713 16.8609L5.36 16.64ZM5.86 13.7L6.10646 13.7419L6.12837 13.6131L6.0351 13.5216L5.86 13.7ZM3.72 11.6L3.68488 11.3525L3.18335 11.4236L3.5449 11.7784L3.72 11.6ZM6.68 11.18L6.71512 11.4275L6.84591 11.409L6.90427 11.2905L6.68 11.18ZM14 -4.76837e-07H14.25V-0.25H14V-4.76837e-07ZM14 3L14.1606 3.19159L14.25 3.11665V3H14ZM12.64 4.14L12.5241 4.36151L12.6724 4.43909L12.8006 4.33159L12.64 4.14ZM9 3.04H8.75V3.26531L8.9741 3.28865L9 3.04ZM9 -4.76837e-07V-0.25H8.75V-4.76837e-07H9ZM7 -4.76837e-07H7.25V-0.25H7V-4.76837e-07ZM7 3.04L7.0259 3.28865L7.25 3.26531V3.04H7ZM3.36 4.14L3.1994 4.33159L3.32764 4.43909L3.47591 4.36151L3.36 4.14ZM2 3H1.75V3.11665L1.8394 3.19159L2 3ZM2 -4.76837e-07V-0.25H1.75V-4.76837e-07H2ZM8 5.25C9.40898 5.25 10.7116 5.60485 11.9127 6.31518L12.1673 5.88481C10.8884 5.12848 9.49769 4.75 8 4.75V5.25ZM11.9131 6.31542C13.0766 7.00056 13.9994 7.92342 14.6846 9.08686L15.1154 8.83314C14.3872 7.59658 13.4034 6.61277 12.1669 5.88458L11.9131 6.31542ZM14.6848 9.08726C15.3951 10.2884 15.75 11.591 15.75 13H16.25C16.25 11.5023 15.8715 10.1116 15.1152 8.83274L14.6848 9.08726ZM15.75 13C15.75 14.409 15.3951 15.7116 14.6848 16.9127L15.1152 17.1673C15.8715 15.8884 16.25 14.4977 16.25 13H15.75ZM14.6846 16.9131C13.9994 18.0766 13.0766 18.9994 11.9131 19.6846L12.1669 20.1154C13.4034 19.3872 14.3872 18.4034 15.1154 17.1669L14.6846 16.9131ZM11.9127 19.6848C10.7116 20.3951 9.40898 20.75 8 20.75V21.25C9.49769 21.25 10.8884 20.8715 12.1673 20.1152L11.9127 19.6848ZM8 20.75C6.59102 20.75 5.28837 20.3951 4.08726 19.6848L3.83274 20.1152C5.11163 20.8715 6.50231 21.25 8 21.25V20.75ZM4.08686 19.6846C2.92342 18.9994 2.00056 18.0766 1.31542 16.9131L0.884578 17.1669C1.61277 18.4034 2.59658 19.3872 3.83314 20.1154L4.08686 19.6846ZM1.31519 16.9127C0.604854 15.7116 0.25 14.409 0.25 13H-0.25C-0.25 14.4977 0.128479 15.8884 0.884815 17.1673L1.31519 16.9127ZM0.25 13C0.25 11.591 0.604854 10.2884 1.31519 9.08726L0.884815 8.83274C0.128479 10.1116 -0.25 11.5023 -0.25 13H0.25ZM1.31542 9.08686C2.00056 7.92342 2.92342 7.00056 4.08686 6.31542L3.83314 5.88458C2.59658 6.61277 1.61277 7.59658 0.884578 8.83314L1.31542 9.08686ZM4.08726 6.31518C5.28837 5.60485 6.59102 5.25 8 5.25V4.75C6.50231 4.75 5.11163 5.12848 3.83274 5.88481L4.08726 6.31518ZM8 6.75C6.87551 6.75 5.82525 7.0352 4.85365 7.60428L5.10635 8.03572C6.00142 7.51147 6.96449 7.25 8 7.25V6.75ZM4.85324 7.60452C3.90994 8.1594 3.1594 8.90994 2.60452 9.85324L3.03548 10.1068C3.54726 9.23673 4.23673 8.54726 5.10676 8.03548L4.85324 7.60452ZM2.60428 9.85365C2.0352 10.8252 1.75 11.8755 1.75 13H2.25C2.25 11.9645 2.51147 11.0014 3.03572 10.1064L2.60428 9.85365ZM1.75 13C1.75 14.1245 2.0352 15.1748 2.60428 16.1464L3.03572 15.8937C2.51147 14.9986 2.25 14.0355 2.25 13H1.75ZM2.60452 16.1468C3.1594 17.0901 3.90994 17.8406 4.85324 18.3955L5.10676 17.9645C4.23673 17.4527 3.54726 16.7633 3.03548 15.8932L2.60452 16.1468ZM4.85365 18.3957C5.82524 18.9648 6.87551 19.25 8 19.25V18.75C6.96449 18.75 6.00142 18.4885 5.10635 17.9643L4.85365 18.3957ZM8 19.25C9.12449 19.25 10.1748 18.9648 11.1464 18.3957L10.8936 17.9643C9.99858 18.4885 9.03551 18.75 8 18.75V19.25ZM11.1468 18.3955C12.0901 17.8406 12.8406 17.0901 13.3955 16.1468L12.9645 15.8932C12.4527 16.7633 11.7633 17.4527 10.8932 17.9645L11.1468 18.3955ZM13.3957 16.1464C13.9648 15.1748 14.25 14.1245 14.25 13H13.75C13.75 14.0355 13.4885 14.9986 12.9643 15.8937L13.3957 16.1464ZM14.25 13C14.25 11.8755 13.9648 10.8252 13.3957 9.85365L12.9643 10.1064C13.4885 11.0014 13.75 11.9645 13.75 13H14.25ZM13.3955 9.85324C12.8406 8.90994 12.0901 8.1594 11.1468 7.60452L10.8932 8.03548C11.7633 8.54726 12.4527 9.23673 12.9645 10.1068L13.3955 9.85324ZM11.1464 7.60428C10.1748 7.0352 9.12449 6.75 8 6.75V7.25C9.03551 7.25 9.99858 7.51147 10.8936 8.03572L11.1464 7.60428ZM7.77573 8.61046L9.09573 11.2905L9.54427 11.0695L8.22427 8.38954L7.77573 8.61046ZM9.28488 11.4275L12.2449 11.8475L12.3151 11.3525L9.35512 10.9325L9.28488 11.4275ZM12.1049 11.4216L9.9649 13.5216L10.3151 13.8784L12.4551 11.7784L12.1049 11.4216ZM9.89354 13.7419L10.3935 16.6819L10.8865 16.5981L10.3865 13.6581L9.89354 13.7419ZM10.7571 16.4191L8.11713 15.0191L7.88287 15.4609L10.5229 16.8609L10.7571 16.4191ZM7.88287 15.0191L5.24288 16.4191L5.47713 16.8609L8.11713 15.4609L7.88287 15.0191ZM5.60646 16.6819L6.10646 13.7419L5.61354 13.6581L5.11354 16.5981L5.60646 16.6819ZM6.0351 13.5216L3.8951 11.4216L3.5449 11.7784L5.6849 13.8784L6.0351 13.5216ZM3.75512 11.8475L6.71512 11.4275L6.64488 10.9325L3.68488 11.3525L3.75512 11.8475ZM6.90427 11.2905L8.22427 8.61046L7.77573 8.38954L6.45573 11.0695L6.90427 11.2905ZM13.75 -4.76837e-07V3H14.25V-4.76837e-07H13.75ZM13.8394 2.80841L12.4794 3.94841L12.8006 4.33159L14.1606 3.19159L13.8394 2.80841ZM12.7559 3.91849C11.5814 3.30392 10.3375 2.92797 9.0259 2.79134L8.9741 3.28865C10.2225 3.41869 11.4053 3.77608 12.5241 4.36151L12.7559 3.91849ZM9.25 3.04V-4.76837e-07H8.75V3.04H9.25ZM9 0.25H14V-0.25H9V0.25ZM6.75 -4.76837e-07V3.04H7.25V-4.76837e-07H6.75ZM6.9741 2.79134C5.66247 2.92797 4.41861 3.30392 3.24409 3.91849L3.47591 4.36151C4.59472 3.77608 5.77753 3.41869 7.0259 3.28865L6.9741 2.79134ZM3.5206 3.94841L2.1606 2.80841L1.8394 3.19159L3.1994 4.33159L3.5206 3.94841ZM2.25 3V-4.76837e-07H1.75V3H2.25ZM2 0.25H7V-0.25H2V0.25Z" fill="#F5FBFC"/>
<defs>
<linearGradient id="paint0_linear_416_6495" x1="8" y1="-2" x2="8" y2="22" gradientUnits="userSpaceOnUse">
<stop stop-color="#046FBD"/>
<stop offset="1" stop-color="#2189F4"/>
</linearGradient>
</defs>
</svg>
