<svg width="18" height="19" viewBox="0 0 18 19" fill="none" xmlns="http://www.w3.org/2000/svg">
<path d="M14.5867 15.7924H2.20754C2.12829 15.7924 2.05471 15.7754 1.98678 15.7414C1.91886 15.6962 1.86226 15.6396 1.81697 15.5716C1.78301 15.4924 1.77169 15.4131 1.78301 15.3339C1.79433 15.2546 1.82263 15.1811 1.86792 15.1131L2.20754 14.6546V7.30185C2.20754 6.19242 2.46225 5.15092 2.97168 4.17734L0 1.18867L1.18867 0L17.9999 16.8112L16.8112 17.9999L14.5867 15.7924ZM4.24526 5.45092C4.01885 6.05092 3.90564 6.66789 3.90564 7.30185V14.0943H12.8886L4.24526 5.45092ZM15.7924 12.2094L14.0943 10.5113V7.30185C14.0943 6.3962 13.8679 5.5528 13.415 4.77168C12.9622 3.97923 12.3396 3.35659 11.5471 2.90376C10.766 2.43961 9.91693 2.20754 8.99996 2.20754C8.0943 2.20754 7.25091 2.43395 6.46978 2.88678L5.23016 1.64716C6.27167 0.956598 7.41506 0.583015 8.66034 0.526412C9.91693 0.458488 11.0943 0.718864 12.1924 1.30754C13.3018 1.89622 14.1792 2.72829 14.8245 3.80376C15.4697 4.87922 15.7924 6.04525 15.7924 7.30185V12.2094ZM6.87733 16.6414H11.1226C11.1226 17.0263 11.0264 17.3829 10.8339 17.7112C10.6415 18.0282 10.3811 18.2829 10.0528 18.4754C9.7358 18.6678 9.38486 18.7641 8.99996 18.7641C8.61505 18.7641 8.25845 18.6678 7.93015 18.4754C7.61317 18.2829 7.35846 18.0282 7.166 17.7112C6.97355 17.3829 6.87733 17.0263 6.87733 16.6414Z" fill="white"/>
</svg>
