<svg width="25" height="24" viewBox="0 0 25 24" fill="none" xmlns="http://www.w3.org/2000/svg">
<path d="M16.9232 9.4478V7.3008C16.9232 4.7878 14.8852 2.7498 12.3722 2.7498C9.85925 2.7388 7.81325 4.7668 7.80225 7.2808V7.3008V9.4478" stroke="url(#paint0_linear_51_6002)" stroke-width="1.5" stroke-linecap="round" stroke-linejoin="round"/>
<path fill-rule="evenodd" clip-rule="evenodd" d="M16.183 21.2497H8.542C6.448 21.2497 4.75 19.5527 4.75 17.4577V13.1687C4.75 11.0737 6.448 9.37671 8.542 9.37671H16.183C18.277 9.37671 19.975 11.0737 19.975 13.1687V17.4577C19.975 19.5527 18.277 21.2497 16.183 21.2497Z" stroke="url(#paint1_linear_51_6002)" stroke-width="1.5" stroke-linecap="round" stroke-linejoin="round"/>
<path d="M12.3628 14.2026V16.4236" stroke="url(#paint2_linear_51_6002)" stroke-width="1.5" stroke-linecap="round" stroke-linejoin="round"/>
<defs>
<linearGradient id="paint0_linear_51_6002" x1="12.3627" y1="2.74976" x2="12.3627" y2="9.4478" gradientUnits="userSpaceOnUse">
<stop stop-color="#046FBD"/>
<stop offset="1" stop-color="#2189F4"/>
</linearGradient>
<linearGradient id="paint1_linear_51_6002" x1="12.3625" y1="9.37671" x2="12.3625" y2="21.2497" gradientUnits="userSpaceOnUse">
<stop stop-color="#046FBD"/>
<stop offset="1" stop-color="#2189F4"/>
</linearGradient>
<linearGradient id="paint2_linear_51_6002" x1="12.3628" y1="14.2026" x2="12.3628" y2="16.4236" gradientUnits="userSpaceOnUse">
<stop stop-color="#046FBD"/>
<stop offset="1" stop-color="#2189F4"/>
</linearGradient>
</defs>
</svg>
