<svg width="30" height="35" viewBox="0 0 30 35" fill="none" xmlns="http://www.w3.org/2000/svg">
<path d="M23.8983 8.43667L26.21 6.15667L28.4267 8.37333L26.1467 10.685C27.6878 12.6272 28.6589 14.8122 29.06 17.24C29.4611 19.6256 29.2711 21.9478 28.49 24.2067C27.6878 26.55 26.3578 28.5556 24.5 30.2233C22.6422 31.87 20.51 32.9572 18.1033 33.485C15.76 34.0128 13.4378 33.9494 11.1367 33.295C8.75111 32.6194 6.68222 31.4056 4.93 29.6533C3.17778 27.9011 1.96389 25.8322 1.28833 23.4467C0.633889 21.1456 0.570556 18.8233 1.09833 16.48C1.62611 14.0733 2.71333 11.9411 4.36 10.0833C6.02778 8.22555 8.03333 6.89555 10.3767 6.09333C12.6356 5.31222 14.9578 5.12222 17.3433 5.52333C19.7711 5.92444 21.9561 6.89556 23.8983 8.43667ZM13.4167 11.6667V21.1667H16.5833V11.6667H13.4167ZM8.66667 0.583332H21.3333V3.75H8.66667V0.583332Z" fill="#EE8A42"/>
</svg>
