<svg width="16" height="21" viewBox="0 0 16 21" fill="none" xmlns="http://www.w3.org/2000/svg">
<path d="M16 21H14V19C14 18.4533 13.8667 17.9533 13.6 17.5C13.3333 17.0333 12.9667 16.6667 12.5 16.4C12.0467 16.1333 11.5467 16 11 16H5C4.45333 16 3.94667 16.1333 3.48 16.4C3.02667 16.6667 2.66667 17.0333 2.4 17.5C2.13333 17.9533 2 18.4533 2 19V21H1.19209e-07V19C1.19209e-07 18.0933 0.22 17.26 0.66 16.5C1.11333 15.7267 1.72 15.12 2.48 14.68C3.25333 14.2267 4.09333 14 5 14H11C11.9067 14 12.74 14.2267 13.5 14.68C14.2733 15.12 14.88 15.7267 15.32 16.5C15.7733 17.26 16 18.0933 16 19V21ZM8 12C6.92 12 5.91333 11.7267 4.98 11.18C4.07333 10.6467 3.35333 9.92667 2.82 9.02C2.27333 8.08667 2 7.08 2 6C2 4.92 2.27333 3.91333 2.82 2.98C3.35333 2.07333 4.07333 1.35333 4.98 0.82C5.91333 0.273333 6.92 -9.53674e-07 8 -9.53674e-07C9.08 -9.53674e-07 10.0867 0.273333 11.02 0.82C11.9267 1.35333 12.6467 2.07333 13.18 2.98C13.7267 3.91333 14 4.92 14 6C14 7.08 13.7267 8.08667 13.18 9.02C12.6467 9.92667 11.9267 10.6467 11.02 11.18C10.0867 11.7267 9.08 12 8 12ZM8 10C8.72 10 9.38667 9.82 10 9.46C10.6133 9.1 11.1 8.61333 11.46 8C11.82 7.38667 12 6.72 12 6C12 5.28 11.82 4.61333 11.46 4C11.1 3.38667 10.6133 2.9 10 2.54C9.38667 2.18 8.72 2 8 2C7.28 2 6.61333 2.18 6 2.54C5.38667 2.9 4.9 3.38667 4.54 4C4.18 4.61333 4 5.28 4 6C4 6.72 4.18 7.38667 4.54 8C4.9 8.61333 5.38667 9.1 6 9.46C6.61333 9.82 7.28 10 8 10Z" fill="url(#paint0_linear_416_6507)"/>
<path d="M16 21V21.25H16.25V21H16ZM14 21H13.75V21.25H14V21ZM13.6 17.5L13.3829 17.624L13.3845 17.6268L13.6 17.5ZM12.5 16.4L12.3732 16.6155L12.376 16.6171L12.5 16.4ZM3.48 16.4L3.35596 16.1829L3.35324 16.1845L3.48 16.4ZM2.4 17.5L2.6155 17.6268L2.61706 17.624L2.4 17.5ZM2 21V21.25H2.25V21H2ZM0 21H-0.25V21.25H0V21ZM0.66 16.5L0.444323 16.3736L0.443644 16.3747L0.66 16.5ZM2.48 14.68L2.60526 14.8964L2.60643 14.8957L2.48 14.68ZM13.5 14.68L13.3719 14.8948L13.3764 14.8973L13.5 14.68ZM15.32 16.5L15.1027 16.6237L15.1053 16.6281L15.32 16.5ZM4.98 11.18L4.85324 11.3955L4.85365 11.3957L4.98 11.18ZM2.82 9.02L2.60428 9.14635L2.60452 9.14675L2.82 9.02ZM2.82 2.98L2.60452 2.85324L2.60428 2.85365L2.82 2.98ZM4.98 0.82L4.85365 0.604279L4.85324 0.604516L4.98 0.82ZM11.02 0.82L11.1468 0.604516L11.1464 0.604279L11.02 0.82ZM13.18 2.98L13.3957 2.85365L13.3955 2.85324L13.18 2.98ZM13.18 9.02L13.3955 9.14675L13.3957 9.14635L13.18 9.02ZM11.02 11.18L11.1464 11.3957L11.1468 11.3955L11.02 11.18ZM10 9.46L10.1266 9.6756H10.1266L10 9.46ZM11.46 8L11.6756 8.12655V8.12655L11.46 8ZM11.46 4L11.6756 3.87345L11.46 4ZM10 2.54L10.1266 2.3244V2.3244L10 2.54ZM6 2.54L6.12655 2.7556L6 2.54ZM4.54 4L4.7556 4.12655L4.54 4ZM4.54 8L4.3244 8.12655L4.54 8ZM6 9.46L5.87345 9.6756L6 9.46ZM16 20.75H14V21.25H16V20.75ZM14.25 21V19H13.75V21H14.25ZM14.25 19C14.25 18.4106 14.1057 17.8665 13.8155 17.3732L13.3845 17.6268C13.6277 18.0401 13.75 18.4961 13.75 19H14.25ZM13.8171 17.376C13.5282 16.8705 13.1295 16.4718 12.624 16.1829L12.376 16.6171C12.8039 16.8616 13.1384 17.1961 13.3829 17.624L13.8171 17.376ZM12.6268 16.1845C12.1335 15.8943 11.5894 15.75 11 15.75V16.25C11.5039 16.25 11.9599 16.3723 12.3732 16.6155L12.6268 16.1845ZM11 15.75H5V16.25H11V15.75ZM5 15.75C4.41061 15.75 3.86108 15.8943 3.35597 16.1829L3.60403 16.6171C4.03226 16.3724 4.49606 16.25 5 16.25V15.75ZM3.35324 16.1845C2.8615 16.4738 2.47073 16.8723 2.18294 17.376L2.61706 17.624C2.86261 17.1943 3.19183 16.8596 3.60676 16.6155L3.35324 16.1845ZM2.18452 17.3732C1.89434 17.8665 1.75 18.4106 1.75 19H2.25C2.25 18.4961 2.37233 18.0401 2.61548 17.6268L2.18452 17.3732ZM1.75 19V21H2.25V19H1.75ZM2 20.75H0V21.25H2V20.75ZM0.25 21V19H-0.25V21H0.25ZM0.25 19C0.25 18.1358 0.45913 17.3459 0.876357 16.6253L0.443644 16.3747C-0.0191302 17.1741 -0.25 18.0508 -0.25 19H0.25ZM0.875675 16.6264C1.30762 15.8896 1.88347 15.3142 2.60526 14.8964L2.35474 14.4636C1.55653 14.9258 0.919043 15.5638 0.444326 16.3736L0.875675 16.6264ZM2.60643 14.8957C3.34096 14.4651 4.13724 14.25 5 14.25V13.75C4.04942 13.75 3.16571 13.9882 2.35357 14.4643L2.60643 14.8957ZM5 14.25H11V13.75H5V14.25ZM11 14.25C11.8627 14.25 12.6516 14.4651 13.3719 14.8947L13.6281 14.4653C12.8284 13.9883 11.9506 13.75 11 13.75V14.25ZM13.3764 14.8973C14.1106 15.3151 14.6849 15.8894 15.1027 16.6236L15.5373 16.3764C15.0751 15.564 14.436 14.9249 13.6236 14.4627L13.3764 14.8973ZM15.1053 16.6281C15.5349 17.3484 15.75 18.1373 15.75 19H16.25C16.25 18.0494 16.0117 17.1716 15.5347 16.3719L15.1053 16.6281ZM15.75 19V21H16.25V19H15.75ZM8 11.75C6.96449 11.75 6.00142 11.4885 5.10635 10.9643L4.85365 11.3957C5.82524 11.9648 6.87551 12.25 8 12.25V11.75ZM5.10676 10.9645C4.23673 10.4527 3.54726 9.76327 3.03548 8.89324L2.60452 9.14675C3.1594 10.0901 3.90994 10.8406 4.85324 11.3955L5.10676 10.9645ZM3.03572 8.89365C2.51147 7.99858 2.25 7.03551 2.25 6H1.75C1.75 7.12448 2.0352 8.17475 2.60428 9.14635L3.03572 8.89365ZM2.25 6C2.25 4.96448 2.51147 4.00142 3.03572 3.10635L2.60428 2.85365C2.0352 3.82524 1.75 4.87551 1.75 6H2.25ZM3.03548 3.10675C3.54726 2.23673 4.23673 1.54726 5.10676 1.03548L4.85324 0.604516C3.90994 1.1594 3.1594 1.90994 2.60452 2.85324L3.03548 3.10675ZM5.10635 1.03572C6.00142 0.511464 6.96449 0.249999 8 0.249999V-0.250001C6.87551 -0.250001 5.82524 0.0352007 4.85365 0.604279L5.10635 1.03572ZM8 0.249999C9.03551 0.249999 9.99858 0.511464 10.8936 1.03572L11.1464 0.604279C10.1748 0.0352007 9.12449 -0.250001 8 -0.250001V0.249999ZM10.8932 1.03548C11.7633 1.54726 12.4527 2.23673 12.9645 3.10675L13.3955 2.85324C12.8406 1.90994 12.0901 1.1594 11.1468 0.604516L10.8932 1.03548ZM12.9643 3.10635C13.4885 4.00142 13.75 4.96448 13.75 6H14.25C14.25 4.87551 13.9648 3.82524 13.3957 2.85365L12.9643 3.10635ZM13.75 6C13.75 7.03551 13.4885 7.99858 12.9643 8.89365L13.3957 9.14635C13.9648 8.17475 14.25 7.12448 14.25 6H13.75ZM12.9645 8.89324C12.4527 9.76327 11.7633 10.4527 10.8932 10.9645L11.1468 11.3955C12.0901 10.8406 12.8406 10.0901 13.3955 9.14675L12.9645 8.89324ZM10.8936 10.9643C9.99858 11.4885 9.03551 11.75 8 11.75V12.25C9.12449 12.25 10.1748 11.9648 11.1464 11.3957L10.8936 10.9643ZM8 10.25C8.76391 10.25 9.47435 10.0584 10.1266 9.6756L9.87345 9.2444C9.29899 9.58158 8.67609 9.75 8 9.75V10.25ZM10.1266 9.6756C10.7767 9.294 11.294 8.77668 11.6756 8.12655L11.2444 7.87345C10.906 8.44998 10.45 8.90599 9.87345 9.2444L10.1266 9.6756ZM11.6756 8.12655C12.0584 7.47435 12.25 6.76391 12.25 6H11.75C11.75 6.67609 11.5816 7.29898 11.2444 7.87345L11.6756 8.12655ZM12.25 6C12.25 5.23609 12.0584 4.52565 11.6756 3.87345L11.2444 4.12655C11.5816 4.70101 11.75 5.32391 11.75 6H12.25ZM11.6756 3.87345C11.294 3.22332 10.7767 2.70599 10.1266 2.3244L9.87345 2.7556C10.45 3.094 10.906 3.55001 11.2444 4.12655L11.6756 3.87345ZM10.1266 2.3244C9.47435 1.94158 8.76391 1.75 8 1.75V2.25C8.67609 2.25 9.29899 2.41842 9.87345 2.7556L10.1266 2.3244ZM8 1.75C7.23609 1.75 6.52565 1.94158 5.87345 2.3244L6.12655 2.7556C6.70102 2.41842 7.32391 2.25 8 2.25V1.75ZM5.87345 2.3244C5.22332 2.70599 4.70599 3.22332 4.3244 3.87345L4.7556 4.12655C5.09401 3.55001 5.55001 3.094 6.12655 2.7556L5.87345 2.3244ZM4.3244 3.87345C3.94158 4.52565 3.75 5.23609 3.75 6H4.25C4.25 5.32391 4.41842 4.70101 4.7556 4.12655L4.3244 3.87345ZM3.75 6C3.75 6.76391 3.94158 7.47435 4.3244 8.12655L4.7556 7.87345C4.41842 7.29898 4.25 6.67609 4.25 6H3.75ZM4.3244 8.12655C4.70599 8.77668 5.22332 9.294 5.87345 9.6756L6.12655 9.2444C5.55001 8.90599 5.09401 8.44998 4.7556 7.87345L4.3244 8.12655ZM5.87345 9.6756C6.52565 10.0584 7.23609 10.25 8 10.25V9.75C7.32391 9.75 6.70102 9.58158 6.12655 9.2444L5.87345 9.6756Z" fill="#F5FBFC"/>
<defs>
<linearGradient id="paint0_linear_416_6507" x1="8" y1="-1" x2="8" y2="23" gradientUnits="userSpaceOnUse">
<stop stop-color="#046FBD"/>
<stop offset="1" stop-color="#2189F4"/>
</linearGradient>
</defs>
</svg>
