<svg width="19" height="19" viewBox="0 0 19 19" fill="none" xmlns="http://www.w3.org/2000/svg">
<path d="M8.625 8.625V5.125H10.375V8.625H13.875V10.375H10.375V13.875H8.625V10.375H5.125V8.625H8.625ZM9.5 18.25C7.91333 18.25 6.44333 17.8533 5.09 17.06C3.77167 16.2783 2.72167 15.2283 1.94 13.91C1.14667 12.5567 0.75 11.0867 0.75 9.5C0.75 7.91333 1.14667 6.44333 1.94 5.09C2.72167 3.77167 3.77167 2.72167 5.09 1.94C6.44333 1.14667 7.91333 0.75 9.5 0.75C11.0867 0.75 12.5567 1.14667 13.91 1.94C15.2283 2.72167 16.2783 3.77167 17.06 5.09C17.8533 6.44333 18.25 7.91333 18.25 9.5C18.25 11.0867 17.8533 12.5567 17.06 13.91C16.2783 15.2283 15.2283 16.2783 13.91 17.06C12.5567 17.8533 11.0867 18.25 9.5 18.25ZM9.5 16.5C10.7717 16.5 11.95 16.1792 13.035 15.5375C14.085 14.9192 14.9192 14.085 15.5375 13.035C16.1792 11.95 16.5 10.7717 16.5 9.5C16.5 8.22833 16.1792 7.05 15.5375 5.965C14.9192 4.915 14.085 4.08083 13.035 3.4625C11.95 2.82083 10.7717 2.5 9.5 2.5C8.22833 2.5 7.05 2.82083 5.965 3.4625C4.915 4.08083 4.08083 4.915 3.4625 5.965C2.82083 7.05 2.5 8.22833 2.5 9.5C2.5 10.7717 2.82083 11.95 3.4625 13.035C4.08083 14.085 4.915 14.9192 5.965 15.5375C7.05 16.1792 8.22833 16.5 9.5 16.5Z" fill="url(#paint0_linear_416_6482)"/>
<defs>
<linearGradient id="paint0_linear_416_6482" x1="9.5" y1="-1" x2="9.5" y2="20" gradientUnits="userSpaceOnUse">
<stop stop-color="#046FBD"/>
<stop offset="1" stop-color="#2189F4"/>
</linearGradient>
</defs>
</svg>
