<svg width="20" height="20" viewBox="0 0 20 20" fill="none" xmlns="http://www.w3.org/2000/svg">
<g clip-path="url(#clip0_29_10211)">
<path d="M15.8333 20H15C14.779 20 14.567 19.9122 14.4107 19.7559C14.2545 19.5996 14.1667 19.3877 14.1667 19.1667C14.1667 18.9457 14.2545 18.7337 14.4107 18.5774C14.567 18.4211 14.779 18.3333 15 18.3333H15.8333C16.4964 18.3333 17.1323 18.0699 17.6011 17.6011C18.0699 17.1323 18.3333 16.4964 18.3333 15.8333V15C18.3333 14.779 18.4211 14.567 18.5774 14.4107C18.7337 14.2545 18.9457 14.1667 19.1667 14.1667C19.3877 14.1667 19.5996 14.2545 19.7559 14.4107C19.9122 14.567 20 14.779 20 15V15.8333C19.9987 16.938 19.5593 17.997 18.7782 18.7782C17.997 19.5593 16.938 19.9987 15.8333 20ZM20 5V4.16667C19.9987 3.062 19.5593 2.00296 18.7782 1.22185C17.997 0.440735 16.938 0.00132321 15.8333 0L15 0C14.779 0 14.567 0.0877974 14.4107 0.244078C14.2545 0.400358 14.1667 0.61232 14.1667 0.833333C14.1667 1.05435 14.2545 1.26631 14.4107 1.42259C14.567 1.57887 14.779 1.66667 15 1.66667H15.8333C16.4964 1.66667 17.1323 1.93006 17.6011 2.3989C18.0699 2.86774 18.3333 3.50363 18.3333 4.16667V5C18.3333 5.22101 18.4211 5.43297 18.5774 5.58926C18.7337 5.74554 18.9457 5.83333 19.1667 5.83333C19.3877 5.83333 19.5996 5.74554 19.7559 5.58926C19.9122 5.43297 20 5.22101 20 5ZM5.83333 19.1667C5.83333 18.9457 5.74554 18.7337 5.58926 18.5774C5.43297 18.4211 5.22101 18.3333 5 18.3333H4.16667C3.50363 18.3333 2.86774 18.0699 2.3989 17.6011C1.93006 17.1323 1.66667 16.4964 1.66667 15.8333V15C1.66667 14.779 1.57887 14.567 1.42259 14.4107C1.26631 14.2545 1.05435 14.1667 0.833333 14.1667C0.61232 14.1667 0.400358 14.2545 0.244078 14.4107C0.0877974 14.567 0 14.779 0 15L0 15.8333C0.00132321 16.938 0.440735 17.997 1.22185 18.7782C2.00296 19.5593 3.062 19.9987 4.16667 20H5C5.22101 20 5.43297 19.9122 5.58926 19.7559C5.74554 19.5996 5.83333 19.3877 5.83333 19.1667ZM1.66667 5V4.16667C1.66667 3.50363 1.93006 2.86774 2.3989 2.3989C2.86774 1.93006 3.50363 1.66667 4.16667 1.66667H5C5.22101 1.66667 5.43297 1.57887 5.58926 1.42259C5.74554 1.26631 5.83333 1.05435 5.83333 0.833333C5.83333 0.61232 5.74554 0.400358 5.58926 0.244078C5.43297 0.0877974 5.22101 0 5 0L4.16667 0C3.062 0.00132321 2.00296 0.440735 1.22185 1.22185C0.440735 2.00296 0.00132321 3.062 0 4.16667L0 5C0 5.22101 0.0877974 5.43297 0.244078 5.58926C0.400358 5.74554 0.61232 5.83333 0.833333 5.83333C1.05435 5.83333 1.26631 5.74554 1.42259 5.58926C1.57887 5.43297 1.66667 5.22101 1.66667 5Z" fill="#F2F2F2"/>
<path d="M0 9.99984C0 9.5396 0.373096 9.1665 0.833334 9.1665H19.1667C19.6269 9.1665 20 9.5396 20 9.99984C20 10.4601 19.6269 10.8332 19.1667 10.8332H0.833334C0.373096 10.8332 0 10.4601 0 9.99984Z" fill="#F2F2F2"/>
</g>
<defs>
<clipPath id="clip0_29_10211">
<rect width="20" height="20" fill="white"/>
</clipPath>
</defs>
</svg>
