<svg width="19" height="17" viewBox="0 0 19 17" fill="none" xmlns="http://www.w3.org/2000/svg">
<path d="M8.49996 16.9999C6.95863 16.9999 5.53064 16.6146 4.21598 15.8439C2.93532 15.0846 1.91532 14.0646 1.15599 12.7839C0.385331 11.4693 0 10.0413 0 8.49996C0 6.95863 0.385331 5.53064 1.15599 4.21598C1.91532 2.93532 2.93532 1.91532 4.21598 1.15599C5.53064 0.385331 6.95863 0 8.49996 0C9.83729 0 11.1009 0.300332 12.2909 0.900996C13.4923 1.50166 14.4953 2.33466 15.2999 3.39998H13.0049C12.0983 2.60665 11.0669 2.09099 9.91095 1.85299C8.77762 1.61499 7.65563 1.66033 6.54497 1.98899C5.40031 2.32899 4.41431 2.92965 3.58698 3.79098C2.75965 4.65231 2.19866 5.66097 1.90399 6.81697C1.62066 7.93896 1.62066 9.06096 1.90399 10.183C2.19866 11.3389 2.75965 12.3476 3.58698 13.2089C4.41431 14.0703 5.40031 14.6709 6.54497 15.0109C7.65563 15.3396 8.77762 15.3849 9.91095 15.1469C11.0669 14.9089 12.0983 14.3933 13.0049 13.5999H15.2999C14.4953 14.6766 13.4923 15.5153 12.2909 16.1159C11.1009 16.7053 9.83729 16.9999 8.49996 16.9999ZM14.4499 11.8999V9.34995H7.64996V7.64996H14.4499V5.09998L18.6999 8.49996L14.4499 11.8999Z" fill="white"/>
</svg>
