<svg width="163" height="163" viewBox="0 0 163 163" fill="none" xmlns="http://www.w3.org/2000/svg">
<path d="M126.622 62.2681C121.855 50.9465 113.052 41.8 101.921 36.6043C90.7897 31.4085 78.1251 30.5342 66.3856 34.1511C54.646 37.768 44.6693 45.618 38.3921 56.1771C32.1149 66.7362 29.9853 79.2511 32.4165 91.2922C34.8477 103.333 41.6664 114.041 51.5488 121.338C61.4312 128.634 73.6722 131.998 85.8954 130.776C98.1185 129.555 109.452 123.835 117.695 114.728C125.938 105.62 130.503 93.7742 130.503 81.4902C130.513 74.8872 129.193 68.3498 126.622 62.2681ZM74.8518 111.739L61.7334 100.479L49.0961 89.6392L60.3225 76.5592L71.9341 86.525L99.2301 51.2445L113.144 61.4164L74.8518 111.739Z" fill="#1A83E7"/>
<path d="M162.969 81.5286L153.862 67.1272L156.778 50.3498L142.876 40.515L139.121 23.9054L122.504 20.1537L112.699 6.23161L95.914 9.10773L81.5174 0L67.116 9.10773L50.3386 6.19166L40.5039 20.0929L23.8862 23.8479L20.1345 40.4655L6.22043 50.2699L9.09656 67.0473L0 81.4439L9.10773 95.8453L6.19166 112.623L20.0929 122.457L23.8479 139.075L40.4655 142.827L50.2779 156.751L67.0633 153.874L81.4599 162.971L95.8613 153.863L112.639 156.779L122.473 142.878L139.091 139.123L142.843 122.505L156.766 112.693L153.89 95.9076L162.969 81.5286ZM81.4791 139.436C49.4758 139.436 23.5331 113.494 23.5331 81.4903C23.5331 49.487 49.4758 23.5443 81.4791 23.5443C113.482 23.5443 139.425 49.487 139.425 81.4903C139.425 113.494 113.482 139.436 81.4791 139.436Z" fill="#1A83E7"/>
</svg>
