<svg width="32" height="32" viewBox="0 0 32 32" fill="none" xmlns="http://www.w3.org/2000/svg">
<path d="M16 31.8333C13.1289 31.8333 10.4689 31.1156 8.02 29.68C5.63444 28.2656 3.73444 26.3656 2.32 23.98C0.884445 21.5311 0.166667 18.8711 0.166667 16C0.166667 13.1289 0.884445 10.4689 2.32 8.02C3.73444 5.63444 5.63444 3.73444 8.02 2.32C10.4689 0.884444 13.1289 0.166666 16 0.166666C18.8711 0.166666 21.5311 0.884444 23.98 2.32C26.3656 3.73444 28.2656 5.63444 29.68 8.02C31.1156 10.4689 31.8333 13.1289 31.8333 16C31.8333 18.8711 31.1156 21.5311 29.68 23.98C28.2656 26.3656 26.3656 28.2656 23.98 29.68C21.5311 31.1156 18.8711 31.8333 16 31.8333ZM14.4167 22.3333L25.6267 11.1233L23.3783 8.90667L14.4167 17.8683L9.95167 13.3717L7.70333 15.62L14.4167 22.3333Z" fill="#06B117"/>
</svg>
