<svg width="25" height="24" viewBox="0 0 25 24" fill="none" xmlns="http://www.w3.org/2000/svg">
<path fill-rule="evenodd" clip-rule="evenodd" d="M8.19543 13.3909C7.55067 13.3909 7.02686 12.8671 7.02686 12.2223C7.02686 11.5795 7.55067 11.0557 8.19543 11.0557C8.84019 11.0557 9.364 11.5795 9.364 12.2223C9.364 12.8671 8.84019 13.3909 8.19543 13.3909ZM12.7383 13.3909C12.0935 13.3909 11.5697 12.8671 11.5697 12.2223C11.5697 11.5795 12.0935 11.0557 12.7383 11.0557C13.383 11.0557 13.9069 11.5795 13.9069 12.2223C13.9069 12.8671 13.383 13.3909 12.7383 13.3909ZM16.1127 12.2223C16.1127 12.8671 16.6365 13.3909 17.2812 13.3909C17.926 13.3909 18.4498 12.8671 18.4498 12.2223C18.4498 11.5795 17.926 11.0557 17.2812 11.0557C16.6365 11.0557 16.1127 11.5795 16.1127 12.2223Z" fill="url(#paint0_linear_51_6010)"/>
<path fill-rule="evenodd" clip-rule="evenodd" d="M12.52 2C6.71 2 2.5 6.74612 2.5 12.015C2.5 13.6975 2.99 15.4291 3.85 17.0115C4.01 17.2729 4.03 17.6024 3.92 17.9139L3.25 20.1572C3.1 20.698 3.56 21.0976 4.07 20.9374L6.09 20.3375C6.64 20.1572 7.07 20.3866 7.58 20.698C9.04 21.5583 10.86 22 12.5 22C17.46 22 22.5 18.1642 22.5 11.985C22.5 6.65598 18.2 2 12.52 2Z" stroke="url(#paint1_linear_51_6010)" stroke-width="1.5" stroke-linecap="round" stroke-linejoin="round"/>
<defs>
<linearGradient id="paint0_linear_51_6010" x1="12.7383" y1="11.0557" x2="12.7383" y2="13.3909" gradientUnits="userSpaceOnUse">
<stop stop-color="#046FBD"/>
<stop offset="1" stop-color="#2189F4"/>
</linearGradient>
<linearGradient id="paint1_linear_51_6010" x1="12.5" y1="2" x2="12.5" y2="22" gradientUnits="userSpaceOnUse">
<stop stop-color="#046FBD"/>
<stop offset="1" stop-color="#2189F4"/>
</linearGradient>
</defs>
</svg>
