<svg width="18" height="16" viewBox="0 0 18 16" fill="none" xmlns="http://www.w3.org/2000/svg">
<path d="M0.666667 5.91667V1.33333C0.666667 1.1 0.744444 0.905555 0.9 0.75C1.06667 0.583333 1.26667 0.5 1.5 0.5H16.5C16.7333 0.5 16.9278 0.583333 17.0833 0.75C17.25 0.905555 17.3333 1.1 17.3333 1.33333V5.91667C16.9556 5.91667 16.6056 6.01111 16.2833 6.2C15.9722 6.38889 15.7222 6.64444 15.5333 6.96667C15.3444 7.27778 15.25 7.62222 15.25 8C15.25 8.37778 15.3444 8.72778 15.5333 9.05C15.7222 9.36111 15.9722 9.61111 16.2833 9.8C16.6056 9.98889 16.9556 10.0833 17.3333 10.0833V14.6667C17.3333 14.9 17.25 15.1 17.0833 15.2667C16.9278 15.4222 16.7333 15.5 16.5 15.5H1.5C1.26667 15.5 1.06667 15.4222 0.9 15.2667C0.744444 15.1 0.666667 14.9 0.666667 14.6667V10.0833C1.04444 10.0833 1.38889 9.98889 1.7 9.8C2.02222 9.61111 2.27778 9.36111 2.46667 9.05C2.65556 8.72778 2.75 8.37778 2.75 8C2.75 7.62222 2.65556 7.27778 2.46667 6.96667C2.27778 6.64444 2.02222 6.38889 1.7 6.2C1.38889 6.01111 1.04444 5.91667 0.666667 5.91667ZM2.33333 4.63333C2.96667 4.95555 3.47222 5.42222 3.85 6.03333C4.22778 6.63333 4.41667 7.28889 4.41667 8C4.41667 8.71111 4.22778 9.37222 3.85 9.98333C3.47222 10.5833 2.96667 11.0444 2.33333 11.3667V13.8333H15.6667V11.3667C15.0333 11.0444 14.5278 10.5833 14.15 9.98333C13.7722 9.37222 13.5833 8.71111 13.5833 8C13.5833 7.28889 13.7722 6.63333 14.15 6.03333C14.5278 5.42222 15.0333 4.95555 15.6667 4.63333V2.16667H2.33333V4.63333ZM6.5 5.5H11.5V7.16667H6.5V5.5ZM6.5 8.83333H11.5V10.5H6.5V8.83333Z" fill="url(#paint0_linear_416_6935)"/>
<defs>
<linearGradient id="paint0_linear_416_6935" x1="9" y1="-2" x2="9" y2="18" gradientUnits="userSpaceOnUse">
<stop stop-color="#046FBD"/>
<stop offset="1" stop-color="#2189F4"/>
</linearGradient>
</defs>
</svg>
