<svg width="20" height="20" viewBox="0 0 20 20" fill="none" xmlns="http://www.w3.org/2000/svg">
<g clip-path="url(#clip0_29_10225)">
<path d="M18.3333 14.1667L18.3333 15.8333C18.3333 16.4964 18.0699 17.1323 17.6011 17.6011C17.1323 18.0699 16.4964 18.3333 15.8333 18.3333L4.16667 18.3333C3.50363 18.3333 2.86774 18.0699 2.3989 17.6011C1.93006 17.1323 1.66667 16.4964 1.66667 15.8333L1.66667 14.1667C1.66667 13.9457 1.57887 13.7337 1.42259 13.5774C1.26631 13.4211 1.05435 13.3333 0.833333 13.3333C0.612319 13.3333 0.400358 13.4211 0.244077 13.5774C0.0877971 13.7337 -2.64644e-07 13.9457 -2.54983e-07 14.1667L-1.82131e-07 15.8333C0.00132308 16.938 0.440735 17.997 1.22185 18.7782C2.00296 19.5593 3.062 19.9987 4.16667 20L15.8333 20C16.938 19.9987 17.997 19.5593 18.7782 18.7781C19.5593 17.997 19.9987 16.938 20 15.8333L20 14.1667C20 13.9457 19.9122 13.7337 19.7559 13.5774C19.5996 13.4211 19.3877 13.3333 19.1667 13.3333C18.9457 13.3333 18.7337 13.4211 18.5774 13.5774C18.4211 13.7337 18.3333 13.9457 18.3333 14.1667Z" fill="#F2F2F2"/>
<path d="M15.589 4.55183L11.7674 0.72933C11.2978 0.262075 10.6623 -0.000231073 9.99985 -0.000231044C9.33741 -0.000231015 8.70192 0.262075 8.23235 0.72933L4.41068 4.55183C4.25889 4.709 4.17489 4.9195 4.17679 5.138C4.17869 5.35649 4.26633 5.56551 4.42084 5.72001C4.57534 5.87452 4.78435 5.96216 5.00285 5.96406C5.22135 5.96596 5.43185 5.88196 5.58902 5.73016L9.16652 2.1535L9.16652 15.0002C9.16652 15.2212 9.25432 15.4331 9.4106 15.5894C9.56688 15.7457 9.77884 15.8335 9.99985 15.8335C10.2209 15.8335 10.4328 15.7457 10.5891 15.5894C10.7454 15.4331 10.8332 15.2212 10.8332 15.0002L10.8332 2.15266L14.4107 5.73016C14.4876 5.80975 14.5795 5.87324 14.6812 5.91691C14.7829 5.96059 14.8922 5.98358 15.0029 5.98454C15.1135 5.9855 15.2232 5.96441 15.3256 5.92251C15.4281 5.88061 15.5211 5.81874 15.5993 5.74049C15.6776 5.66225 15.7395 5.5692 15.7814 5.46679C15.8233 5.36438 15.8444 5.25464 15.8434 5.14399C15.8424 5.03334 15.8194 4.924 15.7758 4.82233C15.7321 4.72066 15.6686 4.6287 15.589 4.55183Z" fill="#F2F2F2"/>
</g>
<defs>
<clipPath id="clip0_29_10225">
<rect width="20" height="20" fill="white" transform="translate(0 20) rotate(-90)"/>
</clipPath>
</defs>
</svg>
