<svg width="40" height="40" viewBox="0 0 40 40" fill="none" xmlns="http://www.w3.org/2000/svg">
<rect width="40" height="40" rx="20" fill="#F2F2F2"/>
<path d="M20 11C18.9391 11 17.9217 11.4214 17.1716 12.1716C16.4214 12.9217 16 13.9391 16 15C16 16.0609 16.4214 17.0783 17.1716 17.8284C17.9217 18.5786 18.9391 19 20 19C21.0609 19 22.0783 18.5786 22.8284 17.8284C23.5786 17.0783 24 16.0609 24 15C24 13.9391 23.5786 12.9217 22.8284 12.1716C22.0783 11.4214 21.0609 11 20 11ZM20 22C16.996 22 11 23.508 11 26.5V28C11 28.552 11.448 29 12 29H28C28.552 29 29 28.552 29 28V26.5C29 23.508 23.004 22 20 22Z" fill="#B5B5B5"/>
</svg>
